<svg xmlns="http://www.w3.org/2000/svg" xmlns:xlink="http://www.w3.org/1999/xlink" width="500" zoomAndPan="magnify" viewBox="0 0 375 374.999991" height="500" preserveAspectRatio="xMidYMid meet" version="1.0"><defs><clipPath id="1f19353def"><path d="M 44.015625 58.472656 L 330.984375 58.472656 L 330.984375 323.277344 L 44.015625 323.277344 Z M 44.015625 58.472656 " clip-rule="nonzero"/></clipPath><clipPath id="f0c67f6514"><path d="M 61.265625 58.472656 L 313.734375 58.472656 C 318.3125 58.472656 322.699219 60.289062 325.933594 63.527344 C 329.167969 66.761719 330.984375 71.148438 330.984375 75.722656 L 330.984375 306.027344 C 330.984375 310.601562 329.167969 314.988281 325.933594 318.222656 C 322.699219 321.460938 318.3125 323.277344 313.734375 323.277344 L 61.265625 323.277344 C 56.6875 323.277344 52.300781 321.460938 49.066406 318.222656 C 45.832031 314.988281 44.015625 310.601562 44.015625 306.027344 L 44.015625 75.722656 C 44.015625 71.148438 45.832031 66.761719 49.066406 63.527344 C 52.300781 60.289062 56.6875 58.472656 61.265625 58.472656 " clip-rule="nonzero"/></clipPath><clipPath id="fb2cca5941"><path d="M 82.738281 214.726562 L 170.9375 214.726562 L 170.9375 323.277344 L 82.738281 323.277344 Z M 82.738281 214.726562 " clip-rule="nonzero"/></clipPath><clipPath id="37064e06f6"><path d="M 112.15625 217.273438 C 116.660156 215.734375 121.816406 214.726562 126.863281 214.726562 C 131.90625 214.726562 136.761719 215.59375 141.234375 217.128906 C 141.332031 217.175781 141.425781 217.175781 141.523438 217.226562 C 158.324219 223.375 170.699219 239.617188 170.9375 258.597656 L 170.9375 323.277344 L 82.738281 323.277344 L 82.738281 258.644531 C 82.976562 239.523438 95.164062 223.28125 112.15625 217.273438 " clip-rule="nonzero"/></clipPath><clipPath id="b9b3afd352"><path d="M 82.738281 85.851562 L 160.691406 85.851562 L 160.691406 165.964844 L 82.738281 165.964844 Z M 82.738281 85.851562 " clip-rule="nonzero"/></clipPath><clipPath id="6ae74cc781"><path d="M 99.988281 85.851562 L 143.441406 85.851562 C 148.015625 85.851562 152.402344 87.671875 155.636719 90.90625 C 158.875 94.140625 160.691406 98.527344 160.691406 103.101562 L 160.691406 148.714844 C 160.691406 153.289062 158.875 157.675781 155.636719 160.910156 C 152.402344 164.144531 148.015625 165.964844 143.441406 165.964844 L 99.988281 165.964844 C 95.414062 165.964844 91.027344 164.144531 87.792969 160.910156 C 84.558594 157.675781 82.738281 153.289062 82.738281 148.714844 L 82.738281 103.101562 C 82.738281 98.527344 84.558594 94.140625 87.792969 90.90625 C 91.027344 87.671875 95.414062 85.851562 99.988281 85.851562 " clip-rule="nonzero"/></clipPath><clipPath id="d4a4fc61f0"><path d="M 82.738281 85.855469 L 160.738281 85.855469 L 160.738281 166.101562 L 82.738281 166.101562 Z M 82.738281 85.855469 " clip-rule="nonzero"/></clipPath><clipPath id="4015ad85a7"><path d="M 100 85.855469 L 143.480469 85.855469 C 148.058594 85.855469 152.445312 87.675781 155.683594 90.917969 C 158.921875 94.15625 160.738281 98.554688 160.738281 103.136719 L 160.738281 148.820312 C 160.738281 153.402344 158.921875 157.796875 155.683594 161.039062 C 152.445312 164.277344 148.058594 166.097656 143.480469 166.097656 L 100 166.097656 C 95.421875 166.097656 91.03125 164.277344 87.796875 161.039062 C 84.558594 157.796875 82.738281 153.402344 82.738281 148.820312 L 82.738281 103.136719 C 82.738281 98.554688 84.558594 94.15625 87.796875 90.917969 C 91.03125 87.675781 95.421875 85.855469 100 85.855469 " clip-rule="nonzero"/></clipPath><clipPath id="0bd7ad4074"><path d="M 210.707031 85.851562 L 288.65625 85.851562 L 288.65625 165.964844 L 210.707031 165.964844 Z M 210.707031 85.851562 " clip-rule="nonzero"/></clipPath><clipPath id="9b8fb0d7fb"><path d="M 227.957031 85.851562 L 271.40625 85.851562 C 275.984375 85.851562 280.371094 87.671875 283.605469 90.90625 C 286.839844 94.140625 288.65625 98.527344 288.65625 103.101562 L 288.65625 148.714844 C 288.65625 153.289062 286.839844 157.675781 283.605469 160.910156 C 280.371094 164.144531 275.984375 165.964844 271.40625 165.964844 L 227.957031 165.964844 C 223.382812 165.964844 218.996094 164.144531 215.757812 160.910156 C 212.523438 157.675781 210.707031 153.289062 210.707031 148.714844 L 210.707031 103.101562 C 210.707031 98.527344 212.523438 94.140625 215.757812 90.90625 C 218.996094 87.671875 223.382812 85.851562 227.957031 85.851562 " clip-rule="nonzero"/></clipPath><clipPath id="b5ee2838bb"><path d="M 210.707031 85.855469 L 288.707031 85.855469 L 288.707031 166.101562 L 210.707031 166.101562 Z M 210.707031 85.855469 " clip-rule="nonzero"/></clipPath><clipPath id="fb977650e7"><path d="M 227.96875 85.855469 L 271.445312 85.855469 C 276.023438 85.855469 280.414062 87.675781 283.652344 90.917969 C 286.886719 94.15625 288.707031 98.554688 288.707031 103.136719 L 288.707031 148.820312 C 288.707031 153.402344 286.886719 157.796875 283.652344 161.039062 C 280.414062 164.277344 276.023438 166.097656 271.445312 166.097656 L 227.96875 166.097656 C 223.390625 166.097656 219 164.277344 215.761719 161.039062 C 212.527344 157.796875 210.707031 153.402344 210.707031 148.820312 L 210.707031 103.136719 C 210.707031 98.554688 212.527344 94.15625 215.761719 90.917969 C 219 87.675781 223.390625 85.855469 227.96875 85.855469 " clip-rule="nonzero"/></clipPath><clipPath id="a80f43f225"><path d="M 210.707031 214.726562 L 288.65625 214.726562 L 288.65625 294.835938 L 210.707031 294.835938 Z M 210.707031 214.726562 " clip-rule="nonzero"/></clipPath><clipPath id="a7fbf5f21b"><path d="M 227.957031 214.726562 L 271.40625 214.726562 C 275.984375 214.726562 280.371094 216.542969 283.605469 219.777344 C 286.839844 223.015625 288.65625 227.402344 288.65625 231.976562 L 288.65625 277.585938 C 288.65625 282.164062 286.839844 286.550781 283.605469 289.785156 C 280.371094 293.019531 275.984375 294.835938 271.40625 294.835938 L 227.957031 294.835938 C 223.382812 294.835938 218.996094 293.019531 215.757812 289.785156 C 212.523438 286.550781 210.707031 282.164062 210.707031 277.585938 L 210.707031 231.976562 C 210.707031 227.402344 212.523438 223.015625 215.757812 219.777344 C 218.996094 216.542969 223.382812 214.726562 227.957031 214.726562 " clip-rule="nonzero"/></clipPath><clipPath id="0e7603987f"><path d="M 210.707031 214.730469 L 288.707031 214.730469 L 288.707031 294.976562 L 210.707031 294.976562 Z M 210.707031 214.730469 " clip-rule="nonzero"/></clipPath><clipPath id="61ff6436ab"><path d="M 227.96875 214.730469 L 271.445312 214.730469 C 276.023438 214.730469 280.414062 216.550781 283.652344 219.792969 C 286.886719 223.03125 288.707031 227.425781 288.707031 232.007812 L 288.707031 277.695312 C 288.707031 282.277344 286.886719 286.671875 283.652344 289.910156 C 280.414062 293.152344 276.023438 294.972656 271.445312 294.972656 L 227.96875 294.972656 C 223.390625 294.972656 219 293.152344 215.761719 289.910156 C 212.527344 286.671875 210.707031 282.277344 210.707031 277.695312 L 210.707031 232.007812 C 210.707031 227.425781 212.527344 223.03125 215.761719 219.792969 C 219 216.550781 223.390625 214.730469 227.96875 214.730469 " clip-rule="nonzero"/></clipPath></defs><g clip-path="url(#1f19353def)"><g clip-path="url(#f0c67f6514)"><path fill="#ffefbd" d="M 44.015625 58.472656 L 330.984375 58.472656 L 330.984375 323.277344 L 44.015625 323.277344 Z M 44.015625 58.472656 " fill-opacity="1" fill-rule="nonzero"/></g></g><path stroke-linecap="butt" transform="matrix(0.750712, 0, 0, 0.75, 33.145395, 44.999997)" fill="none" stroke-linejoin="miter" d="M -0.00115095 4.000004 L 411.613452 4.000004 " stroke="#ffbd59" stroke-width="8" stroke-opacity="1" stroke-miterlimit="4"/><g clip-path="url(#fb2cca5941)"><g clip-path="url(#37064e06f6)"><path fill="#ffbd59" d="M 82.738281 214.726562 L 170.9375 214.726562 L 170.9375 323.277344 L 82.738281 323.277344 Z M 82.738281 214.726562 " fill-opacity="1" fill-rule="nonzero"/></g></g><g clip-path="url(#b9b3afd352)"><g clip-path="url(#6ae74cc781)"><path fill="#ffffff" d="M 82.738281 85.851562 L 160.691406 85.851562 L 160.691406 165.964844 L 82.738281 165.964844 Z M 82.738281 85.851562 " fill-opacity="1" fill-rule="nonzero"/></g></g><g clip-path="url(#d4a4fc61f0)"><g clip-path="url(#4015ad85a7)"><path stroke-linecap="butt" transform="matrix(0.750564, 0, 0, 0.751316, 82.739771, 85.857232)" fill="none" stroke-linejoin="miter" d="M 22.996353 -0.00234683 L 80.926769 -0.00234683 C 87.026351 -0.00234683 92.870916 2.420484 97.185381 6.735826 C 101.499847 11.045968 103.919903 16.900276 103.919903 22.998946 L 103.919903 83.803674 C 103.919903 89.902344 101.499847 95.751452 97.185381 100.066794 C 92.870916 104.376937 87.026351 106.799767 80.926769 106.799767 L 22.996353 106.799767 C 16.896772 106.799767 11.047002 104.376937 6.737741 100.066794 C 2.423275 95.751452 -0.00198493 89.902344 -0.00198493 83.803674 L -0.00198493 22.998946 C -0.00198493 16.900276 2.423275 11.045968 6.737741 6.735826 C 11.047002 2.420484 16.896772 -0.00234683 22.996353 -0.00234683 " stroke="#ff914d" stroke-width="4" stroke-opacity="1" stroke-miterlimit="4"/></g></g><g clip-path="url(#0bd7ad4074)"><g clip-path="url(#9b8fb0d7fb)"><path fill="#ffffff" d="M 210.707031 85.851562 L 288.65625 85.851562 L 288.65625 165.964844 L 210.707031 165.964844 Z M 210.707031 85.851562 " fill-opacity="1" fill-rule="nonzero"/></g></g><g clip-path="url(#b5ee2838bb)"><g clip-path="url(#fb977650e7)"><path stroke-linecap="butt" transform="matrix(0.750564, 0, 0, 0.751316, 210.7071, 85.857232)" fill="none" stroke-linejoin="miter" d="M 22.998246 -0.00234683 L 80.923457 -0.00234683 C 87.023039 -0.00234683 92.872809 2.420484 97.187274 6.735826 C 101.496535 11.045968 103.921796 16.900276 103.921796 22.998946 L 103.921796 83.803674 C 103.921796 89.902344 101.496535 95.751452 97.187274 100.066794 C 92.872809 104.376937 87.023039 106.799767 80.923457 106.799767 L 22.998246 106.799767 C 16.898664 106.799767 11.048895 104.376937 6.734429 100.066794 C 2.425168 95.751452 -0.000091949 89.902344 -0.000091949 83.803674 L -0.000091949 22.998946 C -0.000091949 16.900276 2.425168 11.045968 6.734429 6.735826 C 11.048895 2.420484 16.898664 -0.00234683 22.998246 -0.00234683 " stroke="#ff914d" stroke-width="4" stroke-opacity="1" stroke-miterlimit="4"/></g></g><g clip-path="url(#a80f43f225)"><g clip-path="url(#a7fbf5f21b)"><path fill="#ffffff" d="M 210.707031 214.726562 L 288.65625 214.726562 L 288.65625 294.835938 L 210.707031 294.835938 Z M 210.707031 214.726562 " fill-opacity="1" fill-rule="nonzero"/></g></g><g clip-path="url(#0e7603987f)"><g clip-path="url(#61ff6436ab)"><path stroke-linecap="butt" transform="matrix(0.750564, 0, 0, 0.751316, 210.7071, 214.731343)" fill="none" stroke-linejoin="miter" d="M 22.998246 -0.00116429 L 80.923457 -0.00116429 C 87.023039 -0.00116429 92.872809 2.421666 97.187274 6.737008 C 101.496535 11.047151 103.921796 16.896259 103.921796 22.994929 L 103.921796 83.804856 C 103.921796 89.903527 101.496535 95.752635 97.187274 100.062777 C 92.872809 104.378119 87.023039 106.80095 80.923457 106.80095 L 22.998246 106.80095 C 16.898664 106.80095 11.048895 104.378119 6.734429 100.062777 C 2.425168 95.752635 -0.000091949 89.903527 -0.000091949 83.804856 L -0.000091949 22.994929 C -0.000091949 16.896259 2.425168 11.047151 6.734429 6.737008 C 11.048895 2.421666 16.898664 -0.00116429 22.998246 -0.00116429 " stroke="#ff914d" stroke-width="4" stroke-opacity="1" stroke-miterlimit="4"/></g></g></svg>