<svg xmlns="http://www.w3.org/2000/svg" xmlns:xlink="http://www.w3.org/1999/xlink" width="500" zoomAndPan="magnify" viewBox="0 0 375 374.999991" height="500" preserveAspectRatio="xMidYMid meet" version="1.0"><defs><clipPath id="10ddee6660"><path d="M 105 76 L 323 76 L 323 211 L 105 211 Z M 105 76 " clip-rule="nonzero"/></clipPath><clipPath id="04a7dc9236"><path d="M 105.527344 121.90625 L 301.988281 76.644531 L 322.492188 165.628906 L 126.03125 210.894531 Z M 105.527344 121.90625 " clip-rule="nonzero"/></clipPath><clipPath id="b9e88c5901"><path d="M 105.527344 121.90625 L 301.988281 76.644531 L 322.492188 165.628906 L 126.03125 210.894531 Z M 105.527344 121.90625 " clip-rule="nonzero"/></clipPath><clipPath id="92389f8be3"><path d="M 92.234375 109.046875 L 140.292969 109.046875 L 140.292969 204 L 92.234375 204 Z M 92.234375 109.046875 " clip-rule="nonzero"/></clipPath><clipPath id="dc84c38fda"><path d="M 121.949219 191.109375 C 121.949219 187.660156 129.761719 191.921875 131.792969 190.398438 C 133.925781 188.773438 131.996094 178.320312 133.113281 178.117188 C 134.128906 177.914062 136.664062 183.699219 137.578125 186.746094 C 138.492188 189.789062 139.40625 193.851562 138.796875 196.589844 C 138.289062 198.824219 136.664062 201.054688 134.941406 202.273438 C 133.214844 203.492188 130.167969 204 128.242188 203.898438 C 126.617188 203.796875 125.09375 203.085938 123.875 202.273438 C 122.65625 201.359375 122.050781 200.753906 120.832031 198.722656 C 116.667969 191.71875 105.503906 160.964844 101.140625 147.769531 C 98.5 139.546875 97.382812 132.238281 95.660156 127.570312 C 94.644531 124.929688 92.917969 123.613281 92.714844 121.480469 C 92.511719 119.144531 93.425781 115.898438 94.542969 114.070312 C 95.457031 112.546875 96.976562 111.429688 98.398438 110.722656 C 99.921875 109.910156 101.546875 109.402344 103.371094 109.503906 C 105.503906 109.605469 108.753906 110.621094 110.476562 112.140625 C 112.304688 113.765625 114.03125 118.941406 114.03125 118.941406 C 114.03125 118.941406 111.1875 112.851562 111.1875 112.851562 C 111.1875 112.851562 113.726562 117.21875 114.03125 119.042969 C 114.234375 120.363281 114.234375 121.277344 113.828125 122.496094 C 113.320312 124.21875 111.898438 126.960938 110.273438 128.382812 C 108.652344 129.804688 106.011719 130.816406 103.878906 130.917969 C 101.75 131.019531 99.109375 130.3125 97.28125 129.09375 C 95.457031 127.875 93.832031 125.335938 93.121094 123.613281 C 92.613281 122.394531 92.511719 121.480469 92.613281 120.160156 C 92.816406 118.332031 93.527344 115.390625 94.847656 113.664062 C 96.167969 111.9375 98.398438 110.417969 100.53125 109.808594 C 102.5625 109.199219 105.300781 109.402344 107.332031 110.214844 C 109.363281 111.027344 111.492188 112.851562 112.609375 114.679688 C 113.726562 116.507812 114.132812 119.550781 114.03125 121.378906 C 114.03125 122.699219 113.726562 123.613281 113.117188 124.726562 C 112.203125 126.351562 110.273438 128.6875 108.347656 129.703125 C 106.417969 130.714844 103.371094 131.019531 101.546875 130.816406 C 100.226562 130.714844 99.414062 130.511719 98.296875 129.703125 C 96.472656 128.28125 93.222656 124.21875 92.714844 121.480469 C 92.308594 119.042969 93.425781 115.898438 94.542969 114.070312 C 95.457031 112.546875 96.773438 111.429688 98.398438 110.722656 C 100.429688 109.808594 103.574219 109.300781 105.910156 109.808594 C 108.246094 110.316406 110.375 111.835938 112.203125 114.070312 C 114.945312 117.421875 117.378906 124.828125 118.902344 129.5 C 120.121094 133.152344 119.816406 134.878906 121.136719 139.546875 C 124.179688 150.507812 139.304688 185.019531 139.101562 194.257812 C 139 197.402344 138.085938 199.027344 136.664062 200.652344 C 135.242188 202.273438 132.707031 203.59375 130.574219 203.898438 C 128.445312 204.203125 125.601562 203.289062 123.875 202.273438 C 122.453125 201.460938 121.644531 200.449219 120.832031 198.722656 C 119.308594 195.675781 117.074219 188.671875 117.785156 184.816406 C 118.394531 181.769531 120.527344 178.828125 122.859375 177.203125 C 125.195312 175.578125 129.355469 174.464844 131.996094 175.375 C 134.839844 176.390625 137.882812 181.46875 139 183.496094 C 139.507812 184.511719 139.507812 185.019531 139.710938 186.035156 C 139.914062 187.253906 140.21875 188.976562 139.914062 190.398438 C 139.609375 191.820312 139 193.34375 137.984375 194.457031 C 136.664062 195.878906 134.332031 197.402344 132.300781 197.707031 C 130.269531 198.011719 127.632812 197.503906 125.90625 196.386719 C 124.179688 195.269531 121.949219 191.109375 121.949219 191.109375 " clip-rule="nonzero"/></clipPath><clipPath id="ef7479c070"><path d="M 157 88 L 266.878906 88 L 266.878906 123.660156 L 157 123.660156 Z M 157 88 " clip-rule="nonzero"/></clipPath><clipPath id="38e7be54b9"><path d="M 255.320312 109.910156 C 237.253906 107.878906 230.65625 108.386719 223.550781 109.707031 C 214.617188 111.429688 203.351562 116.40625 193.707031 118.738281 C 184.980469 120.871094 173.511719 123.410156 168.332031 123.308594 C 166 123.308594 164.882812 123.003906 163.359375 122.292969 C 161.835938 121.582031 160.417969 120.566406 159.402344 119.144531 C 158.183594 117.320312 157.066406 114.171875 157.269531 111.835938 C 157.472656 109.503906 159.097656 106.660156 160.519531 105.035156 C 161.734375 103.71875 163.15625 102.90625 164.882812 102.5 C 166.914062 101.992188 170.058594 102.296875 171.886719 102.804688 C 173.105469 103.210938 173.914062 103.71875 174.828125 104.632812 C 176.148438 105.949219 177.773438 108.285156 178.28125 110.417969 C 178.789062 112.546875 178.179688 115.492188 177.570312 117.21875 C 177.0625 118.433594 176.554688 119.144531 175.539062 120.058594 C 174.117188 121.277344 171.683594 122.902344 169.550781 123.207031 C 167.417969 123.511719 164.578125 122.800781 162.851562 122.089844 C 161.632812 121.582031 160.921875 120.972656 160.113281 119.957031 C 158.996094 118.535156 157.675781 115.59375 157.371094 113.765625 C 157.167969 112.445312 157.167969 111.53125 157.574219 110.316406 C 158.082031 108.589844 159.707031 105.847656 161.023438 104.53125 C 161.9375 103.617188 162.953125 103.210938 164.070312 102.804688 C 165.085938 102.398438 166.101562 102.09375 167.417969 102.09375 C 169.246094 102.195312 172.191406 102.703125 173.914062 103.921875 C 175.640625 105.136719 177.265625 107.675781 177.976562 109.402344 C 178.484375 110.621094 178.6875 111.429688 178.585938 112.75 C 178.484375 114.578125 177.671875 117.421875 176.351562 119.144531 C 175.03125 120.871094 172.800781 122.496094 170.667969 123.003906 C 168.433594 123.613281 165.390625 123.308594 163.359375 122.292969 C 161.226562 121.277344 159.097656 119.042969 158.183594 116.914062 C 157.269531 114.78125 157.066406 111.632812 157.777344 109.402344 C 158.488281 107.167969 160.621094 104.933594 162.546875 103.515625 C 164.476562 102.09375 166.609375 101.484375 169.550781 100.773438 C 174.320312 99.554688 181.832031 99.859375 188.835938 98.4375 C 197.667969 96.714844 209.441406 91.84375 218.273438 90.21875 C 225.375 88.898438 231.0625 88.085938 237.65625 88.289062 C 244.660156 88.492188 254.710938 90.015625 259.378906 91.84375 C 261.917969 92.855469 263.640625 94.074219 264.859375 95.496094 C 265.875 96.714844 266.382812 98.035156 266.484375 99.554688 C 266.585938 101.382812 265.976562 104.328125 265.0625 105.949219 C 264.25 107.269531 263.234375 108.285156 261.816406 108.996094 C 260.089844 109.808594 255.320312 109.910156 255.320312 109.910156 " clip-rule="nonzero"/></clipPath><clipPath id="64acbece05"><path d="M 106 103 L 177.828125 103 L 177.828125 129 L 106 129 Z M 106 103 " clip-rule="nonzero"/></clipPath><clipPath id="38a31ab83b"><path d="M 168.230469 122.191406 C 146.511719 123.613281 127.9375 130.410156 125.296875 127.671875 C 123.875 126.148438 127.429688 119.550781 127.023438 119.449219 C 126.71875 119.347656 125.09375 123.917969 123.875 125.234375 C 123.0625 126.148438 122.351562 126.65625 121.136719 127.0625 C 119.511719 127.671875 116.566406 128.179688 114.539062 127.671875 C 112.507812 127.164062 110.273438 125.84375 108.957031 124.21875 C 107.636719 122.597656 106.722656 120.160156 106.621094 118.128906 C 106.519531 116.101562 107.230469 113.5625 108.449219 111.835938 C 109.664062 110.113281 112.101562 108.691406 113.726562 107.980469 C 114.84375 107.472656 115.757812 107.371094 116.972656 107.472656 C 118.699219 107.675781 121.542969 108.386719 123.164062 109.605469 C 124.789062 110.925781 126.3125 113.054688 126.820312 115.085938 C 127.328125 117.117188 127.226562 119.652344 126.414062 121.582031 C 125.601562 123.511719 123.46875 125.539062 122.050781 126.554688 C 121.035156 127.265625 120.222656 127.570312 119.003906 127.773438 C 117.277344 127.976562 114.132812 127.570312 112.507812 126.960938 C 111.289062 126.554688 110.578125 125.84375 109.765625 125.03125 C 108.957031 124.320312 108.246094 123.511719 107.738281 122.394531 C 107.027344 120.769531 105.808594 117.925781 106.824219 116 C 108.753906 112.546875 118.699219 109.402344 125.804688 107.371094 C 134.128906 104.933594 146.308594 103.921875 154.125 103.414062 C 159.605469 103.007812 164.578125 102.804688 168.230469 103.515625 C 170.769531 104.023438 172.902344 104.53125 174.421875 105.847656 C 175.945312 107.269531 177.265625 109.707031 177.46875 111.734375 C 177.671875 113.765625 176.960938 116.507812 175.945312 118.128906 C 175.132812 119.449219 173.914062 120.363281 172.597656 121.074219 C 171.277344 121.785156 168.230469 122.191406 168.230469 122.191406 " clip-rule="nonzero"/></clipPath><clipPath id="f421f50a94"><path d="M 120 102 L 173.976562 102 L 173.976562 129 L 120 129 Z M 120 102 " clip-rule="nonzero"/></clipPath><clipPath id="a25d69f3b8"><path d="M 129.558594 109.097656 C 149.757812 108.589844 154.226562 105.949219 155.746094 107.371094 C 157.269531 108.792969 155.644531 117.421875 155.238281 117.421875 C 154.933594 117.421875 153.515625 113.257812 153.71875 111.226562 C 153.921875 109.199219 155.238281 106.761719 156.253906 105.339844 C 156.964844 104.328125 157.675781 103.820312 158.792969 103.3125 C 160.316406 102.601562 163.359375 102.09375 165.085938 102.195312 C 166.304688 102.296875 167.214844 102.5 168.230469 103.109375 C 169.753906 104.023438 171.785156 105.847656 172.699219 107.675781 C 173.609375 109.503906 173.914062 112.039062 173.511719 113.96875 C 173.105469 116 171.480469 118.332031 170.261719 119.550781 C 169.449219 120.464844 168.636719 120.871094 167.519531 121.277344 C 165.898438 121.785156 162.953125 122.089844 161.226562 121.785156 C 160.011719 121.582031 159.199219 121.175781 158.285156 120.464844 C 156.964844 119.449219 155.035156 117.421875 154.324219 115.492188 C 153.617188 113.5625 153.515625 111.027344 154.125 109.097656 C 154.730469 107.167969 156.558594 105.035156 157.878906 103.921875 C 158.792969 103.109375 159.605469 102.804688 160.820312 102.5 C 162.546875 102.09375 165.289062 101.992188 167.214844 102.703125 C 169.042969 103.414062 171.480469 104.632812 172.089844 106.761719 C 173.207031 110.417969 169.753906 121.378906 166.507812 124.625 C 164.171875 126.960938 161.429688 126.859375 157.574219 127.46875 C 150.875 128.585938 135.445312 128.992188 129.558594 127.875 C 126.71875 127.367188 124.890625 126.859375 123.367188 125.4375 C 121.847656 124.117188 120.628906 121.683594 120.324219 119.652344 C 120.019531 117.621094 120.832031 114.78125 121.847656 113.15625 C 122.65625 111.835938 123.875 110.925781 125.195312 110.214844 C 126.515625 109.503906 129.558594 109.097656 129.558594 109.097656 " clip-rule="nonzero"/></clipPath><clipPath id="ae53dba04d"><path d="M 154 83.316406 L 272 83.316406 L 272 121.402344 L 154 121.402344 Z M 154 83.316406 " clip-rule="nonzero"/></clipPath><clipPath id="b58f817204"><path d="M 155.949219 117.015625 C 154.324219 113.5625 153.71875 106.253906 155.644531 103.71875 C 157.371094 101.382812 161.9375 101.179688 165.1875 100.570312 C 168.535156 99.960938 171.582031 100.570312 175.539062 99.960938 C 180.816406 99.148438 186.601562 96.917969 193.910156 95.394531 C 204.265625 93.261719 221.722656 91.335938 232.074219 89.101562 C 239.28125 87.476562 245.066406 84.941406 250.347656 84.128906 C 254.203125 83.519531 258.058594 83.621094 260.597656 83.621094 C 262.019531 83.621094 262.832031 83.519531 264.046875 83.925781 C 265.773438 84.535156 268.414062 86.054688 269.730469 87.78125 C 271.050781 89.507812 271.964844 92.144531 271.964844 94.277344 C 271.964844 96.410156 271.152344 99.046875 269.832031 100.773438 C 268.515625 102.5 265.875 104.023438 264.148438 104.632812 C 262.933594 105.035156 262.121094 105.238281 260.800781 105.035156 C 258.972656 104.832031 256.03125 103.921875 254.40625 102.5 C 252.78125 101.078125 251.359375 98.742188 250.851562 96.613281 C 250.347656 94.480469 250.953125 91.539062 251.5625 89.8125 C 251.96875 88.59375 252.679688 87.78125 253.492188 86.96875 C 254.304688 86.15625 255.015625 85.347656 256.234375 84.839844 C 257.957031 84.128906 260.800781 83.417969 262.933594 83.722656 C 265.0625 84.027344 267.5 85.347656 269.023438 86.867188 C 270.542969 88.390625 271.660156 90.929688 271.863281 93.058594 C 272.066406 95.191406 271.558594 97.933594 270.441406 99.757812 C 269.328125 101.585938 266.890625 103.414062 265.265625 104.226562 C 264.148438 104.832031 263.4375 104.832031 261.917969 105.035156 C 258.566406 105.542969 250.546875 105.441406 246.082031 106.355469 C 242.632812 107.066406 241.414062 108.285156 237.050781 109.402344 C 226.085938 112.140625 189.75 117.824219 178.585938 119.042969 C 174.117188 119.550781 172.394531 119.652344 169.246094 119.550781 C 166.101562 119.449219 159.808594 119.042969 159.707031 118.332031 C 159.605469 117.621094 167.214844 117.519531 169.042969 115.390625 C 170.871094 113.257812 169.753906 105.746094 170.566406 105.644531 C 171.074219 105.542969 171.988281 107.878906 172.394531 109.097656 C 172.800781 110.417969 173.105469 111.9375 172.800781 113.460938 C 172.394531 115.289062 171.074219 117.824219 169.550781 119.144531 C 167.925781 120.464844 165.289062 121.277344 163.359375 121.277344 C 161.835938 121.277344 160.316406 120.769531 159.097656 120.058594 C 157.878906 119.347656 155.949219 117.015625 155.949219 117.015625 " clip-rule="nonzero"/></clipPath><clipPath id="7787bb5be8"><path d="M 218 97 L 337 97 L 337 187 L 218 187 Z M 218 97 " clip-rule="nonzero"/></clipPath><clipPath id="ba3e9c22aa"><path d="M 313.683594 126.554688 C 321.191406 141.78125 314.292969 147.566406 311.449219 147.261719 C 309.113281 147.058594 306.984375 142.492188 305.5625 139.648438 C 304.140625 136.707031 304.34375 133.660156 303.023438 130.007812 C 301.300781 125.03125 293.890625 117.519531 295.207031 112.953125 C 296.527344 108.386719 307.59375 101.585938 311.144531 102.601562 C 313.785156 103.3125 314.089844 108.183594 316.015625 112.648438 C 319.671875 121.277344 325.355469 144.214844 329.921875 151.523438 C 332.054688 154.976562 335.503906 155.6875 336.316406 158.019531 C 337.027344 159.949219 336.621094 162.285156 335.808594 164.109375 C 334.894531 166.242188 332.460938 168.679688 330.53125 169.792969 C 328.90625 170.707031 327.183594 171.011719 325.457031 171.011719 C 323.832031 171.011719 322.003906 170.605469 320.484375 169.691406 C 318.554688 168.476562 316.726562 166.242188 315.40625 163.804688 C 313.785156 160.761719 311.957031 152.4375 312.261719 152.335938 C 312.464844 152.234375 315.101562 157.511719 315 157.511719 C 315 157.511719 312.769531 154.671875 312.261719 153.046875 C 311.753906 151.421875 311.550781 149.496094 311.855469 147.871094 C 312.160156 146.144531 312.769531 144.417969 313.988281 143 C 315.40625 141.273438 318.453125 139.445312 320.585938 138.9375 C 322.308594 138.53125 324.136719 138.734375 325.761719 139.242188 C 327.382812 139.75 329.109375 140.359375 330.328125 141.882812 C 332.054688 144.011719 333.273438 148.785156 333.273438 152.335938 C 333.273438 155.890625 332.15625 160.457031 330.023438 163.09375 C 327.992188 165.632812 324.644531 166.648438 320.988281 168.273438 C 316.117188 170.402344 310.941406 172.027344 302.921875 173.957031 C 287.597656 177.609375 236.238281 186.949219 235.222656 184.816406 C 235.019531 184.308594 238.367188 182.277344 238.367188 182.175781 C 238.265625 182.074219 234.714844 185.628906 232.582031 186.238281 C 230.453125 186.847656 227.710938 186.746094 225.578125 185.933594 C 223.449219 185.121094 221.214844 183.394531 219.996094 181.46875 C 218.777344 179.640625 218.171875 176.898438 218.371094 174.667969 C 218.574219 172.433594 219.996094 169.691406 221.214844 168.171875 C 222.027344 167.054688 222.839844 166.546875 224.058594 165.9375 C 225.78125 165.125 229.03125 164.515625 230.960938 164.617188 C 232.277344 164.71875 233.292969 165.023438 234.410156 165.734375 C 236.035156 166.75 238.367188 168.777344 239.382812 170.808594 C 240.398438 172.839844 240.5 175.882812 240.296875 177.8125 C 240.09375 179.132812 239.789062 180.046875 238.976562 181.164062 C 237.859375 182.683594 235.730469 185.019531 233.699219 185.832031 C 231.667969 186.644531 228.625 186.644531 226.695312 186.339844 C 225.375 186.136719 224.464844 185.730469 223.347656 184.917969 C 221.824219 183.800781 219.691406 181.46875 218.980469 179.335938 C 218.273438 177.203125 218.472656 174.160156 218.878906 172.332031 C 219.183594 171.011719 219.386719 170.199219 220.503906 169.082031 C 222.636719 166.953125 227 164.617188 233.191406 162.585938 C 246.996094 158.121094 291.554688 154.875 303.53125 151.21875 C 307.796875 149.898438 310.027344 146.449219 311.957031 147.363281 C 313.988281 148.277344 315.304688 157.308594 315 157.511719 C 314.796875 157.613281 312.769531 154.671875 312.261719 153.046875 C 311.753906 151.421875 311.550781 149.496094 311.855469 147.871094 C 312.160156 146.144531 312.769531 144.417969 313.988281 143 C 315.40625 141.273438 318.25 139.34375 320.585938 138.9375 C 322.917969 138.53125 326.472656 139.546875 328.195312 140.257812 C 329.210938 140.664062 329.617188 141.070312 330.328125 141.882812 C 331.546875 143.402344 333.070312 146.347656 334.082031 149.191406 C 335.300781 152.742188 336.722656 158.425781 336.417969 161.574219 C 336.214844 163.601562 335.503906 165.023438 334.488281 166.445312 C 333.476562 167.765625 332.054688 169.082031 330.53125 169.792969 C 329.007812 170.605469 327.183594 171.011719 325.457031 171.011719 C 323.832031 171.011719 321.902344 170.503906 320.484375 169.691406 C 318.960938 168.878906 317.539062 167.5625 316.625 166.140625 C 315.710938 164.71875 314.898438 161.269531 314.796875 161.269531 C 314.695312 161.269531 316.726562 166.851562 316.320312 167.054688 C 315.710938 167.359375 311.550781 161.878906 309.011719 157.105469 C 303.9375 147.566406 295.207031 120.667969 292.367188 110.824219 C 291.046875 106.355469 288.613281 103.007812 290.132812 100.875 C 292.367188 97.832031 307.1875 96.816406 311.449219 99.046875 C 314.292969 100.570312 314.492188 103.921875 316.015625 107.269531 C 318.25 112.039062 320.886719 119.042969 322.917969 125.132812 C 325.050781 131.425781 328.296875 139.140625 328.601562 144.621094 C 328.804688 148.480469 329.210938 152.640625 326.980469 154.773438 C 324.238281 157.410156 315.40625 158.832031 310.839844 156.597656 C 304.953125 153.757812 298.355469 139.648438 296.933594 134.269531 C 296.222656 131.527344 296.425781 129.601562 297.238281 127.671875 C 298.050781 125.84375 300.082031 123.816406 301.90625 123.003906 C 303.835938 122.191406 306.578125 121.988281 308.503906 122.597656 C 310.433594 123.207031 313.683594 126.554688 313.683594 126.554688 " clip-rule="nonzero"/></clipPath><clipPath id="edcd9cc100"><path d="M 184 162 L 265 162 L 265 196.761719 L 184 196.761719 Z M 184 162 " clip-rule="nonzero"/></clipPath><clipPath id="c790130ba9"><path d="M 193.707031 172.535156 C 222.941406 171.316406 244.660156 160.660156 250.144531 164.71875 C 253.898438 167.460938 253.898438 178.929688 251.765625 181.972656 C 250.144531 184.207031 245.777344 184.003906 242.632812 184.410156 C 239.382812 184.917969 236.339844 183.800781 232.582031 184.613281 C 227.203125 185.730469 219.488281 190.703125 213.601562 192.632812 C 208.628906 194.257812 203.046875 195.574219 199.492188 196.082031 C 197.363281 196.386719 196.042969 196.691406 194.316406 196.183594 C 192.1875 195.574219 189.34375 194.054688 187.921875 192.125 C 186.5 190.195312 185.691406 186.949219 185.792969 184.714844 C 185.894531 182.886719 186.398438 181.265625 187.515625 179.84375 C 188.835938 178.117188 191.171875 175.273438 193.605469 175.273438 C 197.261719 175.273438 206.292969 182.378906 207.308594 185.832031 C 207.917969 188.0625 206.394531 190.601562 205.078125 192.328125 C 203.757812 194.054688 201.015625 195.472656 199.289062 196.082031 C 198.074219 196.488281 196.957031 196.488281 195.839844 196.386719 C 194.722656 196.285156 193.605469 196.285156 192.390625 195.675781 C 190.765625 194.863281 188.226562 192.632812 187.210938 191.109375 C 186.5 189.992188 186.199219 189.179688 185.996094 187.863281 C 185.792969 186.035156 185.894531 182.988281 186.804688 181.0625 C 187.71875 179.132812 189.648438 177.101562 191.578125 176.085938 C 193.503906 175.074219 196.550781 174.871094 198.378906 175.074219 C 199.695312 175.171875 200.609375 175.476562 201.726562 176.1875 C 203.25 177.203125 205.484375 179.234375 206.394531 181.265625 C 207.308594 183.292969 207.308594 186.339844 207.003906 188.164062 C 206.800781 189.484375 206.292969 190.398438 205.683594 191.3125 C 205.078125 192.328125 204.570312 193.242188 203.453125 193.953125 C 201.929688 195.066406 199.1875 196.285156 196.957031 196.386719 C 194.824219 196.488281 192.085938 195.777344 190.359375 194.558594 C 188.53125 193.34375 185.894531 189.484375 186.296875 188.976562 C 186.90625 188.265625 199.695312 195.269531 199.492188 196.082031 C 199.289062 196.691406 194.011719 196.386719 191.882812 195.371094 C 189.75 194.359375 187.617188 191.820312 186.601562 189.890625 C 185.792969 188.265625 185.691406 186.441406 185.792969 184.714844 C 185.894531 183.089844 186.398438 181.265625 187.414062 179.84375 C 188.734375 178.015625 191.273438 176.289062 193.605469 175.273438 C 195.941406 174.261719 198.378906 174.871094 201.523438 173.957031 C 206.496094 172.535156 214.617188 168.273438 219.996094 166.445312 C 224.058594 165.125 226.695312 164.109375 230.960938 163.601562 C 236.644531 162.890625 245.777344 162.585938 251.054688 163.5 C 254.609375 164.109375 257.550781 164.515625 259.683594 166.546875 C 262.019531 168.777344 265.0625 173.753906 264.148438 176.796875 C 263.035156 180.453125 256.335938 183.597656 250.246094 185.933594 C 241.007812 189.484375 222.941406 190.703125 212.484375 191.414062 C 205.179688 191.921875 198.175781 192.125 193.605469 191.210938 C 190.96875 190.703125 188.9375 189.992188 187.414062 188.773438 C 186.199219 187.761719 185.386719 186.441406 184.878906 185.121094 C 184.371094 183.800781 184.066406 182.175781 184.371094 180.65625 C 184.777344 178.828125 185.996094 176.1875 187.515625 174.871094 C 189.039062 173.550781 193.707031 172.535156 193.707031 172.535156 " clip-rule="nonzero"/></clipPath><clipPath id="0b50b0e2b8"><path d="M 300.378906 151.054688 L 336.867188 151.054688 L 336.867188 175.941406 L 300.378906 175.941406 Z M 300.378906 151.054688 " clip-rule="nonzero"/></clipPath><clipPath id="167d9ee8dc"><path d="M 307.996094 157.410156 C 329.109375 151.21875 330.9375 151.929688 332.460938 153.046875 C 334.082031 154.164062 335.402344 156.292969 336.011719 158.121094 C 336.621094 159.949219 336.519531 162.382812 335.910156 164.210938 C 335.300781 166.039062 333.375 167.96875 332.054688 168.980469 C 331.140625 169.691406 330.125 169.996094 329.109375 170.199219 C 328.09375 170.402344 327.183594 170.707031 326.066406 170.503906 C 324.441406 170.300781 321.800781 169.386719 320.382812 168.070312 C 318.960938 166.75 317.640625 164.617188 317.335938 162.6875 C 317.03125 160.761719 317.640625 158.121094 318.25 156.597656 C 318.65625 155.484375 319.164062 154.875 320.078125 154.0625 C 321.292969 152.945312 323.933594 151.625 325.558594 151.320312 C 326.675781 151.117188 327.585938 151.117188 328.703125 151.421875 C 330.328125 151.828125 332.765625 153.351562 333.980469 154.46875 C 334.894531 155.28125 335.300781 155.988281 335.707031 157.105469 C 336.214844 158.628906 336.722656 161.371094 336.214844 163.195312 C 335.707031 165.125 334.082031 167.257812 332.867188 168.375 C 331.953125 169.183594 331.445312 169.285156 330.125 169.894531 C 327.082031 171.214844 318.453125 174.363281 314.191406 175.074219 C 311.449219 175.578125 309.316406 175.882812 307.289062 175.273438 C 305.257812 174.667969 303.125 173.144531 302.007812 171.417969 C 300.894531 169.691406 300.488281 166.851562 300.691406 164.921875 C 300.894531 163.398438 301.402344 162.082031 302.414062 160.863281 C 303.632812 159.441406 307.996094 157.410156 307.996094 157.410156 " clip-rule="nonzero"/></clipPath><clipPath id="ef255e9790"><path d="M 330.625 160.03125 L 337 160.03125 L 337 168.433594 L 330.625 168.433594 Z M 330.625 160.03125 " clip-rule="nonzero"/></clipPath><clipPath id="389c65bb2b"><path d="M 335.503906 160.558594 C 336.621094 161.371094 335.199219 161.878906 335.199219 162.382812 C 335.199219 162.890625 336.417969 163.398438 336.722656 164.007812 C 337.027344 164.617188 337.027344 165.53125 336.722656 166.242188 C 336.417969 166.953125 335.402344 167.867188 334.589844 168.171875 C 333.878906 168.375 332.96875 168.375 332.359375 167.96875 C 331.546875 167.460938 330.632812 165.9375 330.632812 165.023438 C 330.632812 164.109375 331.445312 162.890625 332.15625 162.484375 C 332.867188 162.082031 334.285156 161.878906 335.097656 162.285156 C 335.910156 162.6875 336.722656 163.703125 336.824219 164.617188 C 336.925781 165.632812 335.910156 167.460938 335.097656 167.96875 C 334.386719 168.375 332.867188 168.273438 332.15625 167.867188 C 331.445312 167.460938 330.632812 166.242188 330.632812 165.328125 C 330.632812 164.515625 331.140625 163.195312 331.851562 162.6875 C 332.664062 162.183594 334.386719 161.980469 335.199219 162.382812 C 336.011719 162.789062 336.824219 163.90625 336.925781 164.71875 C 337.027344 165.53125 336.621094 166.953125 335.910156 167.460938 C 335.199219 168.070312 332.5625 168.273438 332.359375 167.96875 C 332.15625 167.765625 333.375 166.953125 333.273438 166.445312 C 333.171875 165.835938 331.75 165.53125 331.34375 164.820312 C 330.9375 164.109375 330.835938 162.789062 331.140625 161.980469 C 331.34375 161.269531 331.953125 160.660156 332.664062 160.355469 C 333.375 160.050781 335.503906 160.558594 335.503906 160.558594 " clip-rule="nonzero"/></clipPath><clipPath id="4e44aaf05a"><path d="M 331.320312 161.722656 L 340 161.722656 L 340 168.832031 L 331.320312 168.832031 Z M 331.320312 161.722656 " clip-rule="nonzero"/></clipPath><clipPath id="5cf622a548"><path d="M 334.589844 162.484375 C 337.636719 161.980469 338.449219 162.285156 338.957031 162.789062 C 339.464844 163.398438 339.972656 164.617188 339.871094 165.429688 C 339.769531 166.140625 339.261719 166.953125 338.753906 167.359375 C 338.246094 167.765625 337.433594 168.273438 336.722656 168.070312 C 335.707031 167.867188 333.878906 166.140625 333.675781 165.125 C 333.578125 164.3125 334.183594 163.09375 334.894531 162.585938 C 335.605469 162.082031 336.925781 161.777344 337.738281 162.082031 C 338.550781 162.382812 339.566406 163.296875 339.769531 164.109375 C 339.972656 165.125 339.160156 167.054688 338.347656 167.664062 C 337.636719 168.171875 336.316406 168.171875 335.503906 167.765625 C 334.792969 167.359375 333.980469 166.242188 333.777344 165.53125 C 333.578125 164.921875 333.777344 164.210938 334.082031 163.601562 C 334.488281 162.890625 335.605469 161.878906 336.417969 161.878906 C 337.433594 161.878906 339.667969 163.804688 339.667969 163.804688 C 339.667969 163.804688 336.925781 161.878906 336.925781 161.878906 C 336.925781 161.878906 338.957031 162.585938 339.363281 163.296875 C 339.871094 164.109375 339.871094 165.9375 339.261719 166.851562 C 338.550781 167.867188 335.707031 168.777344 334.386719 168.679688 C 333.375 168.578125 332.257812 167.96875 331.851562 167.257812 C 331.34375 166.445312 331.445312 164.515625 331.953125 163.703125 C 332.460938 162.992188 334.589844 162.484375 334.589844 162.484375 " clip-rule="nonzero"/></clipPath><clipPath id="5a329cee49"><path d="M 280.382812 84.347656 L 310.375 84.347656 L 310.375 101.570312 L 280.382812 101.570312 Z M 280.382812 84.347656 " clip-rule="nonzero"/></clipPath><clipPath id="53a36b3731"><path d="M 303.734375 93.363281 C 305.664062 94.988281 304.75 97.222656 304.039062 97.425781 C 303.429688 97.628906 302.515625 95.699219 301.503906 95.394531 C 300.386719 95.089844 299.167969 95.902344 297.746094 95.699219 C 295.917969 95.394531 293.078125 94.074219 291.453125 93.261719 C 290.335938 92.753906 288.613281 91.941406 288.714844 91.640625 C 288.8125 91.335938 292.46875 92.144531 292.570312 91.84375 C 292.671875 91.539062 289.625 89.609375 289.015625 89.914062 C 288.410156 90.21875 288.105469 93.160156 288.714844 93.769531 C 289.21875 94.378906 291.757812 93.363281 292.0625 93.871094 C 292.367188 94.378906 291.65625 95.902344 291.046875 96.511719 C 290.335938 97.222656 288.914062 97.730469 287.902344 97.628906 C 286.886719 97.527344 285.667969 96.511719 285.160156 95.699219 C 284.753906 94.988281 284.550781 93.972656 284.855469 93.160156 C 285.261719 91.941406 286.988281 90.015625 288.308594 89.609375 C 289.523438 89.203125 291.554688 89.710938 292.367188 90.421875 C 292.976562 90.929688 293.382812 91.941406 293.382812 92.753906 C 293.382812 93.769531 292.976562 95.292969 291.960938 95.902344 C 290.234375 96.917969 283.027344 95.699219 281.8125 94.480469 C 281.203125 93.871094 281.304688 92.855469 281.609375 92.144531 C 282.015625 91.132812 283.941406 89.609375 285.058594 89.507812 C 286.074219 89.40625 287.496094 90.21875 288.105469 91.03125 C 288.714844 91.84375 288.8125 93.464844 288.511719 94.378906 C 288.207031 95.292969 286.988281 96.410156 285.972656 96.613281 C 285.058594 96.816406 283.433594 96.511719 282.722656 95.800781 C 281.914062 94.988281 281.40625 92.449219 281.914062 91.4375 C 282.417969 90.421875 284.753906 89.40625 285.871094 89.507812 C 286.886719 89.609375 288.410156 91.84375 288.511719 91.742188 C 288.613281 91.640625 287.394531 90.421875 287.597656 90.015625 C 287.902344 89.507812 290.03125 89.101562 290.945312 89.507812 C 291.960938 89.914062 293.179688 91.742188 293.382812 92.753906 C 293.484375 93.566406 292.875 94.785156 292.570312 95.292969 C 292.367188 95.597656 292.0625 95.902344 291.960938 95.902344 C 291.859375 95.902344 291.960938 94.886719 291.859375 94.886719 C 291.65625 94.785156 291.148438 96.613281 290.4375 97.019531 C 289.625 97.527344 288.003906 97.730469 287.089844 97.425781 C 286.277344 97.222656 285.464844 96.511719 285.160156 95.699219 C 284.652344 94.480469 285.058594 91.742188 285.769531 90.320312 C 286.378906 89.101562 287.699219 87.78125 288.8125 87.679688 C 290.132812 87.578125 292.875 89.203125 293.382812 90.421875 C 293.890625 91.4375 293.179688 93.160156 292.671875 94.175781 C 292.164062 95.089844 291.351562 96.003906 290.335938 96.410156 C 289.21875 96.917969 287.191406 97.019531 286.074219 96.511719 C 284.957031 96.003906 284.042969 94.480469 283.636719 93.363281 C 283.332031 92.246094 283.332031 90.929688 283.738281 89.914062 C 284.246094 88.695312 285.464844 87.273438 286.582031 86.664062 C 287.597656 86.15625 288.8125 85.953125 289.929688 86.15625 C 291.148438 86.359375 292.671875 87.070312 293.382812 87.984375 C 294.09375 88.898438 294.5 90.523438 294.296875 91.742188 C 294.09375 93.058594 293.179688 94.582031 292.265625 95.496094 C 291.453125 96.308594 290.132812 97.019531 289.015625 96.917969 C 287.800781 96.714844 285.871094 95.089844 285.363281 93.871094 C 284.957031 92.855469 285.261719 91.335938 285.667969 90.21875 C 286.074219 89 286.785156 87.476562 287.800781 86.867188 C 288.914062 86.15625 291.453125 85.851562 292.570312 86.5625 C 293.6875 87.273438 294.601562 89.507812 294.703125 90.828125 C 294.804688 91.941406 294.195312 93.160156 293.585938 94.074219 C 292.976562 94.886719 292.164062 95.699219 291.148438 96.105469 C 290.03125 96.613281 288.308594 96.816406 287.089844 96.714844 C 285.972656 96.613281 284.855469 96.105469 283.941406 95.597656 C 283.027344 95.089844 282.21875 94.378906 281.609375 93.566406 C 281 92.652344 280.492188 91.4375 280.492188 90.320312 C 280.492188 89.101562 281.101562 87.578125 281.914062 86.664062 C 282.824219 85.648438 284.550781 85.042969 285.769531 84.738281 C 286.886719 84.433594 287.496094 84.433594 288.914062 84.636719 C 292.367188 85.246094 302.210938 88.492188 305.765625 91.03125 C 307.898438 92.550781 309.316406 94.582031 309.824219 96.207031 C 310.230469 97.425781 310.128906 99.046875 309.417969 99.859375 C 308.707031 100.773438 306.78125 101.484375 305.359375 101.28125 C 303.429688 101.078125 299.878906 98.640625 299.269531 97.121094 C 298.863281 96.105469 299.472656 94.378906 300.183594 93.769531 C 300.894531 93.160156 303.734375 93.363281 303.734375 93.363281 " clip-rule="nonzero"/></clipPath><clipPath id="87de0e27bf"><path d="M 92.339844 112 L 111 112 L 111 132.828125 L 92.339844 132.828125 Z M 92.339844 112 " clip-rule="nonzero"/></clipPath><clipPath id="ff20a339a2"><path d="M 103.371094 127.46875 C 104.285156 115.1875 105.097656 114.375 106.011719 114.171875 C 107.027344 113.96875 108.753906 114.273438 109.5625 115.390625 C 111.085938 117.421875 110.984375 125.4375 110.578125 128.28125 C 110.375 129.703125 110.171875 130.714844 109.363281 131.425781 C 108.550781 132.136719 106.824219 132.746094 105.707031 132.542969 C 104.488281 132.339844 103.371094 131.222656 102.15625 130.007812 C 100.226562 127.976562 97.789062 122.597656 95.863281 120.769531 C 94.847656 119.753906 92.816406 119.246094 92.917969 118.941406 C 92.917969 118.738281 94.238281 118.941406 94.339844 118.636719 C 94.542969 118.230469 92.511719 116.914062 92.511719 115.898438 C 92.511719 114.78125 93.527344 112.953125 94.441406 112.445312 C 95.253906 111.9375 96.875 112.039062 97.6875 112.546875 C 98.601562 113.15625 99.617188 115.1875 99.515625 116.304688 C 99.414062 117.320312 98.296875 118.433594 97.382812 118.839844 C 96.472656 119.246094 94.949219 119.042969 94.136719 118.535156 C 93.324219 118.027344 92.410156 116.609375 92.511719 115.59375 C 92.613281 114.476562 94.035156 112.648438 95.050781 112.242188 C 95.964844 111.835938 97.585938 112.242188 98.296875 112.851562 C 99.007812 113.460938 99.71875 114.882812 99.515625 115.898438 C 99.3125 117.015625 97.6875 118.636719 96.671875 119.042969 C 95.964844 119.347656 95.050781 119.144531 94.441406 118.738281 C 93.628906 118.230469 92.714844 116 92.613281 116 C 92.511719 116 93.527344 118.128906 93.628906 118.128906 C 93.730469 118.128906 92.511719 115.289062 92.816406 114.273438 C 93.019531 113.460938 93.730469 112.75 94.441406 112.445312 C 95.152344 112.140625 96.371094 112.140625 96.976562 112.242188 C 97.28125 112.34375 97.6875 112.445312 97.6875 112.546875 C 97.6875 112.75 96.472656 113.054688 96.472656 113.359375 C 96.472656 113.867188 98.601562 114.070312 99.820312 114.984375 C 101.75 116.609375 105.300781 120.972656 106.214844 123.207031 C 106.722656 124.421875 107.027344 125.640625 106.621094 126.351562 C 106.214844 127.0625 104.386719 128.078125 103.777344 127.671875 C 102.5625 126.960938 102.867188 118.535156 103.777344 116.304688 C 104.285156 115.1875 105.097656 114.375 106.011719 114.171875 C 107.027344 113.96875 108.855469 114.273438 109.5625 115.390625 C 110.984375 117.421875 110.679688 126.351562 109.363281 128.6875 C 108.652344 129.90625 107.230469 130.410156 106.316406 130.511719 C 105.605469 130.511719 104.792969 130.109375 104.285156 129.601562 C 103.777344 129.09375 103.371094 127.46875 103.371094 127.46875 " clip-rule="nonzero"/></clipPath></defs><path stroke-linecap="butt" transform="matrix(0.000000000000000711, -0.74881, 0.75, 0.000000000000000712, 139.781655, 301.159053)" fill="none" stroke-linejoin="miter" d="M -0.00147331 2.499461 L 118.191251 2.499461 " stroke="#000000" stroke-width="5" stroke-opacity="1" stroke-miterlimit="4"/><path stroke-linecap="butt" transform="matrix(0.72857, -0.172534, 0.172829, 0.729815, 139.663253, 299.334708)" fill="none" stroke-linejoin="miter" d="M -0.00232648 2.500698 L 256.445077 2.500329 " stroke="#000000" stroke-width="5" stroke-opacity="1" stroke-miterlimit="4"/><path stroke-linecap="butt" transform="matrix(0.000000000000000046, 0.747259, -0.75, 0.000000000000000046, 329.592405, 172.239701)" fill="none" stroke-linejoin="miter" d="M -0.0019006 2.498207 L 115.435668 2.498207 " stroke="#000000" stroke-width="5" stroke-opacity="1" stroke-miterlimit="4"/><path stroke-linecap="butt" transform="matrix(0.735121, -0.148843, 0.148835, 0.735084, 123.00004, 213.684917)" fill="none" stroke-linejoin="miter" d="M -0.00156581 2.500786 L 303.987193 2.501429 " stroke="#000000" stroke-width="5" stroke-opacity="1" stroke-miterlimit="4"/><path stroke-linecap="butt" transform="matrix(-0.677781, -0.322206, 0.322004, -0.677357, 140.992538, 302.994619)" fill="none" stroke-linejoin="miter" d="M 0.00106492 2.500148 L 149.90962 2.499268 " stroke="#000000" stroke-width="5" stroke-opacity="1" stroke-miterlimit="4"/><path stroke-linecap="butt" transform="matrix(-0.0261798, -0.751805, 0.749546, -0.0261012, 39.538643, 254.303422)" fill="none" stroke-linejoin="miter" d="M -0.000221339 2.502067 L 77.77631 2.498216 " stroke="#000000" stroke-width="5" stroke-opacity="1" stroke-miterlimit="4"/><path stroke-linecap="butt" transform="matrix(-0.242287, -0.71149, 0.709964, -0.241768, 122.209223, 216.772647)" fill="none" stroke-linejoin="miter" d="M 0.000221992 2.500418 L 152.673561 2.498439 " stroke="#000000" stroke-width="5" stroke-opacity="1" stroke-miterlimit="4"/><path stroke-linecap="butt" transform="matrix(0.422882, -0.619205, 0.619346, 0.422978, 27.797174, 192.276448)" fill="none" stroke-linejoin="miter" d="M 0.00139997 8.500472 L 137.042084 8.502335 " stroke="#000000" stroke-width="17" stroke-opacity="1" stroke-miterlimit="4"/><path stroke-linecap="butt" transform="matrix(0.740549, -0.121739, 0.121659, 0.740067, 86.191573, 107.955747)" fill="none" stroke-linejoin="miter" d="M 0.000754135 2.498467 L 287.825585 2.498932 " stroke="#000000" stroke-width="5" stroke-opacity="1" stroke-miterlimit="4"/><path stroke-linecap="butt" transform="matrix(-0.31344, -0.68261, 0.68158, -0.312967, 343.441124, 172.250643)" fill="none" stroke-linejoin="miter" d="M -0.000333245 2.499049 L 144.783704 2.5023 " stroke="#000000" stroke-width="5" stroke-opacity="1" stroke-miterlimit="4"/><path stroke-linecap="butt" transform="matrix(0.245273, 0.708237, -0.708704, 0.245435, 92.799219, 111.198801)" fill="none" stroke-linejoin="miter" d="M 0.0000894406 2.500193 L 142.101294 2.497568 " stroke="#ff914d" stroke-width="5" stroke-opacity="1" stroke-miterlimit="4"/><path stroke-linecap="butt" transform="matrix(0.740564, -0.120159, 0.120119, 0.740318, 90.72903, 109.95871)" fill="none" stroke-linejoin="miter" d="M 0.00272461 2.49921 L 282.910763 2.501491 " stroke="#ff914d" stroke-width="5" stroke-opacity="1" stroke-miterlimit="4"/><path stroke-linecap="butt" transform="matrix(0.735475, -0.145259, 0.145321, 0.735787, 122.931076, 209.337951)" fill="none" stroke-linejoin="miter" d="M -0.00142015 2.497496 L 295.130126 2.502035 " stroke="#ff914d" stroke-width="5" stroke-opacity="1" stroke-miterlimit="4"/><path stroke-linecap="butt" transform="matrix(0.308285, 0.68578, -0.684059, 0.307511, 301.544164, 75.054341)" fill="none" stroke-linejoin="miter" d="M 0.00238282 2.498265 L 136.657049 2.497706 " stroke="#ff914d" stroke-width="5" stroke-opacity="1" stroke-miterlimit="4"/><g clip-path="url(#10ddee6660)"><g clip-path="url(#04a7dc9236)"><g clip-path="url(#b9e88c5901)"><path fill="#ff914d" d="M 105.527344 121.90625 L 301.988281 76.644531 L 322.492188 165.628906 L 126.03125 210.894531 Z M 105.527344 121.90625 " fill-opacity="1" fill-rule="nonzero"/></g></g></g><g clip-path="url(#92389f8be3)"><g clip-path="url(#dc84c38fda)"><path fill="#ff914d" d="M 88.554688 105.441406 L 143.972656 105.441406 L 143.972656 207.957031 L 88.554688 207.957031 Z M 88.554688 105.441406 " fill-opacity="1" fill-rule="nonzero"/></g></g><g clip-path="url(#ef7479c070)"><g clip-path="url(#38e7be54b9)"><path fill="#ff914d" d="M 153.210938 84.230469 L 270.542969 84.230469 L 270.542969 127.367188 L 153.210938 127.367188 Z M 153.210938 84.230469 " fill-opacity="1" fill-rule="nonzero"/></g></g><g clip-path="url(#64acbece05)"><g clip-path="url(#38a31ab83b)"><path fill="#ff914d" d="M 102.5625 99.351562 L 181.527344 99.351562 L 181.527344 131.832031 L 102.5625 131.832031 Z M 102.5625 99.351562 " fill-opacity="1" fill-rule="nonzero"/></g></g><g clip-path="url(#f421f50a94)"><g clip-path="url(#a25d69f3b8)"><path fill="#ff914d" d="M 116.261719 98.136719 L 177.570312 98.136719 L 177.570312 131.933594 L 116.261719 131.933594 Z M 116.261719 98.136719 " fill-opacity="1" fill-rule="nonzero"/></g></g><g clip-path="url(#ae53dba04d)"><g clip-path="url(#b58f817204)"><path fill="#ff914d" d="M 150.875 79.558594 L 276.023438 79.558594 L 276.023438 125.335938 L 150.875 125.335938 Z M 150.875 79.558594 " fill-opacity="1" fill-rule="nonzero"/></g></g><g clip-path="url(#7787bb5be8)"><g clip-path="url(#ba3e9c22aa)"><path fill="#ff914d" d="M 214.3125 94.988281 L 340.476562 94.988281 L 340.476562 190.398438 L 214.3125 190.398438 Z M 214.3125 94.988281 " fill-opacity="1" fill-rule="nonzero"/></g></g><g clip-path="url(#edcd9cc100)"><g clip-path="url(#c790130ba9)"><path fill="#ff914d" d="M 180.308594 159.441406 L 268.210938 159.441406 L 268.210938 200.449219 L 180.308594 200.449219 Z M 180.308594 159.441406 " fill-opacity="1" fill-rule="nonzero"/></g></g><g clip-path="url(#0b50b0e2b8)"><g clip-path="url(#167d9ee8dc)"><path fill="#ff914d" d="M 296.628906 147.160156 L 340.273438 147.160156 L 340.273438 179.335938 L 296.628906 179.335938 Z M 296.628906 147.160156 " fill-opacity="1" fill-rule="nonzero"/></g></g><g clip-path="url(#ef255e9790)"><g clip-path="url(#389c65bb2b)"><path fill="#ff914d" d="M 326.574219 156.292969 L 340.984375 156.292969 L 340.984375 172.230469 L 326.574219 172.230469 Z M 326.574219 156.292969 " fill-opacity="1" fill-rule="nonzero"/></g></g><g clip-path="url(#4e44aaf05a)"><g clip-path="url(#5cf622a548)"><path fill="#ff914d" d="M 327.789062 157.816406 L 343.929688 157.816406 L 343.929688 172.738281 L 327.789062 172.738281 Z M 327.789062 157.816406 " fill-opacity="1" fill-rule="nonzero"/></g></g><g clip-path="url(#5a329cee49)"><g clip-path="url(#53a36b3731)"><path fill="#ff914d" d="M 276.429688 80.574219 L 313.886719 80.574219 L 313.886719 105.339844 L 276.429688 105.339844 Z M 276.429688 80.574219 " fill-opacity="1" fill-rule="nonzero"/></g></g><g clip-path="url(#87de0e27bf)"><g clip-path="url(#ff20a339a2)"><path fill="#ff914d" d="M 88.453125 108.183594 L 114.640625 108.183594 L 114.640625 136.605469 L 88.453125 136.605469 Z M 88.453125 108.183594 " fill-opacity="1" fill-rule="nonzero"/></g></g></svg>