<svg xmlns="http://www.w3.org/2000/svg" xmlns:xlink="http://www.w3.org/1999/xlink" width="500" zoomAndPan="magnify" viewBox="0 0 375 374.999991" height="500" preserveAspectRatio="xMidYMid meet" version="1.0"><defs><clipPath id="d28eab5fec"><path d="M 94.21875 49 L 283.96875 49 L 283.96875 325.707031 L 94.21875 325.707031 Z M 94.21875 49 " clip-rule="nonzero"/></clipPath><clipPath id="8a8f351325"><path d="M 175 139 L 243 139 L 243 255 L 175 255 Z M 175 139 " clip-rule="nonzero"/></clipPath><clipPath id="67efb5db26"><path d="M 274.925781 223.921875 L 187.429688 265.21875 L 147.414062 180.4375 L 234.90625 139.140625 Z M 274.925781 223.921875 " clip-rule="nonzero"/></clipPath><clipPath id="59c2c5355e"><path d="M 274.925781 223.921875 L 187.429688 265.21875 L 147.414062 180.4375 L 234.90625 139.140625 Z M 274.925781 223.921875 " clip-rule="nonzero"/></clipPath><clipPath id="5bdff0f878"><path d="M 91 265.304688 L 147.25 265.304688 L 147.25 321.554688 L 91 321.554688 Z M 91 265.304688 " clip-rule="nonzero"/></clipPath><clipPath id="efa68ce0d9"><path d="M 103 278.414062 L 135.71875 278.414062 L 135.71875 308.414062 L 103 308.414062 Z M 103 278.414062 " clip-rule="nonzero"/></clipPath></defs><g clip-path="url(#d28eab5fec)"><path fill="#ffbd59" d="M 269.359375 325.160156 C 237.792969 325.160156 206.820312 325.160156 175.472656 325.160156 C 175.472656 320.183594 174.925781 315.257812 175.574219 310.511719 C 177.570312 295.78125 172.71875 284.378906 160.742188 275.535156 C 154.144531 270.65625 147.933594 265.183594 141.992188 259.523438 C 132.859375 250.828125 127.195312 239.714844 121.78125 228.53125 C 114.5625 213.601562 107.34375 198.703125 96.828125 185.644531 C 91.800781 179.386719 94.308594 172.433594 101.976562 170.066406 C 110.046875 167.589844 117.101562 169.84375 123.207031 175.253906 C 132.460938 183.445312 138.417969 194.003906 144.15625 204.707031 C 145.289062 206.8125 146.800781 208.894531 148.636719 210.378906 C 151.242188 212.476562 153.207031 211.554688 153.804688 208.292969 C 154.167969 206.328125 154.457031 204.285156 154.390625 202.292969 C 153.429688 172.328125 152.414062 142.371094 151.375 112.398438 C 151.035156 102.609375 150.515625 92.8125 150.183594 83.019531 C 150.023438 78.175781 151.5 73.894531 155.3125 70.683594 C 162.296875 64.78125 171.605469 67.632812 173.328125 76.566406 C 174.660156 83.464844 175.160156 90.550781 175.660156 97.582031 C 176.976562 116.125 178.085938 134.667969 179.308594 153.21875 C 179.394531 154.507812 179.355469 156.078125 180.054688 156.980469 C 181.167969 158.414062 182.855469 160.300781 184.304688 160.308594 C 185.800781 160.308594 187.636719 158.542969 188.6875 157.085938 C 189.398438 156.105469 189.082031 154.316406 189.09375 152.894531 C 189.246094 124.898438 189.363281 96.90625 189.53125 68.917969 C 189.550781 66.03125 189.753906 63.15625 190.035156 60.292969 C 190.648438 54.152344 195.773438 49.621094 202.097656 49.507812 C 208.734375 49.394531 213.289062 53.246094 213.925781 60.082031 C 214.46875 65.8125 214.667969 71.59375 214.726562 77.351562 C 215.050781 102.734375 215.273438 128.121094 215.535156 153.507812 C 215.539062 154.367188 215.273438 155.53125 215.714844 156.046875 C 217.03125 157.550781 218.636719 158.785156 220.113281 160.136719 C 221.355469 158.613281 223.550781 157.152344 223.65625 155.554688 C 224.554688 143.046875 224.980469 130.515625 225.671875 117.988281 C 226.386719 104.90625 227.054688 91.796875 228.070312 78.734375 C 228.691406 70.753906 232.785156 66.71875 239.019531 66.996094 C 245.859375 67.292969 251.828125 73.117188 251.976562 80.277344 C 252.152344 88.199219 251.90625 96.140625 251.664062 104.070312 C 251.152344 120.640625 250.527344 137.210938 249.933594 153.769531 C 249.824219 156.945312 249.527344 160.097656 249.488281 163.265625 C 249.464844 166.046875 250.648438 168.09375 253.734375 168.195312 C 256.722656 168.289062 257.542969 166.332031 257.777344 163.695312 C 259.148438 147.773438 260.578125 131.84375 261.992188 115.933594 C 262.484375 110.5 262.5625 104.957031 263.679688 99.644531 C 265.207031 92.292969 272.660156 89.996094 277.710938 95.5 C 280.433594 98.46875 282.648438 102.882812 283.046875 106.855469 C 285.175781 127.75 283.253906 148.546875 281.03125 169.367188 C 280.359375 175.726562 281.089844 182.316406 281.703125 188.746094 C 284.691406 220.027344 284.230469 250.835938 271.5625 280.457031 C 267.085938 290.9375 268.425781 302.277344 268.824219 313.355469 C 268.941406 317.191406 269.164062 321.015625 269.359375 325.160156 Z M 269.359375 325.160156 " fill-opacity="1" fill-rule="nonzero"/></g><g clip-path="url(#8a8f351325)"><g clip-path="url(#67efb5db26)"><g clip-path="url(#59c2c5355e)"><path fill="#a6a6a6" d="M 215.320312 252.050781 C 221.8125 248.988281 227.125 243.441406 229.734375 236.167969 C 233.253906 226.359375 230.957031 215.289062 223.886719 207.652344 L 242.203125 156.5 C 242.371094 156.101562 242.339844 155.652344 242.160156 155.269531 L 235.417969 140.6875 C 235.238281 140.304688 234.914062 139.996094 234.496094 139.871094 C 234.097656 139.703125 233.648438 139.734375 233.265625 139.914062 C 228.914062 141.96875 224.585938 144.082031 220.253906 146.183594 C 219.136719 146.722656 217.253906 147.40625 218.023438 149.039062 L 221.875 157.195312 L 213.71875 161.042969 C 213.308594 161.238281 212.996094 161.636719 212.871094 162.050781 C 212.703125 162.453125 212.738281 162.902344 212.917969 163.28125 L 216.792969 171.496094 L 208.59375 175.332031 C 208.214844 175.511719 207.917969 175.867188 207.78125 176.253906 C 207.613281 176.652344 207.644531 177.101562 207.824219 177.484375 L 211.703125 185.699219 L 203.488281 189.574219 C 203.109375 189.753906 202.8125 190.109375 202.644531 190.507812 L 199.617188 198.945312 C 189.320312 200.371094 180.5 207.429688 176.980469 217.242188 C 171.765625 231.785156 179.355469 247.867188 193.898438 253.085938 C 201.171875 255.691406 208.832031 255.117188 215.320312 252.050781 Z M 193.578125 234.683594 C 194.796875 231.285156 198.539062 229.519531 201.90625 230.75 C 205.292969 231.941406 207.058594 235.683594 205.839844 239.082031 C 204.652344 242.46875 200.910156 244.234375 197.511719 243.015625 C 194.109375 241.796875 192.34375 238.054688 193.578125 234.683594 Z M 193.578125 234.683594 " fill-opacity="1" fill-rule="nonzero"/></g></g></g><g clip-path="url(#5bdff0f878)"><path fill="#a6a6a6" d="M 119.125 321.554688 C 103.585938 321.554688 91 308.882812 91 293.429688 C 91 277.980469 103.585938 265.304688 119.125 265.304688 C 134.664062 265.304688 147.25 277.890625 147.25 293.429688 C 147.25 308.96875 134.574219 321.554688 119.125 321.554688 Z M 119.125 267.042969 C 104.539062 267.042969 92.734375 278.847656 92.734375 293.429688 C 92.734375 308.011719 104.539062 319.820312 119.125 319.820312 C 133.707031 319.820312 145.511719 308.011719 145.511719 293.429688 C 145.511719 278.847656 133.621094 267.042969 119.125 267.042969 Z M 119.125 267.042969 " fill-opacity="1" fill-rule="nonzero"/></g><g clip-path="url(#efa68ce0d9)"><path fill="#00bf63" d="M 103.453125 296.117188 C 103.726562 296.558594 105.375 298.375 107.527344 300.902344 C 110.101562 303.921875 113 307.324219 113.339844 307.710938 C 113.960938 308.417969 114.421875 307.929688 115.351562 306.078125 C 116.644531 303.511719 119.304688 297.886719 123.046875 292.753906 C 126.785156 287.621094 132.394531 281.957031 133.730469 280.894531 C 135.066406 279.832031 135.691406 279.125 134.800781 278.769531 C 133.910156 278.417969 126.953125 283.304688 122.898438 287.671875 C 118.539062 292.363281 113.820312 300.023438 112.648438 300.203125 C 111.714844 300.347656 107.179688 296.96875 105.894531 296.171875 C 104.398438 295.25 102.746094 294.96875 103.453125 296.117188 " fill-opacity="1" fill-rule="nonzero"/></g></svg>