<svg xmlns="http://www.w3.org/2000/svg" xmlns:xlink="http://www.w3.org/1999/xlink" width="500" zoomAndPan="magnify" viewBox="0 0 375 374.999991" height="500" preserveAspectRatio="xMidYMid meet" version="1.0"><defs><clipPath id="e13ffa799f"><path d="M 94.21875 49 L 283.96875 49 L 283.96875 325.707031 L 94.21875 325.707031 Z M 94.21875 49 " clip-rule="nonzero"/></clipPath><clipPath id="4b364753d5"><path d="M 91 265.304688 L 147.25 265.304688 L 147.25 321.554688 L 91 321.554688 Z M 91 265.304688 " clip-rule="nonzero"/></clipPath><clipPath id="cff74f78eb"><path d="M 105.808594 280.113281 L 132.058594 280.113281 L 132.058594 306.363281 L 105.808594 306.363281 Z M 105.808594 280.113281 " clip-rule="nonzero"/></clipPath><clipPath id="99e26fdd20"><path d="M 96.210938 270.515625 L 141.960938 270.515625 L 141.960938 316.265625 L 96.210938 316.265625 Z M 96.210938 270.515625 " clip-rule="nonzero"/></clipPath></defs><g clip-path="url(#e13ffa799f)"><path fill="#ffbd59" d="M 269.359375 325.160156 C 237.792969 325.160156 206.820312 325.160156 175.472656 325.160156 C 175.472656 320.183594 174.925781 315.257812 175.574219 310.511719 C 177.570312 295.78125 172.71875 284.378906 160.742188 275.535156 C 154.144531 270.65625 147.933594 265.183594 141.992188 259.523438 C 132.859375 250.828125 127.195312 239.714844 121.78125 228.53125 C 114.5625 213.601562 107.34375 198.703125 96.828125 185.644531 C 91.800781 179.386719 94.308594 172.433594 101.976562 170.066406 C 110.046875 167.589844 117.101562 169.84375 123.207031 175.253906 C 132.460938 183.445312 138.417969 194.003906 144.15625 204.707031 C 145.289062 206.8125 146.800781 208.894531 148.636719 210.378906 C 151.242188 212.476562 153.207031 211.554688 153.804688 208.292969 C 154.167969 206.328125 154.457031 204.285156 154.390625 202.292969 C 153.429688 172.328125 152.414062 142.371094 151.375 112.398438 C 151.035156 102.609375 150.515625 92.8125 150.183594 83.019531 C 150.023438 78.175781 151.5 73.894531 155.3125 70.683594 C 162.296875 64.78125 171.605469 67.632812 173.328125 76.566406 C 174.660156 83.464844 175.160156 90.550781 175.660156 97.582031 C 176.976562 116.125 178.085938 134.667969 179.308594 153.21875 C 179.394531 154.507812 179.355469 156.078125 180.054688 156.980469 C 181.167969 158.414062 182.855469 160.300781 184.304688 160.308594 C 185.800781 160.308594 187.636719 158.542969 188.6875 157.085938 C 189.398438 156.105469 189.082031 154.316406 189.09375 152.894531 C 189.246094 124.898438 189.363281 96.90625 189.53125 68.917969 C 189.550781 66.03125 189.753906 63.15625 190.035156 60.292969 C 190.648438 54.152344 195.773438 49.621094 202.097656 49.507812 C 208.734375 49.394531 213.289062 53.246094 213.925781 60.082031 C 214.46875 65.8125 214.667969 71.59375 214.726562 77.351562 C 215.050781 102.734375 215.273438 128.121094 215.535156 153.507812 C 215.539062 154.367188 215.273438 155.53125 215.714844 156.046875 C 217.03125 157.550781 218.636719 158.785156 220.113281 160.136719 C 221.355469 158.613281 223.550781 157.152344 223.65625 155.554688 C 224.554688 143.046875 224.980469 130.515625 225.671875 117.988281 C 226.386719 104.90625 227.054688 91.796875 228.070312 78.734375 C 228.691406 70.753906 232.785156 66.71875 239.019531 66.996094 C 245.859375 67.292969 251.828125 73.117188 251.976562 80.277344 C 252.152344 88.199219 251.90625 96.140625 251.664062 104.070312 C 251.152344 120.640625 250.527344 137.210938 249.933594 153.769531 C 249.824219 156.945312 249.527344 160.097656 249.488281 163.265625 C 249.464844 166.046875 250.648438 168.09375 253.734375 168.195312 C 256.722656 168.289062 257.542969 166.332031 257.777344 163.695312 C 259.148438 147.773438 260.578125 131.84375 261.992188 115.933594 C 262.484375 110.5 262.5625 104.957031 263.679688 99.644531 C 265.207031 92.292969 272.660156 89.996094 277.710938 95.5 C 280.433594 98.46875 282.648438 102.882812 283.046875 106.855469 C 285.175781 127.75 283.253906 148.546875 281.03125 169.367188 C 280.359375 175.726562 281.089844 182.316406 281.703125 188.746094 C 284.691406 220.027344 284.230469 250.835938 271.5625 280.457031 C 267.085938 290.9375 268.425781 302.277344 268.824219 313.355469 C 268.941406 317.191406 269.164062 321.015625 269.359375 325.160156 Z M 269.359375 325.160156 " fill-opacity="1" fill-rule="nonzero"/></g><g clip-path="url(#4b364753d5)"><path fill="#a6a6a6" d="M 119.125 321.554688 C 103.585938 321.554688 91 308.882812 91 293.429688 C 91 277.980469 103.585938 265.304688 119.125 265.304688 C 134.664062 265.304688 147.25 277.890625 147.25 293.429688 C 147.25 308.96875 134.574219 321.554688 119.125 321.554688 Z M 119.125 267.042969 C 104.539062 267.042969 92.734375 278.847656 92.734375 293.429688 C 92.734375 308.011719 104.539062 319.820312 119.125 319.820312 C 133.707031 319.820312 145.511719 308.011719 145.511719 293.429688 C 145.511719 278.847656 133.621094 267.042969 119.125 267.042969 Z M 119.125 267.042969 " fill-opacity="1" fill-rule="nonzero"/></g><g clip-path="url(#cff74f78eb)"><path fill="#ec1d27" d="M 127.136719 280.113281 L 118.933594 288.316406 L 110.726562 280.113281 L 105.804688 285.03125 L 114.011719 293.238281 L 105.804688 301.441406 L 110.726562 306.363281 L 118.933594 298.15625 L 127.136719 306.363281 L 132.058594 301.441406 L 123.851562 293.238281 L 132.058594 285.03125 L 127.136719 280.113281 " fill-opacity="1" fill-rule="nonzero"/></g><g clip-path="url(#99e26fdd20)"><path fill="#ffffff" d="M 141.960938 293.390625 C 141.960938 294.140625 141.925781 294.890625 141.851562 295.632812 C 141.777344 296.378906 141.667969 297.121094 141.523438 297.855469 C 141.375 298.589844 141.195312 299.316406 140.976562 300.03125 C 140.757812 300.75 140.507812 301.453125 140.21875 302.144531 C 139.933594 302.839844 139.613281 303.515625 139.261719 304.175781 C 138.90625 304.835938 138.523438 305.476562 138.105469 306.101562 C 137.691406 306.722656 137.246094 307.324219 136.769531 307.902344 C 136.292969 308.484375 135.792969 309.039062 135.261719 309.566406 C 134.730469 310.097656 134.175781 310.601562 133.597656 311.074219 C 133.019531 311.550781 132.417969 311.996094 131.796875 312.414062 C 131.171875 312.828125 130.53125 313.214844 129.871094 313.566406 C 129.207031 313.917969 128.53125 314.238281 127.839844 314.527344 C 127.148438 314.8125 126.445312 315.066406 125.726562 315.28125 C 125.007812 315.5 124.285156 315.679688 123.550781 315.828125 C 122.8125 315.972656 122.074219 316.082031 121.328125 316.15625 C 120.582031 316.230469 119.835938 316.265625 119.085938 316.265625 C 118.335938 316.265625 117.589844 316.230469 116.84375 316.15625 C 116.097656 316.082031 115.359375 315.972656 114.625 315.828125 C 113.890625 315.679688 113.164062 315.5 112.445312 315.28125 C 111.730469 315.066406 111.023438 314.8125 110.332031 314.527344 C 109.640625 314.238281 108.964844 313.917969 108.304688 313.566406 C 107.640625 313.214844 107 312.828125 106.378906 312.414062 C 105.753906 311.996094 105.152344 311.550781 104.574219 311.074219 C 103.996094 310.601562 103.441406 310.097656 102.910156 309.566406 C 102.382812 309.039062 101.878906 308.484375 101.402344 307.902344 C 100.929688 307.324219 100.484375 306.722656 100.066406 306.101562 C 99.648438 305.476562 99.265625 304.835938 98.914062 304.175781 C 98.558594 303.515625 98.238281 302.839844 97.953125 302.144531 C 97.664062 301.453125 97.414062 300.75 97.195312 300.03125 C 96.980469 299.316406 96.796875 298.589844 96.652344 297.855469 C 96.503906 297.121094 96.394531 296.378906 96.320312 295.632812 C 96.25 294.890625 96.210938 294.140625 96.210938 293.390625 C 96.210938 292.644531 96.25 291.894531 96.320312 291.148438 C 96.394531 290.40625 96.503906 289.664062 96.652344 288.929688 C 96.796875 288.195312 96.980469 287.46875 97.195312 286.753906 C 97.414062 286.035156 97.664062 285.332031 97.953125 284.636719 C 98.238281 283.945312 98.558594 283.269531 98.914062 282.609375 C 99.265625 281.949219 99.648438 281.304688 100.066406 280.683594 C 100.484375 280.0625 100.929688 279.460938 101.402344 278.878906 C 101.878906 278.300781 102.382812 277.746094 102.910156 277.21875 C 103.441406 276.6875 103.996094 276.183594 104.574219 275.710938 C 105.152344 275.234375 105.753906 274.789062 106.378906 274.371094 C 107 273.957031 107.640625 273.570312 108.304688 273.21875 C 108.964844 272.863281 109.640625 272.546875 110.332031 272.257812 C 111.023438 271.972656 111.730469 271.71875 112.445312 271.503906 C 113.164062 271.285156 113.890625 271.101562 114.625 270.957031 C 115.359375 270.8125 116.097656 270.699219 116.84375 270.628906 C 117.589844 270.554688 118.335938 270.515625 119.085938 270.515625 C 119.835938 270.515625 120.582031 270.554688 121.328125 270.628906 C 122.074219 270.699219 122.8125 270.8125 123.550781 270.957031 C 124.285156 271.101562 125.007812 271.285156 125.726562 271.503906 C 126.445312 271.71875 127.148438 271.972656 127.839844 272.257812 C 128.53125 272.546875 129.207031 272.863281 129.871094 273.21875 C 130.53125 273.570312 131.171875 273.957031 131.796875 274.371094 C 132.417969 274.789062 133.019531 275.234375 133.597656 275.710938 C 134.175781 276.183594 134.730469 276.6875 135.261719 277.21875 C 135.792969 277.746094 136.292969 278.300781 136.769531 278.878906 C 137.246094 279.460938 137.691406 280.0625 138.105469 280.683594 C 138.523438 281.304688 138.90625 281.949219 139.261719 282.609375 C 139.613281 283.269531 139.933594 283.945312 140.21875 284.636719 C 140.507812 285.332031 140.757812 286.035156 140.976562 286.753906 C 141.195312 287.46875 141.375 288.195312 141.523438 288.929688 C 141.667969 289.664062 141.777344 290.40625 141.851562 291.148438 C 141.925781 291.894531 141.960938 292.644531 141.960938 293.390625 Z M 141.960938 293.390625 " fill-opacity="1" fill-rule="nonzero"/></g><path fill="#ec1d27" d="M 130.917969 284.878906 L 127.601562 281.558594 L 119.085938 290.074219 L 110.574219 281.558594 L 107.253906 284.878906 L 115.765625 293.390625 L 107.253906 301.90625 L 110.574219 305.226562 L 119.085938 296.710938 L 127.601562 305.226562 L 130.917969 301.90625 L 122.40625 293.390625 Z M 130.917969 284.878906 " fill-opacity="1" fill-rule="nonzero"/></svg>