<svg xmlns="http://www.w3.org/2000/svg" xmlns:xlink="http://www.w3.org/1999/xlink" width="500" zoomAndPan="magnify" viewBox="0 0 375 374.999991" height="500" preserveAspectRatio="xMidYMid meet" version="1.0"><defs><clipPath id="71933c8e81"><path d="M 44.015625 82.226562 L 330.984375 82.226562 L 330.984375 347.027344 L 44.015625 347.027344 Z M 44.015625 82.226562 " clip-rule="nonzero"/></clipPath><clipPath id="a6e3c71e79"><path d="M 61.265625 82.226562 L 313.734375 82.226562 C 318.3125 82.226562 322.699219 84.042969 325.933594 87.277344 C 329.167969 90.511719 330.984375 94.902344 330.984375 99.476562 L 330.984375 329.777344 C 330.984375 334.355469 329.167969 338.742188 325.933594 341.976562 C 322.699219 345.210938 318.3125 347.027344 313.734375 347.027344 L 61.265625 347.027344 C 56.6875 347.027344 52.300781 345.210938 49.066406 341.976562 C 45.832031 338.742188 44.015625 334.355469 44.015625 329.777344 L 44.015625 99.476562 C 44.015625 94.902344 45.832031 90.511719 49.066406 87.277344 C 52.300781 84.042969 56.6875 82.226562 61.265625 82.226562 " clip-rule="nonzero"/></clipPath><clipPath id="cf45e38995"><path d="M 82.738281 238.480469 L 170.9375 238.480469 L 170.9375 347.027344 L 82.738281 347.027344 Z M 82.738281 238.480469 " clip-rule="nonzero"/></clipPath><clipPath id="f4c8cfa81f"><path d="M 112.15625 241.027344 C 116.660156 239.488281 121.816406 238.480469 126.863281 238.480469 C 131.90625 238.480469 136.761719 239.34375 141.234375 240.882812 C 141.332031 240.929688 141.425781 240.929688 141.523438 240.976562 C 158.324219 247.128906 170.699219 263.371094 170.9375 282.351562 L 170.9375 347.027344 L 82.738281 347.027344 L 82.738281 282.398438 C 82.976562 263.273438 95.164062 247.03125 112.15625 241.027344 " clip-rule="nonzero"/></clipPath><clipPath id="1ba7978991"><path d="M 82.738281 109.605469 L 160.691406 109.605469 L 160.691406 189.714844 L 82.738281 189.714844 Z M 82.738281 109.605469 " clip-rule="nonzero"/></clipPath><clipPath id="f5ffdbab6c"><path d="M 99.988281 109.605469 L 143.441406 109.605469 C 148.015625 109.605469 152.402344 111.421875 155.636719 114.65625 C 158.875 117.890625 160.691406 122.28125 160.691406 126.855469 L 160.691406 172.464844 C 160.691406 177.039062 158.875 181.429688 155.636719 184.664062 C 152.402344 187.898438 148.015625 189.714844 143.441406 189.714844 L 99.988281 189.714844 C 95.414062 189.714844 91.027344 187.898438 87.792969 184.664062 C 84.558594 181.429688 82.738281 177.039062 82.738281 172.464844 L 82.738281 126.855469 C 82.738281 122.28125 84.558594 117.890625 87.792969 114.65625 C 91.027344 111.421875 95.414062 109.605469 99.988281 109.605469 " clip-rule="nonzero"/></clipPath><clipPath id="a7d89090cf"><path d="M 82.738281 109.609375 L 160.738281 109.609375 L 160.738281 189.855469 L 82.738281 189.855469 Z M 82.738281 109.609375 " clip-rule="nonzero"/></clipPath><clipPath id="a748fd74b0"><path d="M 100 109.609375 L 143.480469 109.609375 C 148.058594 109.609375 152.445312 111.429688 155.683594 114.671875 C 158.921875 117.910156 160.738281 122.304688 160.738281 126.886719 L 160.738281 172.574219 C 160.738281 177.15625 158.921875 181.550781 155.683594 184.789062 C 152.445312 188.03125 148.058594 189.851562 143.480469 189.851562 L 100 189.851562 C 95.421875 189.851562 91.03125 188.03125 87.796875 184.789062 C 84.558594 181.550781 82.738281 177.15625 82.738281 172.574219 L 82.738281 126.886719 C 82.738281 122.304688 84.558594 117.910156 87.796875 114.671875 C 91.03125 111.429688 95.421875 109.609375 100 109.609375 " clip-rule="nonzero"/></clipPath><clipPath id="4b4bc47a51"><path d="M 210.707031 109.605469 L 288.65625 109.605469 L 288.65625 189.714844 L 210.707031 189.714844 Z M 210.707031 109.605469 " clip-rule="nonzero"/></clipPath><clipPath id="d8aeef227e"><path d="M 227.957031 109.605469 L 271.40625 109.605469 C 275.984375 109.605469 280.371094 111.421875 283.605469 114.65625 C 286.839844 117.890625 288.65625 122.28125 288.65625 126.855469 L 288.65625 172.464844 C 288.65625 177.039062 286.839844 181.429688 283.605469 184.664062 C 280.371094 187.898438 275.984375 189.714844 271.40625 189.714844 L 227.957031 189.714844 C 223.382812 189.714844 218.996094 187.898438 215.757812 184.664062 C 212.523438 181.429688 210.707031 177.039062 210.707031 172.464844 L 210.707031 126.855469 C 210.707031 122.28125 212.523438 117.890625 215.757812 114.65625 C 218.996094 111.421875 223.382812 109.605469 227.957031 109.605469 " clip-rule="nonzero"/></clipPath><clipPath id="e9113b82a1"><path d="M 210.707031 109.609375 L 288.707031 109.609375 L 288.707031 189.855469 L 210.707031 189.855469 Z M 210.707031 109.609375 " clip-rule="nonzero"/></clipPath><clipPath id="13687a39f0"><path d="M 227.96875 109.609375 L 271.445312 109.609375 C 276.023438 109.609375 280.414062 111.429688 283.652344 114.671875 C 286.886719 117.910156 288.707031 122.304688 288.707031 126.886719 L 288.707031 172.574219 C 288.707031 177.15625 286.886719 181.550781 283.652344 184.789062 C 280.414062 188.03125 276.023438 189.851562 271.445312 189.851562 L 227.96875 189.851562 C 223.390625 189.851562 219 188.03125 215.761719 184.789062 C 212.527344 181.550781 210.707031 177.15625 210.707031 172.574219 L 210.707031 126.886719 C 210.707031 122.304688 212.527344 117.910156 215.761719 114.671875 C 219 111.429688 223.390625 109.609375 227.96875 109.609375 " clip-rule="nonzero"/></clipPath><clipPath id="a04748a1bd"><path d="M 210.707031 238.480469 L 288.65625 238.480469 L 288.65625 318.589844 L 210.707031 318.589844 Z M 210.707031 238.480469 " clip-rule="nonzero"/></clipPath><clipPath id="6760ef95c5"><path d="M 227.957031 238.480469 L 271.40625 238.480469 C 275.984375 238.480469 280.371094 240.296875 283.605469 243.53125 C 286.839844 246.765625 288.65625 251.15625 288.65625 255.730469 L 288.65625 301.339844 C 288.65625 305.914062 286.839844 310.300781 283.605469 313.539062 C 280.371094 316.773438 275.984375 318.589844 271.40625 318.589844 L 227.957031 318.589844 C 223.382812 318.589844 218.996094 316.773438 215.757812 313.539062 C 212.523438 310.300781 210.707031 305.914062 210.707031 301.339844 L 210.707031 255.730469 C 210.707031 251.15625 212.523438 246.765625 215.757812 243.53125 C 218.996094 240.296875 223.382812 238.480469 227.957031 238.480469 " clip-rule="nonzero"/></clipPath><clipPath id="f8e84a2c5b"><path d="M 210.707031 238.484375 L 288.707031 238.484375 L 288.707031 318.730469 L 210.707031 318.730469 Z M 210.707031 238.484375 " clip-rule="nonzero"/></clipPath><clipPath id="15a7244be0"><path d="M 227.96875 238.484375 L 271.445312 238.484375 C 276.023438 238.484375 280.414062 240.304688 283.652344 243.542969 C 286.886719 246.785156 288.707031 251.179688 288.707031 255.761719 L 288.707031 301.445312 C 288.707031 306.027344 286.886719 310.425781 283.652344 313.664062 C 280.414062 316.90625 276.023438 318.726562 271.445312 318.726562 L 227.96875 318.726562 C 223.390625 318.726562 219 316.90625 215.761719 313.664062 C 212.527344 310.425781 210.707031 306.027344 210.707031 301.445312 L 210.707031 255.761719 C 210.707031 251.179688 212.527344 246.785156 215.761719 243.542969 C 219 240.304688 223.390625 238.484375 227.96875 238.484375 " clip-rule="nonzero"/></clipPath><clipPath id="14ac05ccd7"><path d="M 204.472656 61.347656 L 279 61.347656 L 279 88.679688 L 204.472656 88.679688 Z M 204.472656 61.347656 " clip-rule="nonzero"/></clipPath><clipPath id="1dcd01a085"><path d="M 229.425781 74.398438 C 222.449219 73.574219 222.226562 72.75 222.300781 72.226562 C 222.449219 71.625 222.976562 70.949219 223.875 70.5 C 226.125 69.449219 232.199219 70.574219 238.050781 69.898438 C 247.800781 68.699219 271.800781 61.351562 276.675781 62.175781 C 277.875 62.398438 278.625 62.851562 278.851562 63.449219 C 279.074219 64.050781 278.550781 65.324219 277.875 65.773438 C 276.898438 66.449219 274.574219 65.699219 272.773438 66 C 270.675781 66.375 269.398438 66.976562 266.023438 68.023438 C 256.050781 71.175781 213.449219 88.5 207.148438 87.976562 C 205.875 87.898438 205.199219 87.375 204.976562 86.773438 C 204.75 86.175781 205.199219 84.976562 205.949219 84.449219 C 207.226562 83.550781 210.601562 84.523438 213.300781 84.148438 C 216.675781 83.625 219.976562 82.574219 224.699219 81.148438 C 232.5 78.75 252.226562 69.375 255.675781 70.425781 C 256.574219 70.726562 256.949219 71.550781 256.949219 72.148438 C 256.949219 72.75 256.425781 73.5 255.824219 73.875 C 254.925781 74.398438 253.199219 73.648438 251.476562 73.949219 C 248.773438 74.398438 245.324219 75.449219 241.199219 76.949219 C 234.75 79.351562 220.574219 87.898438 216.824219 87.898438 C 215.699219 87.898438 214.800781 87.449219 214.574219 86.851562 C 214.351562 86.25 214.800781 84.898438 215.398438 84.449219 C 216.074219 84 217.050781 84.675781 218.550781 84.449219 C 222.523438 83.851562 232.050781 80.625 240.148438 78.074219 C 250.574219 74.773438 271.5 65.398438 275.699219 66.074219 C 276.675781 66.226562 277.273438 66.824219 277.425781 67.351562 C 277.574219 67.949219 277.125 69.226562 276.375 69.675781 C 275.175781 70.5 271.949219 69.523438 269.550781 69.75 C 266.925781 69.976562 263.101562 71.476562 261.226562 71.175781 C 260.175781 71.023438 259.273438 70.574219 258.976562 70.050781 C 258.675781 69.601562 258.824219 68.625 259.050781 68.175781 C 259.273438 67.800781 259.648438 67.425781 260.101562 67.273438 C 260.625 67.125 261.523438 67.199219 261.976562 67.425781 C 262.351562 67.648438 262.648438 68.023438 262.800781 68.476562 C 262.949219 69 262.875 69.976562 262.5 70.425781 C 262.125 70.875 261.375 71.324219 260.773438 71.25 C 260.101562 71.175781 258.976562 70.351562 258.824219 69.675781 C 258.675781 69 259.050781 67.949219 259.875 67.351562 C 261.449219 66.148438 266.773438 65.925781 269.625 65.773438 C 271.875 65.625 274.351562 65.476562 275.699219 66.074219 C 276.601562 66.449219 277.425781 67.199219 277.5 67.800781 C 277.574219 68.476562 277.050781 69.074219 276 69.898438 C 270.976562 73.574219 233.550781 84.75 223.648438 86.925781 C 219.824219 87.75 216.898438 88.648438 215.550781 87.824219 C 214.800781 87.375 214.351562 86.175781 214.574219 85.5 C 214.800781 84.601562 216.148438 84.074219 217.800781 83.175781 C 221.851562 80.851562 233.699219 75.675781 240 73.425781 C 244.425781 71.851562 248.699219 70.351562 251.550781 70.050781 C 253.125 69.898438 254.398438 69.898438 255.300781 70.351562 C 256.050781 70.726562 256.875 71.550781 256.949219 72.148438 C 257.023438 72.75 256.648438 73.199219 255.824219 73.875 C 252.601562 76.425781 233.476562 82.273438 225.601562 84.75 C 220.648438 86.25 216.898438 87.523438 213.449219 87.976562 C 210.898438 88.351562 208.199219 88.5 206.699219 88.050781 C 205.875 87.75 205.125 87.375 204.976562 86.773438 C 204.824219 86.101562 205.050781 85.199219 206.023438 84.300781 C 211.125 79.574219 262.949219 63.375 272.773438 62.101562 C 275.476562 61.726562 277.050781 61.648438 278.023438 62.398438 C 278.699219 62.925781 279 64.199219 278.851562 64.800781 C 278.773438 65.25 278.398438 65.476562 277.875 65.773438 C 276.824219 66.375 275.175781 66.449219 272.550781 66.976562 C 265.199219 68.476562 238.648438 73.800781 230.476562 74.398438 C 227.175781 74.625 224.699219 75 223.425781 74.25 C 222.675781 73.800781 222.226562 72.824219 222.300781 72.226562 C 222.375 71.625 223.050781 70.875 223.875 70.5 C 225.226562 69.898438 229.199219 69.898438 230.324219 70.726562 C 231 71.25 231.449219 72.523438 231.226562 73.125 C 231.074219 73.726562 229.425781 74.398438 229.425781 74.398438 " clip-rule="nonzero"/></clipPath><clipPath id="7cdb8ca4fc"><path d="M 260.160156 28.519531 L 331 28.519531 L 331 100.78125 L 260.160156 100.78125 Z M 260.160156 28.519531 " clip-rule="nonzero"/></clipPath><clipPath id="d0b31d196f"><path d="M 275.851562 87.898438 C 275.925781 81.449219 276.75 76.800781 277.726562 73.648438 C 278.550781 70.875 279.074219 68.023438 280.949219 66.074219 C 283.125 63.898438 287.925781 61.425781 290.625 61.800781 C 292.800781 62.101562 294.75 63.898438 296.101562 66.148438 C 298.125 69.449219 298.050781 77.25 299.324219 81.148438 C 300.226562 83.851562 303 86.699219 302.25 87.75 C 301.425781 88.949219 295.199219 88.949219 293.398438 87.148438 C 290.925781 84.675781 292.351562 75.449219 292.425781 70.800781 C 292.5 67.273438 292.574219 64.574219 293.25 61.648438 C 293.925781 58.875 294.226562 54.976562 296.324219 53.625 C 298.726562 52.125 305.101562 52.800781 307.5 54.449219 C 309.523438 55.800781 309.75 58.425781 310.875 61.273438 C 312.523438 65.476562 317.476562 75.375 315.898438 77.625 C 314.851562 79.050781 310.351562 78.976562 308.699219 77.851562 C 306.898438 76.648438 306.074219 73.425781 305.851562 70.273438 C 305.476562 65.398438 307.875 55.125 309.675781 51.226562 C 310.648438 49.125 311.699219 47.925781 312.976562 47.023438 C 314.023438 46.351562 315.074219 45.976562 316.351562 45.976562 C 317.851562 45.976562 320.101562 46.5 321.449219 47.550781 C 322.726562 48.523438 323.851562 50.550781 324.226562 52.050781 C 324.523438 53.25 323.925781 53.925781 324 55.648438 C 324.148438 60.148438 329.699219 75.148438 327.074219 80.175781 C 325.199219 83.773438 318.375 86.851562 315.898438 86.023438 C 313.875 85.351562 313.199219 81.226562 312.300781 78.824219 C 311.476562 76.574219 310.875 75 310.5 72.074219 C 309.824219 66.976562 309.898438 55.800781 310.5 50.851562 C 310.875 48.074219 311.25 46.125 312.148438 44.476562 C 312.824219 43.199219 313.574219 42.300781 314.699219 41.625 C 316.125 40.800781 318.449219 40.050781 320.25 40.273438 C 321.976562 40.5 324.148438 41.773438 325.273438 42.976562 C 326.175781 43.949219 326.773438 45.074219 327 46.351562 C 327.300781 48 326.023438 50.023438 326.25 52.050781 C 326.476562 54.523438 328.351562 57.449219 328.875 60.074219 C 329.324219 62.476562 330.601562 66 329.398438 67.273438 C 327.898438 68.851562 321.375 66 318.898438 67.199219 C 316.875 68.175781 315.523438 72.824219 314.773438 72.601562 C 313.875 72.300781 314.925781 66.824219 314.699219 63.449219 C 314.398438 59.101562 313.125 52.800781 312.898438 48.824219 C 312.75 46.050781 312.75 44.324219 313.050781 41.773438 C 313.351562 38.773438 313.273438 34.199219 314.925781 32.023438 C 316.351562 30.148438 319.125 28.726562 321.375 28.800781 C 323.851562 28.875 328.050781 30.976562 329.101562 33.226562 C 330.148438 35.476562 329.550781 40.050781 327.601562 42.300781 C 325.050781 45.300781 316.875 46.425781 312.523438 47.324219 C 309.375 48 307.800781 47.550781 304.199219 48.074219 C 297.523438 49.125 277.800781 56.324219 275.773438 54.226562 C 275.023438 53.398438 276.976562 49.875 276.898438 49.875 C 276.824219 49.875 276.148438 53.550781 275.101562 54.824219 C 274.050781 56.101562 272.25 57.300781 270.675781 57.675781 C 269.023438 58.050781 266.925781 57.898438 265.425781 57.226562 C 263.925781 56.550781 262.273438 54.976562 261.523438 53.773438 C 260.925781 52.949219 260.699219 52.273438 260.625 51.226562 C 260.476562 49.800781 260.773438 47.324219 261.300781 46.050781 C 261.675781 45.074219 262.125 44.550781 262.875 43.875 C 263.925781 42.976562 265.949219 41.773438 267.601562 41.550781 C 269.25 41.324219 271.425781 41.925781 272.699219 42.523438 C 273.601562 42.976562 274.199219 43.351562 274.800781 44.175781 C 275.699219 45.300781 276.675781 47.625 276.898438 49.050781 C 277.050781 50.023438 276.976562 50.699219 276.675781 51.675781 C 276.226562 53.023438 274.875 55.125 273.824219 56.101562 C 273.074219 56.773438 272.324219 57.074219 271.5 57.375 C 270.675781 57.675781 269.925781 57.976562 268.949219 57.898438 C 267.523438 57.824219 265.125 57.148438 263.925781 56.398438 C 263.101562 55.875 262.574219 55.351562 262.050781 54.523438 C 261.300781 53.324219 260.175781 51.375 260.476562 49.5 C 260.925781 46.800781 264.449219 42.300781 266.925781 40.351562 C 268.875 38.851562 270.148438 38.773438 273.300781 37.875 C 281.324219 35.550781 309 29.625 317.550781 29.175781 C 321 29.023438 324.824219 29.25 324.898438 29.851562 C 324.976562 30.449219 319.199219 31.050781 317.476562 32.773438 C 315.75 34.5 313.949219 38.398438 314.699219 40.351562 C 315.449219 42.300781 319.5 44.25 321.976562 44.324219 C 324.375 44.398438 328.125 39.976562 329.25 40.726562 C 330.300781 41.398438 328.800781 44.773438 328.875 47.773438 C 328.949219 53.023438 330.976562 64.199219 330.898438 69.601562 C 330.824219 72.824219 331.425781 75.375 330 77.25 C 328.425781 79.351562 323.476562 81.601562 320.851562 80.925781 C 318.074219 80.175781 315.449219 76.125 313.875 72.375 C 311.699219 67.125 311.773438 56.476562 311.699219 51.375 C 311.625 48.449219 311.25 46.273438 312.148438 44.476562 C 312.976562 42.824219 314.773438 41.324219 316.425781 40.726562 C 318.074219 40.125 320.476562 40.125 322.125 40.800781 C 323.773438 41.476562 325.5 43.125 326.324219 44.550781 C 327 45.675781 327.226562 47.023438 327.226562 48.300781 C 327.226562 49.574219 326.476562 50.324219 326.25 52.050781 C 325.800781 55.5 325.574219 62.773438 326.175781 67.949219 C 326.773438 72.898438 329.476562 78.074219 329.773438 82.425781 C 330 86.023438 330.449219 90.300781 328.574219 92.25 C 326.476562 94.425781 319.425781 95.324219 316.949219 94.125 C 315.074219 93.226562 314.476562 90.226562 313.648438 88.125 C 312.75 85.949219 312.300781 83.925781 311.773438 81.226562 C 311.023438 77.398438 310.5 72 310.125 67.125 C 309.75 62.023438 308.550781 54.675781 309.675781 51.226562 C 310.351562 49.199219 311.550781 47.851562 312.976562 47.023438 C 314.398438 46.199219 316.5 45.75 318.148438 46.050781 C 319.800781 46.351562 321.675781 47.550781 322.726562 48.824219 C 323.773438 50.101562 324.148438 51.449219 324.300781 53.851562 C 324.675781 59.550781 322.125 77.023438 319.125 83.175781 C 317.476562 86.625 315.523438 89.625 312.976562 90.148438 C 310.050781 90.75 304.875 87.75 302.324219 84.898438 C 299.550781 81.824219 298.199219 75.675781 297.523438 71.625 C 297 68.398438 296.175781 63.824219 297.675781 62.699219 C 299.324219 61.5 306 63.226562 307.875 65.773438 C 310.273438 69.074219 307.726562 78.226562 307.351562 83.25 C 307.050781 87.074219 307.5 90.601562 306 93.375 C 304.425781 96.226562 300.75 99.75 297.976562 100.199219 C 295.574219 100.574219 292.273438 98.773438 290.476562 97.050781 C 288.75 95.398438 288.074219 92.851562 287.101562 90.449219 C 285.976562 87.75 284.851562 84.675781 284.25 81.675781 C 283.726562 78.75 282.375 73.726562 283.648438 72.824219 C 284.925781 71.925781 291.148438 74.324219 292.050781 76.273438 C 292.875 78.074219 290.175781 81.226562 289.648438 83.699219 C 289.199219 86.023438 289.648438 89.023438 288.976562 90.75 C 288.523438 91.875 287.851562 92.699219 286.875 93.300781 C 285.675781 94.050781 283.648438 94.800781 282.148438 94.648438 C 280.648438 94.5 278.773438 93.601562 277.726562 92.476562 C 276.675781 91.351562 275.851562 87.898438 275.851562 87.898438 " clip-rule="nonzero"/></clipPath><clipPath id="051226d7f7"><path d="M 191.648438 43 L 286 43 L 286 71.871094 L 191.648438 71.871094 Z M 191.648438 43 " clip-rule="nonzero"/></clipPath><clipPath id="7f3c248775"><path d="M 278.625 57.898438 C 256.351562 57.898438 255.300781 58.273438 252.074219 58.949219 C 245.773438 60.300781 231.75 63.523438 224.101562 65.773438 C 218.625 67.351562 214.125 69.601562 210.300781 70.425781 C 207.675781 71.023438 203.699219 71.625 203.476562 71.175781 C 203.324219 70.949219 205.125 69.898438 205.050781 69.75 C 204.898438 69.523438 201.976562 71.625 200.398438 71.699219 C 198.824219 71.773438 196.726562 71.023438 195.523438 70.351562 C 194.699219 69.898438 194.175781 69.449219 193.648438 68.625 C 192.898438 67.5 191.925781 65.476562 191.925781 63.898438 C 191.925781 62.324219 192.523438 60.375 193.5 59.101562 C 194.476562 57.824219 196.125 56.625 197.625 56.175781 C 199.199219 55.726562 201.449219 56.023438 202.726562 56.398438 C 203.625 56.699219 204.226562 57.148438 204.898438 57.675781 C 205.574219 58.199219 206.175781 58.726562 206.625 59.625 C 207.226562 60.824219 207.898438 63 207.75 64.574219 C 207.601562 66.148438 206.773438 68.023438 205.648438 69.148438 C 204.523438 70.273438 202.800781 71.25 201.226562 71.550781 C 199.648438 71.851562 197.625 71.550781 196.199219 70.800781 C 194.773438 70.050781 193.425781 68.625 192.75 67.199219 C 192.074219 65.773438 191.851562 63.75 192.148438 62.175781 C 192.449219 60.601562 193.351562 58.949219 194.699219 57.824219 C 196.5 56.398438 200.175781 55.875 202.800781 55.351562 C 205.199219 54.824219 207.449219 55.125 209.773438 54.523438 C 212.175781 53.925781 213.75 52.726562 216.824219 51.75 C 222.300781 50.023438 232.351562 47.476562 239.925781 46.050781 C 247.050781 44.699219 254.023438 43.5 260.773438 43.199219 C 267.148438 42.898438 275.25 43.199219 279.300781 44.101562 C 281.398438 44.550781 282.75 45.148438 283.800781 46.050781 C 284.699219 46.800781 285.226562 47.773438 285.523438 48.898438 C 285.898438 50.25 285.898438 52.351562 285.300781 53.773438 C 284.699219 55.199219 283.125 56.625 281.851562 57.300781 C 280.800781 57.824219 278.625 57.898438 278.625 57.898438 " clip-rule="nonzero"/></clipPath><clipPath id="0623e5d9cc"><path d="M 85 36.554688 L 319 36.554688 L 319 99.726562 L 85 99.726562 Z M 85 36.554688 " clip-rule="nonzero"/></clipPath><clipPath id="ddde1e23f0"><path d="M 199.800781 70.726562 C 181.726562 73.050781 173.925781 76.800781 165.898438 79.351562 C 156.449219 82.351562 143.324219 86.625 134.925781 88.273438 C 129.375 89.324219 125.476562 88.949219 120.824219 89.773438 C 116.175781 90.601562 111 91.726562 107.101562 93.074219 C 103.949219 94.125 100.050781 97.574219 98.925781 96.75 C 97.800781 95.925781 100.875 90.75 100.125 88.351562 C 99.449219 86.101562 94.425781 83.699219 94.875 82.648438 C 95.324219 81.601562 99.449219 82.574219 103.125 82.125 C 110.398438 81.148438 125.699219 77.023438 135.824219 75.523438 C 144.523438 74.25 152.851562 74.476562 160.125 73.199219 C 166.199219 72.148438 170.476562 70.125 176.625 69.074219 C 184.273438 67.800781 193.574219 67.050781 202.574219 66.601562 C 212.25 66.148438 225.824219 66.75 232.875 66.449219 C 236.699219 66.300781 238.351562 66.226562 241.648438 65.699219 C 246 65.023438 252.824219 62.324219 256.5 62.25 C 258.675781 62.25 260.324219 62.398438 261.75 63.300781 C 263.175781 64.199219 264.449219 66.074219 264.898438 67.648438 C 265.351562 69.226562 265.199219 71.398438 264.449219 72.898438 C 263.699219 74.398438 262.726562 75.675781 260.550781 76.574219 C 255.449219 78.675781 238.425781 76.800781 230.773438 77.25 C 225.898438 77.550781 222.449219 77.625 218.925781 78.449219 C 215.851562 79.125 212.851562 81.148438 210.675781 81.375 C 209.324219 81.523438 208.273438 81.300781 207.226562 80.851562 C 206.175781 80.398438 205.125 79.800781 204.449219 78.824219 C 203.550781 77.625 202.875 75.449219 202.800781 73.949219 C 202.800781 72.75 203.175781 71.625 203.699219 70.648438 C 204.226562 69.675781 204.675781 68.699219 206.101562 68.101562 C 210.226562 66.523438 224.550781 69.898438 234.375 70.273438 C 244.949219 70.726562 259.050781 69.523438 267.449219 70.351562 C 272.625 70.875 277.949219 70.648438 279.976562 72.75 C 281.476562 74.324219 281.550781 77.476562 280.875 79.574219 C 280.199219 81.824219 277.800781 84.898438 275.550781 85.5 C 272.925781 86.175781 267.601562 84.601562 265.726562 82.125 C 263.550781 79.351562 264.148438 73.199219 264.675781 68.625 C 265.273438 63.75 267.976562 57.675781 269.625 53.851562 C 270.75 51.300781 271.5 49.875 272.925781 47.773438 C 274.648438 45.300781 276.824219 41.851562 279.449219 40.050781 C 281.925781 38.324219 285.300781 36.675781 288.074219 36.898438 C 290.851562 37.125 294.300781 39.375 295.949219 41.476562 C 297.375 43.351562 297.523438 45.601562 297.898438 48.375 C 298.5 52.5 299.625 63.449219 298.050781 64.125 C 296.925781 64.574219 291.976562 60.300781 292.199219 58.351562 C 292.5 55.726562 303 49.574219 305.476562 50.550781 C 307.199219 51.226562 308.476562 55.425781 307.726562 57.824219 C 306.675781 61.273438 298.949219 65.324219 295.351562 67.800781 C 292.875 69.523438 290.925781 70.574219 288.601562 71.625 C 286.425781 72.601562 284.324219 73.273438 281.925781 73.875 C 279.148438 74.550781 275.625 75.074219 272.699219 75.375 C 270.074219 75.601562 267.523438 75.824219 265.050781 75.523438 C 262.726562 75.226562 260.101562 75.074219 258.226562 73.726562 C 256.125 72.226562 253.726562 69.300781 253.351562 66.675781 C 252.898438 63.75 254.625 58.800781 256.726562 56.699219 C 258.601562 54.824219 261.148438 54.449219 264.523438 54 C 270.449219 53.175781 285.148438 54.226562 289.351562 55.648438 C 291 56.25 291.601562 56.699219 292.425781 57.75 C 293.398438 59.023438 294.300781 61.351562 294.375 62.925781 C 294.449219 64.273438 294.148438 65.476562 293.476562 66.601562 C 292.648438 67.949219 291.449219 69.375 289.351562 70.273438 C 285.148438 72 274.800781 70.726562 268.125 71.398438 C 262.199219 72 256.726562 73.5 251.25 73.875 C 246.148438 74.175781 239.773438 74.175781 236.25 73.574219 C 234.226562 73.199219 232.648438 72.75 231.523438 72 C 230.699219 71.476562 230.175781 70.949219 229.726562 70.125 C 229.050781 68.925781 228.375 66.898438 228.449219 65.324219 C 228.523438 63.75 229.5 61.800781 230.25 60.675781 C 230.773438 59.925781 231.449219 59.476562 232.199219 59.023438 C 232.949219 58.574219 233.625 58.199219 234.601562 58.050781 C 235.949219 57.898438 238.125 57.976562 239.550781 58.648438 C 240.976562 59.324219 242.476562 60.976562 243.226562 62.101562 C 243.75 62.925781 243.824219 63.675781 243.976562 64.5 C 244.125 65.324219 244.199219 66.148438 243.976562 67.050781 C 243.675781 68.324219 242.550781 70.5 241.648438 71.476562 C 240.976562 72.226562 240.449219 72.601562 239.550781 72.898438 C 238.273438 73.351562 236.101562 73.800781 234.523438 73.425781 C 232.949219 73.050781 231.226562 71.773438 230.25 70.800781 C 229.574219 70.125 229.273438 69.523438 228.976562 68.625 C 228.601562 67.351562 228.226562 65.101562 228.675781 63.601562 C 229.125 62.101562 230.25 60.449219 231.523438 59.476562 C 232.800781 58.5 234.148438 58.199219 236.25 57.898438 C 240.074219 57.300781 247.273438 58.425781 252.824219 58.050781 C 258.523438 57.675781 264.226562 56.101562 270 55.648438 C 275.773438 55.199219 283.5 54.300781 287.476562 55.199219 C 289.726562 55.726562 291.300781 56.476562 292.425781 57.75 C 293.550781 59.023438 294.375 61.199219 294.375 62.925781 C 294.375 64.648438 293.550781 66.824219 292.425781 68.101562 C 291.300781 69.375 289.648438 70.199219 287.550781 70.726562 C 284.25 71.550781 277.949219 71.175781 273.898438 70.425781 C 270.449219 69.824219 265.273438 69.074219 264.675781 67.273438 C 264.074219 65.550781 267.375 61.351562 269.625 59.925781 C 271.800781 58.574219 275.101562 59.625 277.800781 58.875 C 280.574219 58.125 283.050781 57.300781 285.824219 55.5 C 289.648438 53.101562 294 46.800781 297.898438 44.625 C 300.675781 43.050781 303.226562 42.375 306 42.300781 C 308.773438 42.148438 312.449219 42.300781 314.550781 44.023438 C 316.949219 46.050781 318.824219 51.375 318.675781 54.601562 C 318.523438 57.523438 316.949219 60.375 314.699219 62.699219 C 311.625 65.851562 304.5 68.324219 300.449219 70.125 C 297.601562 71.398438 295.425781 72.976562 292.949219 73.050781 C 290.625 73.125 287.699219 72.375 286.125 70.726562 C 284.25 68.773438 283.425781 64.050781 283.425781 61.125 C 283.425781 58.726562 285.523438 54.601562 285.300781 54.523438 C 285.074219 54.449219 281.773438 60.824219 280.574219 64.351562 C 279.226562 68.101562 280.199219 74.925781 277.800781 76.5 C 275.625 77.925781 269.023438 73.199219 267.601562 74.550781 C 266.25 75.898438 270.824219 82.050781 269.023438 84.148438 C 265.574219 88.199219 242.324219 84.898438 233.476562 84.675781 C 228.226562 84.523438 224.398438 84.824219 220.949219 83.851562 C 218.175781 83.101562 215.925781 80.398438 213.976562 80.25 C 212.699219 80.175781 211.800781 81.300781 210.675781 81.375 C 209.550781 81.449219 208.273438 81.300781 207.226562 80.851562 C 206.175781 80.398438 205.125 79.800781 204.449219 78.824219 C 203.550781 77.625 202.875 75.449219 202.800781 73.949219 C 202.800781 72.75 203.175781 71.625 203.699219 70.648438 C 204.300781 69.601562 205.125 68.625 206.324219 67.800781 C 207.898438 66.675781 209.925781 65.925781 212.550781 65.175781 C 216.824219 63.976562 223.425781 63.375 229.949219 62.851562 C 238.199219 62.175781 253.425781 61.425781 258.300781 62.175781 C 260.023438 62.398438 260.773438 62.699219 261.75 63.300781 C 262.726562 63.898438 263.699219 64.800781 264.226562 65.925781 C 264.898438 67.273438 265.273438 69.675781 265.050781 71.175781 C 264.898438 72.449219 264.375 73.5 263.476562 74.476562 C 262.351562 75.675781 260.550781 76.5 258.300781 77.324219 C 254.625 78.675781 247.648438 79.726562 243.074219 80.398438 C 239.398438 80.925781 237.375 81.148438 233.175781 81.375 C 225.898438 81.824219 212.773438 81.449219 203.175781 82.050781 C 194.25 82.648438 185.023438 83.398438 177.375 84.75 C 171.074219 85.875 166.726562 87.976562 160.351562 89.101562 C 152.398438 90.523438 142.050781 90.300781 133.351562 91.726562 C 125.101562 93.074219 115.648438 95.925781 109.5 97.199219 C 105.675781 97.949219 102.976562 98.625 100.050781 98.851562 C 97.574219 99.074219 95.324219 99.601562 93.148438 98.773438 C 90.601562 97.800781 86.925781 95.101562 86.101562 92.550781 C 85.273438 90.148438 86.023438 86.398438 87.824219 84.148438 C 90.300781 81.074219 97.199219 79.425781 102.074219 77.851562 C 106.800781 76.273438 111.75 75.375 116.476562 74.550781 C 121.050781 73.800781 126.300781 73.800781 130.050781 73.125 C 132.75 72.675781 133.648438 72.375 137.023438 71.476562 C 146.175781 69.148438 176.550781 59.023438 187.726562 57.300781 C 193.050781 56.476562 196.800781 56.398438 199.800781 56.925781 C 201.75 57.226562 203.25 57.675781 204.375 58.648438 C 205.5 59.699219 206.476562 61.574219 206.699219 63 C 206.925781 64.125 206.699219 65.25 206.25 66.300781 C 205.648438 67.574219 204.226562 69.226562 203.023438 69.976562 C 202.050781 70.574219 199.800781 70.726562 199.800781 70.726562 " clip-rule="nonzero"/></clipPath><clipPath id="d3633e4f53"><path d="M 187 57 L 278.832031 57 L 278.832031 96 L 187 96 Z M 187 57 " clip-rule="nonzero"/></clipPath><clipPath id="8e2052d547"><path d="M 271.574219 71.101562 C 250.949219 71.851562 244.425781 73.5 240.300781 74.699219 C 237.523438 75.523438 236.398438 75.898438 233.550781 77.175781 C 228.375 79.574219 218.925781 85.949219 212.324219 88.949219 C 207 91.351562 199.875 96.074219 197.25 94.425781 C 195 93 194.625 85.273438 195.976562 82.574219 C 197.023438 80.398438 200.25 79.574219 202.5 78.601562 C 204.675781 77.625 206.023438 77.476562 209.398438 76.574219 C 218.625 74.023438 256.648438 59.699219 260.925781 63.226562 C 262.5 64.5 259.726562 68.25 260.476562 70.273438 C 261.226562 72.300781 265.875 74.175781 265.425781 75.300781 C 264.824219 76.949219 253.800781 75.523438 249.375 76.273438 C 246.148438 76.800781 244.726562 77.398438 241.273438 78.523438 C 234.75 80.699219 218.324219 88.199219 213.449219 89.175781 C 211.800781 89.550781 211.125 89.550781 210 89.324219 C 208.875 89.101562 207.75 88.5 206.851562 87.824219 C 206.023438 87.148438 205.273438 86.175781 204.824219 85.125 C 204.375 84.074219 204.148438 82.800781 204.226562 81.675781 C 204.300781 80.550781 204.75 79.351562 205.351562 78.449219 C 205.949219 77.476562 207.074219 76.574219 207.824219 76.050781 C 208.351562 75.675781 208.648438 75.449219 209.398438 75.375 C 210.824219 75.226562 214.574219 75.898438 215.925781 76.648438 C 216.75 77.101562 217.050781 77.625 217.5 78.375 C 218.101562 79.5 218.773438 81.449219 218.625 82.875 C 218.476562 84.300781 217.574219 86.101562 216.824219 87.074219 C 216.300781 87.824219 215.773438 88.199219 214.949219 88.574219 C 213.824219 89.101562 211.648438 89.476562 210.449219 89.398438 C 209.550781 89.324219 208.949219 89.175781 208.199219 88.726562 C 207.148438 88.125 205.574219 86.550781 204.976562 85.5 C 204.523438 84.75 204.375 84 204.300781 83.25 C 204.226562 82.5 204.148438 81.75 204.375 80.925781 C 204.675781 79.726562 205.574219 77.851562 206.625 76.875 C 207.75 75.898438 209.699219 75.226562 210.898438 75.074219 C 211.800781 74.925781 212.476562 75.074219 213.226562 75.300781 C 213.976562 75.523438 214.648438 75.675781 215.324219 76.199219 C 216.300781 76.949219 217.648438 78.449219 218.175781 79.800781 C 218.699219 81.148438 218.773438 83.023438 218.324219 84.375 C 217.875 85.800781 216.601562 87.300781 215.625 88.125 C 214.949219 88.726562 214.425781 88.949219 213.523438 89.175781 C 212.324219 89.476562 208.949219 89.023438 208.949219 89.023438 C 208.949219 89.023438 213.449219 89.175781 213.449219 89.175781 C 213.449219 89.175781 209.699219 89.324219 208.351562 88.800781 C 207.226562 88.351562 206.324219 87.601562 205.648438 86.625 C 204.824219 85.425781 204.074219 83.25 204.226562 81.675781 C 204.375 80.101562 204.824219 78.675781 206.476562 77.101562 C 210.75 73.199219 229.574219 67.425781 237.148438 64.949219 C 241.5 63.523438 243.601562 62.773438 247.648438 62.175781 C 252.976562 61.425781 261.898438 60 266.324219 61.5 C 269.324219 62.550781 272.773438 64.800781 272.925781 66.976562 C 273.148438 69.601562 269.101562 73.574219 264.675781 76.273438 C 256.425781 81.375 234.074219 84.300781 222.523438 87.75 C 214.351562 90.148438 207.675781 93.601562 201.824219 94.425781 C 197.625 95.023438 193.199219 95.699219 190.800781 94.050781 C 188.625 92.550781 186.75 88.273438 187.351562 85.875 C 187.949219 83.398438 191.851562 81.300781 194.925781 79.5 C 198.75 77.25 204.449219 76.5 209.023438 74.324219 C 213.824219 72 219.148438 67.875 223.199219 65.851562 C 225.976562 64.425781 227.625 63.75 230.625 62.773438 C 234.824219 61.351562 241.726562 59.476562 246.226562 58.574219 C 249.601562 57.898438 251.851562 57.523438 255.300781 57.300781 C 259.949219 57 268.273438 56.851562 271.574219 57.226562 C 273.074219 57.375 273.824219 57.375 274.800781 57.976562 C 276 58.726562 277.574219 60.226562 278.101562 61.648438 C 278.625 63.074219 278.550781 65.25 278.101562 66.601562 C 277.726562 67.726562 277.125 68.625 276.226562 69.375 C 275.101562 70.273438 271.574219 71.101562 271.574219 71.101562 " clip-rule="nonzero"/></clipPath></defs><g clip-path="url(#71933c8e81)"><g clip-path="url(#a6e3c71e79)"><path fill="#ffefbd" d="M 44.015625 82.226562 L 330.984375 82.226562 L 330.984375 347.027344 L 44.015625 347.027344 Z M 44.015625 82.226562 " fill-opacity="1" fill-rule="nonzero"/></g></g><path stroke-linecap="butt" transform="matrix(0.731079, -0.165187, 0.165295, 0.731558, 36.838695, 74.09675)" fill="none" stroke-linejoin="miter" d="M 0.0000274527 4.000627 L 405.277418 3.996996 " stroke="#ffbd59" stroke-width="8" stroke-opacity="1" stroke-miterlimit="4"/><g clip-path="url(#cf45e38995)"><g clip-path="url(#f4c8cfa81f)"><path fill="#ffbd59" d="M 82.738281 238.480469 L 170.9375 238.480469 L 170.9375 347.027344 L 82.738281 347.027344 Z M 82.738281 238.480469 " fill-opacity="1" fill-rule="nonzero"/></g></g><g clip-path="url(#1ba7978991)"><g clip-path="url(#f5ffdbab6c)"><path fill="#ffffff" d="M 82.738281 109.605469 L 160.691406 109.605469 L 160.691406 189.714844 L 82.738281 189.714844 Z M 82.738281 109.605469 " fill-opacity="1" fill-rule="nonzero"/></g></g><g clip-path="url(#a7d89090cf)"><g clip-path="url(#a748fd74b0)"><path stroke-linecap="butt" transform="matrix(0.750564, 0, 0, 0.751316, 82.739771, 109.60963)" fill="none" stroke-linejoin="miter" d="M 22.996353 -0.000338875 L 80.926769 -0.000338875 C 87.026351 -0.000338875 92.870916 2.422492 97.185381 6.737834 C 101.499847 11.047976 103.919903 16.897085 103.919903 22.995755 L 103.919903 83.805682 C 103.919903 89.904352 101.499847 95.75346 97.185381 100.063603 C 92.870916 104.378945 87.026351 106.801775 80.926769 106.801775 L 22.996353 106.801775 C 16.896772 106.801775 11.047002 104.378945 6.737741 100.063603 C 2.423275 95.75346 -0.00198493 89.904352 -0.00198493 83.805682 L -0.00198493 22.995755 C -0.00198493 16.897085 2.423275 11.047976 6.737741 6.737834 C 11.047002 2.422492 16.896772 -0.000338875 22.996353 -0.000338875 " stroke="#ff914d" stroke-width="4" stroke-opacity="1" stroke-miterlimit="4"/></g></g><g clip-path="url(#4b4bc47a51)"><g clip-path="url(#d8aeef227e)"><path fill="#ffffff" d="M 210.707031 109.605469 L 288.65625 109.605469 L 288.65625 189.714844 L 210.707031 189.714844 Z M 210.707031 109.605469 " fill-opacity="1" fill-rule="nonzero"/></g></g><g clip-path="url(#e9113b82a1)"><g clip-path="url(#13687a39f0)"><path stroke-linecap="butt" transform="matrix(0.750564, 0, 0, 0.751316, 210.7071, 109.60963)" fill="none" stroke-linejoin="miter" d="M 22.998246 -0.000338875 L 80.923457 -0.000338875 C 87.023039 -0.000338875 92.872809 2.422492 97.187274 6.737834 C 101.496535 11.047976 103.921796 16.897085 103.921796 22.995755 L 103.921796 83.805682 C 103.921796 89.904352 101.496535 95.75346 97.187274 100.063603 C 92.872809 104.378945 87.023039 106.801775 80.923457 106.801775 L 22.998246 106.801775 C 16.898664 106.801775 11.048895 104.378945 6.734429 100.063603 C 2.425168 95.75346 -0.000091949 89.904352 -0.000091949 83.805682 L -0.000091949 22.995755 C -0.000091949 16.897085 2.425168 11.047976 6.734429 6.737834 C 11.048895 2.422492 16.898664 -0.000338875 22.998246 -0.000338875 " stroke="#ff914d" stroke-width="4" stroke-opacity="1" stroke-miterlimit="4"/></g></g><g clip-path="url(#a04748a1bd)"><g clip-path="url(#6760ef95c5)"><path fill="#ffffff" d="M 210.707031 238.480469 L 288.65625 238.480469 L 288.65625 318.589844 L 210.707031 318.589844 Z M 210.707031 238.480469 " fill-opacity="1" fill-rule="nonzero"/></g></g><g clip-path="url(#f8e84a2c5b)"><g clip-path="url(#15a7244be0)"><path stroke-linecap="butt" transform="matrix(0.750564, 0, 0, 0.751316, 210.7071, 238.483739)" fill="none" stroke-linejoin="miter" d="M 22.998246 0.000846861 L 80.923457 0.000846861 C 87.023039 0.000846861 92.872809 2.423677 97.187274 6.73382 C 101.496535 11.049162 103.921796 16.89827 103.921796 22.99694 L 103.921796 83.801668 C 103.921796 89.900338 101.496535 95.754646 97.187274 100.064789 C 92.872809 104.380131 87.023039 106.802961 80.923457 106.802961 L 22.998246 106.802961 C 16.898664 106.802961 11.048895 104.380131 6.734429 100.064789 C 2.425168 95.754646 -0.000091949 89.900338 -0.000091949 83.801668 L -0.000091949 22.99694 C -0.000091949 16.89827 2.425168 11.049162 6.734429 6.73382 C 11.048895 2.423677 16.898664 0.000846861 22.998246 0.000846861 " stroke="#ff914d" stroke-width="4" stroke-opacity="1" stroke-miterlimit="4"/></g></g><path stroke-linecap="butt" transform="matrix(0.733089, -0.15965, 0.159592, 0.732824, 44.014235, 86.112681)" fill="none" stroke-linejoin="miter" d="M -0.0000517661 3.998616 L 387.865026 3.999538 " stroke="#ffefbd" stroke-width="8" stroke-opacity="1" stroke-miterlimit="4"/><path stroke-linecap="butt" transform="matrix(0.00349187, -0.750497, 0.749992, 0.00348952, 326.527425, 337.485359)" fill="none" stroke-linejoin="miter" d="M -0.000909633 3.999939 L 417.722381 3.997798 " stroke="#ffefbd" stroke-width="8" stroke-opacity="1" stroke-miterlimit="4"/><g clip-path="url(#14ac05ccd7)"><g clip-path="url(#1dcd01a085)"><path fill="#ffefbd" d="M 201.976562 59.101562 L 281.851562 59.101562 L 281.851562 91.050781 L 201.976562 91.050781 Z M 201.976562 59.101562 " fill-opacity="1" fill-rule="nonzero"/></g></g><g clip-path="url(#7cdb8ca4fc)"><g clip-path="url(#d0b31d196f)"><path fill="#ffefbd" d="M 257.476562 25.800781 L 333.898438 25.800781 L 333.898438 103.199219 L 257.476562 103.199219 Z M 257.476562 25.800781 " fill-opacity="1" fill-rule="nonzero"/></g></g><g clip-path="url(#051226d7f7)"><g clip-path="url(#7f3c248775)"><path fill="#ffefbd" d="M 188.925781 40.199219 L 288.523438 40.199219 L 288.523438 74.699219 L 188.925781 74.699219 Z M 188.925781 40.199219 " fill-opacity="1" fill-rule="nonzero"/></g></g><g clip-path="url(#0623e5d9cc)"><g clip-path="url(#ddde1e23f0)"><path fill="#ffefbd" d="M 83.101562 33.898438 L 321.675781 33.898438 L 321.675781 101.851562 L 83.101562 101.851562 Z M 83.101562 33.898438 " fill-opacity="1" fill-rule="nonzero"/></g></g><g clip-path="url(#d3633e4f53)"><g clip-path="url(#8e2052d547)"><path fill="#ffefbd" d="M 184.351562 54.226562 L 281.101562 54.226562 L 281.101562 97.425781 L 184.351562 97.425781 Z M 184.351562 54.226562 " fill-opacity="1" fill-rule="nonzero"/></g></g></svg>