<svg xmlns="http://www.w3.org/2000/svg" xmlns:xlink="http://www.w3.org/1999/xlink" width="1024" zoomAndPan="magnify" viewBox="0 0 768 767.999994" height="1024" preserveAspectRatio="xMidYMid meet" version="1.0"><path fill="#ffbd59" d="M 418.625 492.496094 C 429.1875 516.941406 415.320312 538.082031 396.832031 546.007812 C 391.546875 548.648438 385.605469 549.972656 379 549.972656 C 364.472656 549.972656 350.605469 542.703125 342.683594 525.527344 C 332.117188 501.085938 345.984375 479.945312 364.472656 472.019531 C 383.625 464.089844 408.058594 468.054688 418.625 492.496094 Z M 425.226562 142.367188 C 373.058594 129.15625 305.703125 144.347656 277.96875 197.859375 C 264.101562 220.980469 266.082031 250.050781 282.589844 269.867188 C 297.777344 288.363281 322.210938 294.3125 345.324219 285.0625 C 360.511719 279.117188 371.738281 267.226562 376.359375 251.371094 C 380.324219 238.15625 379.664062 224.285156 375.039062 211.734375 C 387.585938 208.429688 400.132812 209.089844 407.398438 220.980469 C 418.625 240.140625 410.699219 281.097656 384.945312 301.578125 L 384.285156 302.238281 C 355.230469 331.304688 341.363281 360.371094 342.023438 390.761719 C 341.363281 417.1875 350.605469 437.664062 367.117188 445.59375 C 371.078125 447.574219 375.699219 448.894531 380.324219 448.894531 C 388.246094 448.894531 396.832031 445.59375 404.09375 439.648438 L 405.417969 438.324219 C 415.980469 426.433594 415.980469 409.257812 415.320312 403.972656 C 412.019531 380.191406 432.492188 363.675781 452.300781 347.160156 L 455.601562 344.519531 C 493.242188 316.109375 514.375 278.457031 513.714844 244.101562 C 512.394531 194.558594 479.375 155.578125 425.226562 142.367188 Z M 224.480469 577.71875 C 240.988281 591.589844 238.347656 612.070312 227.78125 624.621094 C 224.480469 628.585938 220.515625 631.226562 216.554688 633.871094 C 205.988281 639.15625 192.78125 638.496094 181.554688 629.246094 C 165.046875 614.710938 167.6875 594.894531 178.253906 582.339844 C 188.820312 569.128906 207.96875 563.183594 224.480469 577.71875 Z M 104.292969 318.753906 C 61.371094 328.003906 17.128906 362.355469 15.804688 411.902344 C 13.824219 433.703125 25.710938 454.179688 44.863281 462.769531 C 62.691406 470.695312 82.503906 466.734375 96.371094 451.539062 C 105.613281 442.289062 109.578125 429.078125 106.933594 415.863281 C 104.953125 404.632812 99.671875 394.726562 91.746094 387.457031 C 99.671875 380.851562 109.578125 376.886719 118.820312 382.832031 C 134.011719 392.742188 142.59375 425.773438 131.367188 449.558594 L 130.707031 450.21875 C 119.480469 481.925781 120.144531 507.691406 131.367188 530.152344 C 139.953125 549.3125 154.480469 561.863281 169.007812 561.863281 C 172.972656 561.863281 176.273438 561.203125 179.574219 559.21875 C 185.519531 556.578125 190.140625 551.292969 193.441406 544.027344 L 194.101562 542.703125 C 198.066406 530.152344 191.460938 517.601562 188.820312 514.296875 C 178.253906 497.78125 186.839844 478.625 195.421875 459.464844 L 196.742188 456.164062 C 213.914062 421.8125 216.554688 386.796875 203.347656 362.355469 C 186.839844 326.019531 148.539062 308.84375 104.292969 318.753906 Z M 600.222656 599.519531 C 600.222656 621.320312 583.710938 632.550781 567.203125 632.550781 C 562.582031 632.550781 557.296875 631.886719 552.675781 629.90625 C 542.109375 625.28125 533.523438 615.371094 532.863281 600.179688 C 532.863281 578.378906 549.375 567.148438 565.882812 567.148438 C 582.390625 567.148438 599.5625 577.71875 600.222656 599.519531 Z M 714.460938 337.910156 C 679.464844 312.148438 623.992188 302.238281 586.355469 333.289062 C 568.523438 346.5 561.261719 368.300781 567.203125 388.78125 C 573.144531 407.277344 588.996094 419.167969 609.464844 419.828125 C 622.671875 420.488281 634.558594 414.542969 643.144531 404.632812 C 650.40625 396.046875 654.371094 385.476562 654.371094 374.246094 C 664.9375 375.566406 674.179688 380.191406 675.5 391.421875 C 678.144531 409.257812 658.992188 437.664062 633.898438 444.933594 L 633.238281 444.933594 C 602.203125 457.484375 583.050781 475.320312 573.808594 498.441406 C 565.222656 517.601562 565.882812 536.757812 575.128906 547.988281 C 577.769531 550.632812 580.410156 553.273438 584.371094 554.59375 C 590.316406 557.238281 597.578125 557.238281 605.503906 555.257812 L 606.824219 554.59375 C 618.710938 549.3125 623.332031 536.097656 624.652344 532.132812 C 629.9375 513.636719 650.40625 507.03125 670.21875 501.085938 L 673.519531 500.425781 C 710.5 490.515625 738.234375 469.375 748.800781 442.949219 C 763.328125 404.632812 750.78125 364.996094 714.460938 337.910156 Z M 714.460938 337.910156 " fill-opacity="1" fill-rule="nonzero"/><path fill="#ff914d" d="M 396.832031 546.007812 C 391.546875 548.648438 385.605469 549.972656 379 549.972656 C 367.777344 549.972656 356.550781 545.347656 348.625 535.4375 C 355.890625 540.722656 363.8125 543.363281 372.398438 543.363281 C 378.339844 543.363281 384.285156 542.042969 390.226562 539.402344 C 408.71875 531.472656 421.925781 510.332031 412.019531 485.890625 C 410.699219 481.925781 408.71875 479.285156 406.078125 475.980469 C 411.359375 479.945312 415.320312 485.230469 418.625 492.496094 C 429.1875 516.941406 415.980469 538.078125 396.832031 546.007812 Z M 376.359375 251.371094 C 380.324219 238.15625 379.664062 224.285156 375.039062 211.734375 C 384.285156 209.75 393.53125 209.089844 400.132812 213.714844 C 393.53125 202.484375 380.324219 202.484375 368.4375 205.125 C 373.058594 217.679688 373.71875 232.210938 369.757812 244.765625 C 365.132812 260.617188 353.910156 272.511719 338.71875 278.457031 C 318.910156 286.382812 297.777344 283.078125 282.589844 269.867188 C 297.777344 288.363281 321.550781 293.648438 345.324219 285.0625 C 359.851562 279.117188 371.078125 267.226562 376.359375 251.371094 Z M 480.035156 170.773438 C 496.546875 188.609375 505.789062 212.394531 505.789062 238.15625 C 507.109375 272.511719 485.320312 310.164062 447.679688 338.574219 L 444.378906 341.214844 C 424.566406 357.730469 404.753906 374.246094 407.398438 398.027344 C 408.058594 403.3125 408.71875 420.488281 397.492188 432.378906 L 396.171875 433.703125 C 388.90625 439.648438 380.324219 442.949219 372.398438 442.949219 C 367.777344 442.949219 363.152344 441.628906 359.191406 439.648438 C 357.210938 438.988281 355.230469 437.664062 353.910156 436.34375 C 357.210938 440.308594 361.171875 444.273438 365.792969 446.253906 C 369.757812 448.234375 374.378906 449.558594 379.003906 449.558594 C 386.925781 449.558594 395.511719 446.253906 402.773438 440.308594 L 404.09375 438.988281 C 414.660156 427.09375 414.660156 409.917969 414 404.632812 C 410.699219 380.851562 431.171875 364.335938 450.980469 347.820312 L 454.28125 345.179688 C 491.921875 316.773438 513.054688 279.117188 512.394531 244.765625 C 512.394531 215.035156 500.507812 189.273438 480.035156 170.773438 Z M 227.78125 623.960938 C 224.480469 627.925781 220.515625 630.566406 216.554688 633.210938 C 208.628906 637.171875 198.726562 637.832031 188.820312 633.210938 C 196.082031 634.53125 202.6875 633.871094 209.289062 630.566406 C 213.914062 628.585938 217.875 625.28125 220.515625 621.320312 C 231.082031 608.765625 233.722656 588.949219 217.214844 574.414062 C 214.574219 572.433594 211.933594 570.449219 209.289062 569.128906 C 214.574219 570.449219 219.195312 572.433594 224.480469 576.394531 C 240.988281 591.589844 238.347656 611.410156 227.78125 623.960938 Z M 106.933594 415.863281 C 104.953125 404.632812 99.671875 394.726562 91.746094 387.457031 C 97.691406 382.832031 104.292969 378.871094 110.898438 379.53125 C 101.652344 374.246094 92.40625 378.210938 84.484375 384.816406 C 92.40625 392.082031 98.351562 402.652344 99.671875 413.222656 C 101.652344 426.433594 97.691406 438.988281 89.105469 448.894531 C 77.21875 461.449219 60.710938 466.734375 45.523438 462.769531 C 63.351562 470.695312 83.164062 466.074219 96.371094 451.539062 C 104.953125 442.289062 108.917969 429.078125 106.933594 415.863281 Z M 154.480469 319.414062 C 172.972656 326.679688 188.160156 340.554688 197.402344 359.710938 C 210.609375 384.15625 207.96875 419.828125 190.800781 453.519531 L 189.480469 456.824219 C 180.894531 475.980469 172.3125 495.140625 182.875 511.65625 C 184.859375 515.617188 191.460938 527.511719 188.160156 540.0625 L 187.5 541.382812 C 184.195312 548.648438 179.574219 553.933594 173.632812 556.578125 C 170.328125 557.898438 166.367188 559.21875 163.066406 559.21875 C 161.085938 559.21875 159.765625 559.21875 157.78125 558.558594 C 161.746094 560.542969 165.707031 561.863281 170.328125 561.863281 C 174.292969 561.863281 177.59375 561.203125 180.894531 559.21875 C 186.839844 556.578125 191.460938 551.292969 194.761719 544.027344 L 195.421875 542.703125 C 199.386719 530.152344 192.78125 517.601562 190.140625 514.296875 C 179.574219 497.78125 188.160156 478.625 196.742188 459.464844 L 198.066406 456.164062 C 215.234375 421.8125 217.875 386.796875 204.667969 362.355469 C 194.101562 340.554688 176.273438 326.019531 154.480469 319.414062 Z M 567.203125 632.550781 C 562.582031 632.550781 557.296875 631.886719 552.675781 629.90625 C 544.089844 626.601562 537.488281 619.335938 534.183594 609.425781 C 537.488281 616.035156 543.429688 619.996094 549.375 622.640625 C 553.996094 624.621094 558.617188 625.28125 563.902344 625.28125 C 580.410156 625.28125 596.917969 613.390625 596.917969 592.25 C 596.917969 588.949219 596.257812 586.304688 595.597656 583.003906 C 598.238281 587.625 599.5625 592.910156 599.5625 598.855469 C 600.222656 620.65625 583.710938 632.550781 567.203125 632.550781 Z M 643.144531 404.632812 C 650.40625 396.046875 654.371094 385.476562 654.371094 374.246094 C 661.632812 375.566406 668.898438 378.210938 672.859375 383.496094 C 670.878906 372.925781 661.632812 368.960938 651.730469 366.980469 C 651.730469 378.210938 647.765625 388.78125 640.503906 397.367188 C 631.917969 407.9375 620.03125 413.222656 606.824219 412.5625 C 588.996094 411.902344 575.128906 403.3125 567.203125 388.78125 C 573.144531 407.277344 588.996094 419.167969 609.464844 419.828125 C 622.671875 420.488281 634.558594 415.203125 643.144531 404.632812 Z M 746.820312 376.226562 C 753.421875 394.726562 753.421875 415.203125 744.839844 435.023438 C 734.933594 461.449219 707.199219 482.585938 669.558594 492.496094 L 666.257812 493.15625 C 646.445312 499.101562 625.976562 505.710938 620.691406 524.207031 C 619.371094 528.171875 614.75 541.382812 602.863281 546.667969 L 602.203125 547.328125 C 594.277344 549.3125 587.675781 549.3125 581.070312 546.667969 C 577.769531 545.347656 574.46875 543.363281 571.824219 540.0625 C 570.503906 538.742188 569.84375 537.417969 568.523438 536.097656 C 569.84375 540.0625 571.824219 544.027344 574.46875 547.328125 C 577.109375 549.972656 579.75 552.613281 583.710938 553.933594 C 589.65625 556.578125 596.917969 556.578125 604.84375 554.59375 L 606.164062 553.933594 C 618.050781 548.648438 622.671875 535.4375 623.992188 531.472656 C 629.277344 512.976562 649.746094 506.371094 669.558594 500.425781 L 672.859375 499.765625 C 709.839844 489.855469 737.574219 468.714844 748.140625 442.289062 C 757.386719 419.828125 756.726562 396.707031 746.820312 376.226562 Z M 746.820312 376.226562 " fill-opacity="1" fill-rule="nonzero"/></svg>