<svg xmlns="http://www.w3.org/2000/svg" xmlns:xlink="http://www.w3.org/1999/xlink" width="500" zoomAndPan="magnify" viewBox="0 0 375 374.999991" height="500" preserveAspectRatio="xMidYMid meet" version="1.0"><defs><clipPath id="a0b52d0fd7"><path d="M 44.015625 82.226562 L 330.984375 82.226562 L 330.984375 347.027344 L 44.015625 347.027344 Z M 44.015625 82.226562 " clip-rule="nonzero"/></clipPath><clipPath id="46a8255dee"><path d="M 61.265625 82.226562 L 313.734375 82.226562 C 318.3125 82.226562 322.699219 84.042969 325.933594 87.277344 C 329.167969 90.511719 330.984375 94.902344 330.984375 99.476562 L 330.984375 329.777344 C 330.984375 334.355469 329.167969 338.742188 325.933594 341.976562 C 322.699219 345.210938 318.3125 347.027344 313.734375 347.027344 L 61.265625 347.027344 C 56.6875 347.027344 52.300781 345.210938 49.066406 341.976562 C 45.832031 338.742188 44.015625 334.355469 44.015625 329.777344 L 44.015625 99.476562 C 44.015625 94.902344 45.832031 90.511719 49.066406 87.277344 C 52.300781 84.042969 56.6875 82.226562 61.265625 82.226562 " clip-rule="nonzero"/></clipPath><clipPath id="9cbb924f22"><path d="M 82.738281 238.480469 L 170.9375 238.480469 L 170.9375 347.027344 L 82.738281 347.027344 Z M 82.738281 238.480469 " clip-rule="nonzero"/></clipPath><clipPath id="e7cefb8d5b"><path d="M 112.15625 241.027344 C 116.660156 239.488281 121.816406 238.480469 126.863281 238.480469 C 131.90625 238.480469 136.761719 239.34375 141.234375 240.882812 C 141.332031 240.929688 141.425781 240.929688 141.523438 240.976562 C 158.324219 247.128906 170.699219 263.371094 170.9375 282.351562 L 170.9375 347.027344 L 82.738281 347.027344 L 82.738281 282.398438 C 82.976562 263.273438 95.164062 247.03125 112.15625 241.027344 " clip-rule="nonzero"/></clipPath><clipPath id="53257729a6"><path d="M 82.738281 109.605469 L 160.691406 109.605469 L 160.691406 189.714844 L 82.738281 189.714844 Z M 82.738281 109.605469 " clip-rule="nonzero"/></clipPath><clipPath id="a57295646a"><path d="M 99.988281 109.605469 L 143.441406 109.605469 C 148.015625 109.605469 152.402344 111.421875 155.636719 114.65625 C 158.875 117.890625 160.691406 122.28125 160.691406 126.855469 L 160.691406 172.464844 C 160.691406 177.039062 158.875 181.429688 155.636719 184.664062 C 152.402344 187.898438 148.015625 189.714844 143.441406 189.714844 L 99.988281 189.714844 C 95.414062 189.714844 91.027344 187.898438 87.792969 184.664062 C 84.558594 181.429688 82.738281 177.039062 82.738281 172.464844 L 82.738281 126.855469 C 82.738281 122.28125 84.558594 117.890625 87.792969 114.65625 C 91.027344 111.421875 95.414062 109.605469 99.988281 109.605469 " clip-rule="nonzero"/></clipPath><clipPath id="b97c505570"><path d="M 82.738281 109.609375 L 160.738281 109.609375 L 160.738281 189.855469 L 82.738281 189.855469 Z M 82.738281 109.609375 " clip-rule="nonzero"/></clipPath><clipPath id="f5d90ccf58"><path d="M 100 109.609375 L 143.480469 109.609375 C 148.058594 109.609375 152.445312 111.429688 155.683594 114.671875 C 158.921875 117.910156 160.738281 122.304688 160.738281 126.886719 L 160.738281 172.574219 C 160.738281 177.15625 158.921875 181.550781 155.683594 184.789062 C 152.445312 188.03125 148.058594 189.851562 143.480469 189.851562 L 100 189.851562 C 95.421875 189.851562 91.03125 188.03125 87.796875 184.789062 C 84.558594 181.550781 82.738281 177.15625 82.738281 172.574219 L 82.738281 126.886719 C 82.738281 122.304688 84.558594 117.910156 87.796875 114.671875 C 91.03125 111.429688 95.421875 109.609375 100 109.609375 " clip-rule="nonzero"/></clipPath><clipPath id="8562796aaf"><path d="M 210.707031 109.605469 L 288.65625 109.605469 L 288.65625 189.714844 L 210.707031 189.714844 Z M 210.707031 109.605469 " clip-rule="nonzero"/></clipPath><clipPath id="afb34a5894"><path d="M 227.957031 109.605469 L 271.40625 109.605469 C 275.984375 109.605469 280.371094 111.421875 283.605469 114.65625 C 286.839844 117.890625 288.65625 122.28125 288.65625 126.855469 L 288.65625 172.464844 C 288.65625 177.039062 286.839844 181.429688 283.605469 184.664062 C 280.371094 187.898438 275.984375 189.714844 271.40625 189.714844 L 227.957031 189.714844 C 223.382812 189.714844 218.996094 187.898438 215.757812 184.664062 C 212.523438 181.429688 210.707031 177.039062 210.707031 172.464844 L 210.707031 126.855469 C 210.707031 122.28125 212.523438 117.890625 215.757812 114.65625 C 218.996094 111.421875 223.382812 109.605469 227.957031 109.605469 " clip-rule="nonzero"/></clipPath><clipPath id="44a85ed0e0"><path d="M 210.707031 109.609375 L 288.707031 109.609375 L 288.707031 189.855469 L 210.707031 189.855469 Z M 210.707031 109.609375 " clip-rule="nonzero"/></clipPath><clipPath id="85ccd16297"><path d="M 227.96875 109.609375 L 271.445312 109.609375 C 276.023438 109.609375 280.414062 111.429688 283.652344 114.671875 C 286.886719 117.910156 288.707031 122.304688 288.707031 126.886719 L 288.707031 172.574219 C 288.707031 177.15625 286.886719 181.550781 283.652344 184.789062 C 280.414062 188.03125 276.023438 189.851562 271.445312 189.851562 L 227.96875 189.851562 C 223.390625 189.851562 219 188.03125 215.761719 184.789062 C 212.527344 181.550781 210.707031 177.15625 210.707031 172.574219 L 210.707031 126.886719 C 210.707031 122.304688 212.527344 117.910156 215.761719 114.671875 C 219 111.429688 223.390625 109.609375 227.96875 109.609375 " clip-rule="nonzero"/></clipPath><clipPath id="346b92a793"><path d="M 210.707031 238.480469 L 288.65625 238.480469 L 288.65625 318.589844 L 210.707031 318.589844 Z M 210.707031 238.480469 " clip-rule="nonzero"/></clipPath><clipPath id="ab722370d6"><path d="M 227.957031 238.480469 L 271.40625 238.480469 C 275.984375 238.480469 280.371094 240.296875 283.605469 243.53125 C 286.839844 246.765625 288.65625 251.15625 288.65625 255.730469 L 288.65625 301.339844 C 288.65625 305.914062 286.839844 310.300781 283.605469 313.539062 C 280.371094 316.773438 275.984375 318.589844 271.40625 318.589844 L 227.957031 318.589844 C 223.382812 318.589844 218.996094 316.773438 215.757812 313.539062 C 212.523438 310.300781 210.707031 305.914062 210.707031 301.339844 L 210.707031 255.730469 C 210.707031 251.15625 212.523438 246.765625 215.757812 243.53125 C 218.996094 240.296875 223.382812 238.480469 227.957031 238.480469 " clip-rule="nonzero"/></clipPath><clipPath id="dbb3b88ee2"><path d="M 210.707031 238.484375 L 288.707031 238.484375 L 288.707031 318.730469 L 210.707031 318.730469 Z M 210.707031 238.484375 " clip-rule="nonzero"/></clipPath><clipPath id="591dafe5c6"><path d="M 227.96875 238.484375 L 271.445312 238.484375 C 276.023438 238.484375 280.414062 240.304688 283.652344 243.542969 C 286.886719 246.785156 288.707031 251.179688 288.707031 255.761719 L 288.707031 301.445312 C 288.707031 306.027344 286.886719 310.425781 283.652344 313.664062 C 280.414062 316.90625 276.023438 318.726562 271.445312 318.726562 L 227.96875 318.726562 C 223.390625 318.726562 219 316.90625 215.761719 313.664062 C 212.527344 310.425781 210.707031 306.027344 210.707031 301.445312 L 210.707031 255.761719 C 210.707031 251.179688 212.527344 246.785156 215.761719 243.542969 C 219 240.304688 223.390625 238.484375 227.96875 238.484375 " clip-rule="nonzero"/></clipPath><clipPath id="2049093163"><path d="M 148 40.46875 L 310.574219 40.46875 L 310.574219 92 L 148 92 Z M 148 40.46875 " clip-rule="nonzero"/></clipPath><clipPath id="8f98747961"><path d="M 163.875 70.800781 C 153.300781 70.199219 151.875 69.074219 151.050781 68.023438 C 150.375 67.125 150.074219 66.074219 149.925781 65.101562 C 149.773438 64.050781 149.925781 62.925781 150.300781 61.949219 C 150.675781 60.976562 151.425781 60 152.175781 59.324219 C 152.925781 58.648438 153.375 58.199219 154.949219 57.824219 C 160.425781 56.398438 182.175781 57.898438 194.625 57.074219 C 205.800781 56.324219 220.875 52.351562 226.273438 53.476562 C 228.300781 53.925781 229.351562 54.601562 230.25 55.726562 C 231.148438 56.851562 231.824219 58.648438 231.75 60.074219 C 231.675781 61.5 230.851562 63.300781 230.023438 64.273438 C 229.351562 65.101562 228.976562 65.25 227.398438 65.925781 C 220.125 69 170.476562 80.925781 161.324219 81.824219 C 159 82.050781 158.023438 82.125 156.824219 81.675781 C 155.851562 81.300781 155.023438 80.625 154.425781 79.875 C 153.824219 79.125 153.300781 78.074219 153.074219 77.101562 C 152.851562 76.125 152.925781 75.074219 153.148438 74.101562 C 153.375 73.125 153.976562 72.148438 154.648438 71.398438 C 155.324219 70.648438 156.074219 70.125 157.273438 69.75 C 159.523438 69.074219 163.125 69.523438 167.699219 69.449219 C 176.25 69.375 195.824219 69.898438 204.601562 69.675781 C 209.476562 69.523438 213.523438 68.476562 216 68.925781 C 217.273438 69.148438 218.023438 69.449219 218.851562 70.199219 C 219.824219 71.101562 220.949219 72.75 221.25 74.175781 C 221.550781 75.601562 221.175781 77.550781 220.425781 78.75 C 219.675781 80.023438 218.699219 80.925781 216.75 81.601562 C 212.25 83.175781 200.101562 81.601562 192 82.273438 C 184.199219 82.875 173.476562 86.398438 169.125 85.351562 C 167.175781 84.824219 166.050781 83.851562 165.226562 82.574219 C 164.398438 81.375 163.949219 79.425781 164.175781 77.925781 C 164.398438 76.425781 165.449219 74.699219 166.425781 73.726562 C 167.25 72.898438 167.625 72.601562 169.351562 72.226562 C 176.773438 70.425781 229.125 66.601562 233.476562 72.148438 C 235.125 74.175781 233.324219 79.273438 231.375 80.625 C 228.976562 82.273438 221.625 79.875 218.550781 78.898438 C 216.675781 78.300781 215.25 77.550781 214.273438 76.574219 C 213.449219 75.75 213 74.773438 212.773438 73.648438 C 212.550781 72.300781 212.851562 70.050781 213.449219 68.773438 C 213.898438 67.726562 214.648438 66.976562 215.625 66.375 C 216.824219 65.625 217.949219 65.476562 220.425781 65.25 C 227.925781 64.648438 260.101562 66.074219 267.074219 68.625 C 269.324219 69.449219 270.300781 70.425781 271.125 71.550781 C 271.800781 72.523438 272.25 73.574219 272.25 74.773438 C 272.324219 76.199219 271.800781 78.300781 270.898438 79.574219 C 270 80.851562 268.574219 81.824219 266.699219 82.351562 C 263.773438 83.101562 259.351562 81.976562 254.25 81.449219 C 246 80.550781 227.398438 79.351562 222.148438 76.949219 C 220.125 76.050781 219.226562 75.148438 218.476562 73.800781 C 217.726562 72.523438 217.5 70.5 217.800781 69.074219 C 218.101562 67.648438 219.226562 66 220.425781 65.101562 C 221.625 64.199219 222.824219 63.976562 225.074219 63.824219 C 230.625 63.523438 245.550781 67.574219 254.699219 68.773438 C 262.574219 69.75 269.324219 69.675781 276.675781 70.726562 C 284.175781 71.773438 293.925781 73.574219 299.324219 75 C 302.398438 75.824219 304.648438 76.425781 306.375 77.476562 C 307.574219 78.226562 308.324219 79.050781 309 80.023438 C 309.601562 81 310.199219 82.199219 310.199219 83.476562 C 310.199219 85.050781 309.675781 87.375 308.625 88.726562 C 307.574219 90.074219 305.550781 91.273438 304.050781 91.648438 C 302.773438 91.949219 302.175781 91.800781 300.375 91.425781 C 294.226562 90.148438 271.199219 79.726562 261.148438 77.699219 C 255.148438 76.5 251.25 77.476562 246.375 76.726562 C 241.574219 75.976562 236.25 74.925781 232.125 73.351562 C 228.675781 72.074219 225 70.5 222.976562 68.550781 C 221.476562 67.125 220.5 65.25 220.125 63.675781 C 219.824219 62.398438 220.050781 61.050781 220.425781 59.925781 C 220.800781 58.726562 221.550781 57.601562 222.449219 56.699219 C 223.351562 55.875 224.476562 55.125 225.675781 54.75 C 226.875 54.375 227.699219 54.300781 229.5 54.523438 C 234 55.125 248.398438 60.074219 252.449219 62.101562 C 254.101562 62.925781 254.773438 63.375 255.601562 64.351562 C 256.425781 65.324219 257.023438 66.601562 257.25 67.800781 C 257.476562 69 257.476562 70.351562 257.175781 71.550781 C 256.875 72.75 256.125 74.023438 255.300781 74.925781 C 254.476562 75.824219 253.273438 76.648438 252.074219 77.023438 C 250.949219 77.398438 249.898438 77.625 248.324219 77.398438 C 245.101562 76.875 239.324219 72.976562 234.601562 71.25 C 229.875 69.523438 225 68.101562 220.125 67.125 C 215.25 66.148438 209.25 66.226562 205.273438 65.550781 C 202.574219 65.101562 201.074219 64.949219 198.523438 63.976562 C 194.925781 62.625 188.925781 59.625 186 57.226562 C 183.976562 55.574219 182.550781 53.773438 181.800781 52.050781 C 181.199219 50.773438 181.125 49.5 181.199219 48.226562 C 181.273438 46.949219 181.800781 45.601562 182.476562 44.550781 C 183.148438 43.5 184.199219 42.449219 185.25 41.851562 C 186.375 41.25 187.726562 40.875 189 40.800781 C 190.273438 40.726562 191.699219 41.101562 192.824219 41.625 C 193.949219 42.148438 194.25 43.273438 195.824219 44.101562 C 199.5 45.976562 212.550781 47.625 216 49.726562 C 217.5 50.625 218.023438 51.449219 218.625 52.574219 C 219.226562 53.699219 219.601562 55.050781 219.675781 56.324219 C 219.75 57.601562 219.375 59.023438 218.851562 60.148438 C 218.324219 61.273438 217.5 62.398438 216.375 63.148438 C 215.023438 64.050781 212.773438 64.726562 210.824219 64.648438 C 208.574219 64.574219 206.851562 63.074219 203.773438 62.25 C 198.449219 60.75 186.824219 57.601562 181.273438 57.523438 C 177.976562 57.449219 175.949219 58.199219 173.398438 58.949219 C 170.851562 59.699219 168.523438 61.050781 165.898438 61.875 C 163.050781 62.699219 159.300781 63.824219 156.898438 63.824219 C 155.324219 63.824219 154.199219 63.601562 153.074219 63.074219 C 151.949219 62.550781 150.824219 61.648438 150 60.675781 C 149.25 59.699219 148.574219 58.351562 148.351562 57.148438 C 148.125 55.875 148.125 54.523438 148.574219 53.25 C 149.175781 51.675781 150.824219 49.648438 152.175781 48.675781 C 153.300781 47.925781 154.5 47.324219 155.925781 47.476562 C 158.101562 47.699219 162.523438 50.550781 163.726562 52.050781 C 164.398438 52.875 164.398438 53.550781 164.476562 54.523438 C 164.550781 55.949219 164.101562 58.425781 163.5 59.699219 C 163.050781 60.601562 162.675781 61.125 161.851562 61.726562 C 160.726562 62.550781 158.699219 63.675781 157.050781 63.824219 C 155.398438 63.976562 153.226562 63.226562 151.949219 62.550781 C 151.050781 62.101562 150.523438 61.574219 150 60.75 C 149.25 59.550781 148.273438 57.523438 148.199219 55.875 C 148.125 54.226562 149.023438 52.050781 149.773438 50.851562 C 150.300781 50.023438 150.824219 49.5 151.648438 48.976562 C 152.851562 48.226562 155.023438 47.398438 156.675781 47.476562 C 158.324219 47.550781 160.425781 48.523438 161.550781 49.273438 C 162.375 49.800781 162.824219 50.324219 163.273438 51.226562 C 163.949219 52.5 164.550781 54.898438 164.550781 56.324219 C 164.550781 57.300781 164.324219 57.976562 163.875 58.875 C 163.199219 60.148438 161.550781 62.023438 160.425781 62.773438 C 159.601562 63.300781 158.925781 63.601562 157.949219 63.675781 C 156.523438 63.824219 154.125 63.449219 152.773438 62.925781 C 151.875 62.550781 150.523438 61.574219 150.601562 61.425781 C 150.675781 61.273438 156.898438 63.75 156.898438 63.824219 C 156.898438 63.898438 152.699219 63.074219 151.351562 62.101562 C 150.226562 61.351562 149.398438 60.300781 148.949219 59.023438 C 148.351562 57.449219 148.199219 54.898438 148.574219 53.25 C 148.875 51.898438 149.699219 50.773438 150.601562 49.875 C 151.5 48.976562 152.324219 48.601562 153.976562 47.851562 C 158.023438 46.050781 170.773438 41.925781 176.101562 41.023438 C 179.023438 40.574219 180.074219 40.574219 183 40.875 C 188.398438 41.398438 199.800781 44.175781 205.875 45.976562 C 210 47.175781 213.824219 48.300781 216 49.726562 C 217.273438 50.625 218.023438 51.449219 218.625 52.574219 C 219.226562 53.699219 219.601562 55.050781 219.675781 56.324219 C 219.75 57.601562 219.375 59.023438 218.851562 60.148438 C 218.324219 61.273438 217.425781 62.398438 216.375 63.148438 C 215.398438 63.898438 214.273438 64.351562 212.773438 64.574219 C 210.675781 64.875 207.824219 64.5 204.824219 63.824219 C 200.550781 62.851562 193.648438 60.300781 189.675781 58.273438 C 186.824219 56.851562 184.199219 55.574219 182.773438 53.699219 C 181.648438 52.125 181.125 49.875 181.199219 48.226562 C 181.199219 46.875 181.800781 45.601562 182.476562 44.550781 C 183.148438 43.5 184.050781 42.449219 185.25 41.851562 C 186.75 41.101562 188.925781 40.5 190.949219 40.949219 C 193.875 41.550781 197.550781 45.675781 200.550781 47.175781 C 202.875 48.375 204.523438 49.050781 207.226562 49.726562 C 211.125 50.625 217.125 50.324219 222 51.226562 C 226.949219 52.125 231.675781 53.25 236.699219 55.050781 C 242.324219 57.074219 251.101562 60.675781 254.175781 63 C 255.523438 64.050781 256.125 64.800781 256.648438 65.925781 C 257.175781 67.050781 257.625 68.324219 257.476562 69.675781 C 257.324219 71.324219 256.351562 73.648438 255.300781 74.925781 C 254.476562 75.976562 253.425781 76.648438 252.074219 77.023438 C 250.273438 77.550781 247.949219 77.25 245.25 76.726562 C 241.199219 75.976562 234.300781 73.273438 230.25 71.699219 C 227.398438 70.574219 224.699219 70.050781 222.976562 68.550781 C 221.550781 67.273438 220.5 65.25 220.125 63.675781 C 219.824219 62.398438 220.050781 61.050781 220.425781 59.925781 C 220.800781 58.726562 221.550781 57.601562 222.449219 56.699219 C 223.351562 55.875 224.476562 55.125 225.675781 54.75 C 226.875 54.375 228 54.226562 229.5 54.523438 C 231.898438 54.976562 234.300781 57.449219 238.199219 58.726562 C 245.101562 60.976562 257.925781 61.273438 268.351562 63.976562 C 279.976562 67.050781 299.175781 74.175781 304.648438 76.726562 C 306.375 77.550781 306.976562 77.773438 307.875 78.601562 C 308.699219 79.425781 309.449219 80.550781 309.824219 81.675781 C 310.199219 82.800781 310.273438 84.148438 310.050781 85.351562 C 309.824219 86.550781 309.300781 87.75 308.625 88.726562 C 307.875 89.699219 306.824219 90.523438 305.773438 91.050781 C 304.726562 91.574219 303.976562 91.726562 302.175781 91.726562 C 296.550781 91.648438 277.125 85.425781 267.898438 83.925781 C 261.75 82.949219 258.300781 83.324219 252.300781 82.5 C 243.898438 81.375 227.25 79.351562 222.148438 76.949219 C 220.125 75.976562 219.226562 75.148438 218.476562 73.800781 C 217.726562 72.523438 217.5 70.5 217.800781 69.074219 C 218.101562 67.648438 219.226562 66 220.425781 65.101562 C 221.625 64.199219 222.75 63.976562 225.074219 63.824219 C 232.199219 63.300781 263.175781 66.75 268.648438 69.300781 C 270.148438 69.976562 270.523438 70.5 271.125 71.550781 C 271.875 72.824219 272.398438 74.925781 272.175781 76.5 C 271.949219 78.074219 270.824219 79.875 269.773438 80.851562 C 268.949219 81.675781 268.425781 82.050781 266.699219 82.351562 C 260.175781 83.625 223.875 81.523438 216.976562 78.523438 C 214.800781 77.625 214.050781 76.574219 213.375 75.226562 C 212.699219 73.875 212.476562 71.851562 212.851562 70.351562 C 213.226562 68.851562 214.351562 67.199219 215.625 66.375 C 216.898438 65.550781 218.398438 65.25 220.425781 65.25 C 223.800781 65.25 230.398438 66.75 234.226562 68.398438 C 237.375 69.75 241.199219 71.175781 242.25 73.648438 C 243.300781 76.125 242.175781 81.375 240.449219 83.175781 C 238.949219 84.75 236.925781 84.449219 233.550781 84.898438 C 224.476562 86.101562 194.023438 85.726562 182.925781 85.726562 C 177.523438 85.726562 173.476562 85.949219 170.773438 85.574219 C 169.351562 85.351562 168.601562 85.351562 167.625 84.75 C 166.425781 84 165 82.425781 164.476562 81.148438 C 164.023438 80.101562 164.023438 78.976562 164.175781 77.925781 C 164.324219 76.875 164.773438 75.75 165.375 74.925781 C 165.976562 74.101562 166.425781 73.425781 167.773438 72.824219 C 171.449219 71.101562 184.199219 69.824219 191.324219 69.148438 C 197.175781 68.625 203.023438 68.625 207.523438 68.625 C 210.824219 68.625 213.75 68.25 216 68.925781 C 217.648438 69.449219 219.074219 70.351562 219.976562 71.324219 C 220.726562 72.148438 221.101562 73.199219 221.25 74.175781 C 221.398438 75.148438 221.324219 76.273438 221.023438 77.25 C 220.726562 78.226562 220.125 79.199219 219.449219 79.949219 C 218.699219 80.699219 218.25 81.148438 216.75 81.601562 C 211.351562 83.175781 188.25 82.425781 177.226562 82.351562 C 169.273438 82.273438 160.574219 83.25 156.824219 81.675781 C 155.101562 80.925781 154.199219 79.726562 153.601562 78.601562 C 153.074219 77.699219 152.851562 76.648438 152.925781 75.601562 C 153 74.324219 153.824219 72.375 154.648438 71.398438 C 155.324219 70.574219 155.851562 70.273438 157.199219 69.75 C 161.023438 68.175781 172.351562 67.199219 180.976562 65.101562 C 191.476562 62.550781 207.300781 57.148438 215.550781 55.273438 C 220.125 54.226562 223.648438 53.023438 226.273438 53.476562 C 228 53.773438 229.351562 54.601562 230.25 55.726562 C 231.148438 56.851562 231.824219 58.648438 231.75 60.074219 C 231.675781 61.5 230.851562 63.300781 230.023438 64.273438 C 229.351562 65.101562 228.898438 65.398438 227.398438 65.925781 C 221.773438 67.875 196.648438 69.449219 183.824219 70.273438 C 173.699219 70.875 161.101562 71.476562 156.523438 70.949219 C 154.949219 70.800781 154.351562 70.574219 153.449219 70.125 C 152.550781 69.601562 151.648438 69 151.050781 68.023438 C 150.375 66.898438 149.851562 64.800781 149.925781 63.449219 C 150 62.324219 150.375 61.425781 151.050781 60.523438 C 151.875 59.476562 153.226562 58.351562 154.949219 57.824219 C 157.5 57.074219 162.824219 57.148438 165.375 57.976562 C 167.101562 58.5 168.375 59.550781 169.199219 60.601562 C 169.875 61.425781 170.175781 62.476562 170.25 63.523438 C 170.324219 64.875 169.875 66.824219 169.199219 67.949219 C 168.675781 68.925781 167.773438 69.601562 166.875 70.050781 C 165.976562 70.5 163.800781 70.800781 163.800781 70.800781 " clip-rule="nonzero"/></clipPath><clipPath id="e04ddff002"><path d="M 60.308594 42.011719 L 199.824219 42.011719 L 199.824219 96 L 60.308594 96 Z M 60.308594 42.011719 " clip-rule="nonzero"/></clipPath><clipPath id="9fb40d63f7"><path d="M 158.023438 62.324219 C 130.050781 73.125 126.226562 73.800781 121.199219 75.75 C 115.125 78.074219 108.601562 81.976562 101.398438 84.523438 C 93.226562 87.449219 78.675781 89.625 74.476562 91.875 C 72.976562 92.699219 72.976562 93.75 71.773438 94.199219 C 70.273438 94.726562 67.648438 94.648438 66.074219 94.199219 C 64.800781 93.824219 63.675781 92.925781 62.851562 92.023438 C 62.023438 91.125 61.273438 90 61.050781 88.648438 C 60.75 87 60.898438 84.523438 61.726562 82.949219 C 62.550781 81.375 63.675781 80.023438 66 79.125 C 71.25 77.101562 84 79.425781 95.324219 79.050781 C 111 78.523438 135.523438 76.648438 151.425781 75.375 C 163.199219 74.398438 176.324219 71.476562 182.101562 72.375 C 184.5 72.75 185.773438 73.351562 186.976562 74.550781 C 188.175781 75.75 189.148438 77.773438 189.226562 79.425781 C 189.300781 81.074219 188.699219 83.175781 187.648438 84.523438 C 186.601562 85.875 185.476562 86.773438 183.074219 87.375 C 177 88.949219 157.875 85.5 148.425781 85.875 C 141.824219 86.101562 135.675781 88.351562 131.699219 87.898438 C 129.449219 87.675781 127.800781 87.074219 126.523438 86.101562 C 125.476562 85.351562 124.800781 84.226562 124.351562 83.101562 C 123.898438 81.976562 123.75 80.699219 123.824219 79.5 C 123.898438 78.300781 124.351562 76.949219 125.023438 75.976562 C 125.699219 75 126.148438 74.324219 127.726562 73.5 C 132.375 71.101562 153.976562 63.523438 158.925781 66.523438 C 161.925781 68.324219 163.199219 75.523438 161.925781 77.625 C 160.875 79.425781 156.675781 79.199219 153.976562 79.574219 C 151.273438 79.949219 149.023438 79.273438 145.726562 79.800781 C 140.398438 80.625 129.75 85.574219 125.175781 85.574219 C 122.851562 85.574219 121.273438 84.976562 119.925781 84.074219 C 118.800781 83.324219 118.050781 82.273438 117.523438 81.148438 C 117 80.023438 116.773438 78.675781 116.851562 77.476562 C 116.925781 76.273438 117.300781 75 117.898438 73.949219 C 118.5 72.898438 119.25 71.925781 120.449219 71.25 C 122.101562 70.273438 124.574219 70.648438 127.574219 69.675781 C 133.351562 67.875 146.101562 61.5 151.875 59.625 C 154.875 58.648438 155.851562 58.351562 159 57.824219 C 164.699219 56.851562 181.5 53.699219 183.601562 55.574219 C 184.273438 56.25 184.050781 58.125 183.601562 58.425781 C 182.925781 58.800781 179.851562 56.851562 178.800781 55.5 C 177.75 54.074219 177.074219 51.824219 177.226562 50.101562 C 177.375 48.375 178.273438 46.273438 179.550781 45.074219 C 180.824219 43.875 183.375 43.050781 184.726562 42.824219 C 185.476562 42.675781 185.925781 42.523438 186.601562 42.976562 C 188.25 44.023438 192.523438 51.074219 192.523438 53.25 C 192.523438 54.300781 192 54.824219 191.324219 55.5 C 190.425781 56.476562 188.398438 57.824219 187.125 58.273438 C 186.226562 58.574219 185.550781 58.726562 184.574219 58.574219 C 183.226562 58.351562 181.125 57.675781 179.925781 56.625 C 178.726562 55.574219 177.675781 53.925781 177.375 52.351562 C 177.074219 50.773438 177.523438 48.601562 177.976562 47.324219 C 178.273438 46.425781 178.648438 45.824219 179.398438 45.226562 C 180.375 44.324219 182.550781 43.273438 183.824219 42.976562 C 184.726562 42.75 185.476562 42.75 186.375 42.976562 C 187.648438 43.273438 189.75 44.175781 190.800781 45.300781 C 191.925781 46.425781 192.675781 48.523438 192.898438 49.875 C 193.050781 50.851562 193.050781 51.523438 192.75 52.425781 C 192.375 53.699219 191.324219 55.648438 190.125 56.699219 C 188.925781 57.75 186.824219 58.425781 185.476562 58.574219 C 184.5 58.726562 183.824219 58.648438 182.925781 58.273438 C 181.648438 57.824219 179.773438 56.699219 178.800781 55.425781 C 177.824219 54.148438 176.925781 50.773438 177.226562 50.625 C 177.675781 50.398438 183.976562 57.976562 183.601562 58.425781 C 183.375 58.726562 181.125 57.75 180.148438 56.851562 C 178.949219 55.800781 177.675781 53.625 177.300781 52.050781 C 177 50.773438 177.226562 49.425781 177.601562 48.300781 C 177.976562 47.101562 178.574219 45.976562 179.550781 45.074219 C 180.75 44.023438 182.851562 43.199219 184.726562 42.824219 C 186.75 42.375 189.226562 42.074219 191.175781 42.75 C 193.199219 43.425781 195.300781 45 196.648438 46.875 C 198.226562 48.976562 199.5 52.273438 199.648438 54.898438 C 199.800781 57.449219 198.824219 60.226562 197.625 62.476562 C 196.351562 64.800781 194.25 67.199219 192.074219 68.625 C 189.976562 70.050781 187.949219 70.5 184.800781 71.175781 C 179.398438 72.300781 167.699219 71.699219 162.226562 72.601562 C 159 73.125 157.648438 73.574219 154.648438 74.625 C 149.773438 76.351562 141.449219 81.148438 135.976562 83.023438 C 131.925781 84.375 128.101562 85.648438 125.175781 85.574219 C 123.074219 85.5 121.273438 84.976562 119.925781 84.074219 C 118.800781 83.324219 118.050781 82.273438 117.523438 81.148438 C 117 80.023438 116.773438 78.675781 116.851562 77.476562 C 116.925781 76.273438 117.300781 75 117.898438 73.949219 C 118.5 72.898438 120.375 71.175781 120.449219 71.25 C 120.449219 71.25 119.398438 72.300781 119.550781 72.523438 C 120 73.125 131.023438 68.101562 135.523438 66.75 C 138.75 65.773438 140.550781 65.101562 144.074219 64.648438 C 149.398438 63.976562 159.824219 63.375 164.550781 64.574219 C 167.324219 65.25 169.5 66.074219 170.773438 67.949219 C 172.273438 70.199219 173.101562 75.976562 171.824219 78.074219 C 170.773438 79.800781 168.449219 79.800781 165.375 80.773438 C 158.625 82.875 137.25 87.976562 131.699219 87.898438 C 129.898438 87.898438 129.148438 87.601562 128.101562 87.074219 C 127.050781 86.550781 125.925781 85.726562 125.25 84.75 C 124.574219 83.773438 124.050781 82.5 123.898438 81.300781 C 123.75 80.101562 123.824219 78.75 124.199219 77.625 C 124.574219 76.5 125.324219 75.375 126.226562 74.550781 C 127.125 73.726562 127.875 73.273438 129.449219 72.75 C 133.050781 71.625 142.199219 71.023438 148.425781 70.726562 C 154.351562 70.425781 159.976562 70.648438 165.824219 70.949219 C 171.824219 71.25 180.449219 71.550781 183.898438 72.675781 C 185.398438 73.199219 186.148438 73.726562 186.976562 74.550781 C 187.800781 75.375 188.476562 76.5 188.851562 77.625 C 189.226562 78.75 189.375 80.101562 189.148438 81.226562 C 188.925781 82.351562 188.398438 83.625 187.648438 84.523438 C 186.898438 85.425781 186.074219 86.175781 184.800781 86.773438 C 182.925781 87.601562 180.898438 87.75 177.074219 88.199219 C 166.726562 89.476562 133.800781 90.675781 118.726562 91.949219 C 109.199219 92.773438 103.425781 93.976562 95.324219 94.425781 C 86.550781 94.949219 73.351562 95.925781 67.949219 94.648438 C 65.476562 94.050781 64.050781 93.148438 62.851562 92.023438 C 61.875 91.050781 61.351562 89.851562 61.050781 88.648438 C 60.75 87.449219 60.75 85.949219 61.050781 84.75 C 61.351562 83.550781 61.949219 82.425781 62.851562 81.375 C 64.050781 79.949219 65.324219 78.675781 67.875 77.398438 C 73.351562 74.625 87.824219 72.523438 96.449219 69.601562 C 103.875 67.050781 109.875 63.601562 116.773438 61.199219 C 123.601562 58.800781 131.25 57.148438 137.476562 55.050781 C 142.648438 53.324219 147.675781 50.625 151.5 49.726562 C 154.050781 49.125 156.226562 48.523438 158.101562 48.976562 C 159.675781 49.351562 161.25 50.625 162.074219 51.75 C 162.75 52.648438 163.050781 53.773438 163.199219 54.824219 C 163.351562 55.875 163.199219 57.148438 162.824219 58.125 C 162.449219 59.101562 161.773438 60.148438 160.949219 60.824219 C 160.125 61.5 158.023438 62.324219 158.023438 62.324219 " clip-rule="nonzero"/></clipPath><clipPath id="c7abe98fb7"><path d="M 310.410156 77 L 330 77 L 330 99 L 310.410156 99 Z M 310.410156 77 " clip-rule="nonzero"/></clipPath><clipPath id="55da8a322d"><path d="M 321.226562 81.898438 C 324.375 84.226562 328.574219 88.199219 327.976562 89.476562 C 327.148438 91.199219 315.976562 91.050781 313.648438 90.148438 C 312.675781 89.773438 312.449219 89.101562 312 88.425781 C 311.550781 87.75 311.175781 87.148438 311.023438 86.25 C 310.800781 85.050781 310.726562 83.023438 311.25 81.675781 C 311.773438 80.324219 313.050781 78.824219 314.324219 78.074219 C 315.601562 77.324219 317.398438 76.949219 318.824219 77.101562 C 320.25 77.25 322.050781 78.300781 323.023438 79.050781 C 323.699219 79.574219 324.074219 80.101562 324.449219 80.925781 C 324.976562 82.050781 325.425781 84.074219 325.199219 85.5 C 324.976562 86.925781 323.851562 88.648438 323.023438 89.625 C 322.425781 90.300781 321.898438 90.675781 321.074219 90.976562 C 319.875 91.425781 317.699219 91.574219 316.425781 91.425781 C 315.523438 91.273438 315 91.125 314.25 90.601562 C 313.199219 89.851562 311.773438 88.351562 311.25 87 C 310.726562 85.648438 310.648438 83.773438 311.023438 82.351562 C 311.398438 80.925781 312.449219 79.425781 313.648438 78.523438 C 314.851562 77.625 316.574219 77.101562 318.074219 77.101562 C 319.5 77.101562 321 77.398438 322.425781 78.523438 C 324.898438 80.476562 328.949219 86.773438 329.550781 90.375 C 330 93 329.773438 96.675781 328.125 97.726562 C 325.949219 99.074219 318.375 96.074219 315.449219 94.5 C 313.574219 93.523438 312.226562 92.324219 311.476562 90.898438 C 310.726562 89.550781 310.5 87.601562 310.800781 86.101562 C 311.101562 84.601562 312.375 82.949219 313.425781 82.050781 C 314.324219 81.300781 315.375 80.925781 316.5 80.851562 C 317.925781 80.773438 321.226562 81.898438 321.226562 81.898438 " clip-rule="nonzero"/></clipPath><clipPath id="c52dbf4bc3"><path d="M 42 81 L 60 81 L 60 109.488281 L 42 109.488281 Z M 42 81 " clip-rule="nonzero"/></clipPath><clipPath id="c341d62899"><path d="M 59.925781 89.023438 C 59.023438 92.699219 56.175781 97.726562 54.675781 97.800781 C 53.550781 97.875 51.449219 95.023438 51.601562 94.726562 C 51.75 94.5 53.101562 94.726562 53.925781 95.101562 C 55.050781 95.625 56.773438 96.675781 57.601562 97.875 C 58.425781 99.074219 58.875 100.875 58.800781 102.300781 C 58.726562 103.726562 57.75 105.523438 57.074219 106.574219 C 56.550781 107.324219 56.101562 107.773438 55.351562 108.148438 C 54.226562 108.75 52.273438 109.273438 50.851562 109.125 C 49.425781 108.976562 47.625 107.925781 46.648438 107.175781 C 45.976562 106.648438 45.601562 106.125 45.226562 105.300781 C 44.699219 104.175781 44.25 102.148438 44.476562 100.726562 C 44.699219 99.300781 45.824219 97.574219 46.648438 96.675781 C 47.25 96 47.925781 95.699219 48.601562 95.398438 C 49.273438 95.101562 49.949219 94.726562 50.851562 94.726562 C 52.125 94.648438 54.226562 95.25 55.351562 95.773438 C 56.175781 96.148438 56.625 96.523438 57.148438 97.273438 C 57.898438 98.25 58.726562 100.125 58.800781 101.550781 C 58.875 102.976562 58.199219 104.925781 57.601562 105.976562 C 57.148438 106.726562 56.699219 107.25 55.949219 107.699219 C 54.898438 108.375 53.175781 109.425781 51.601562 109.125 C 49.199219 108.675781 44.851562 104.925781 43.425781 102.226562 C 42.226562 99.976562 42 96.898438 42.523438 94.574219 C 42.976562 92.398438 45.226562 90.675781 46.125 88.800781 C 46.875 87.148438 46.949219 85.125 47.773438 83.925781 C 48.449219 82.949219 49.199219 82.273438 50.25 81.824219 C 51.523438 81.300781 53.625 81 55.050781 81.375 C 56.476562 81.75 58.125 83.023438 58.949219 84.300781 C 59.773438 85.574219 59.925781 89.023438 59.925781 89.023438 " clip-rule="nonzero"/></clipPath></defs><g clip-path="url(#a0b52d0fd7)"><g clip-path="url(#46a8255dee)"><path fill="#ffefbd" d="M 44.015625 82.226562 L 330.984375 82.226562 L 330.984375 347.027344 L 44.015625 347.027344 Z M 44.015625 82.226562 " fill-opacity="1" fill-rule="nonzero"/></g></g><g clip-path="url(#9cbb924f22)"><g clip-path="url(#e7cefb8d5b)"><path fill="#ffbd59" d="M 82.738281 238.480469 L 170.9375 238.480469 L 170.9375 347.027344 L 82.738281 347.027344 Z M 82.738281 238.480469 " fill-opacity="1" fill-rule="nonzero"/></g></g><g clip-path="url(#53257729a6)"><g clip-path="url(#a57295646a)"><path fill="#ffffff" d="M 82.738281 109.605469 L 160.691406 109.605469 L 160.691406 189.714844 L 82.738281 189.714844 Z M 82.738281 109.605469 " fill-opacity="1" fill-rule="nonzero"/></g></g><g clip-path="url(#b97c505570)"><g clip-path="url(#f5d90ccf58)"><path stroke-linecap="butt" transform="matrix(0.750564, 0, 0, 0.751316, 82.739771, 109.60963)" fill="none" stroke-linejoin="miter" d="M 22.996353 -0.000338875 L 80.926769 -0.000338875 C 87.026351 -0.000338875 92.870916 2.422492 97.185381 6.737834 C 101.499847 11.047976 103.919903 16.897085 103.919903 22.995755 L 103.919903 83.805682 C 103.919903 89.904352 101.499847 95.75346 97.185381 100.063603 C 92.870916 104.378945 87.026351 106.801775 80.926769 106.801775 L 22.996353 106.801775 C 16.896772 106.801775 11.047002 104.378945 6.737741 100.063603 C 2.423275 95.75346 -0.00198493 89.904352 -0.00198493 83.805682 L -0.00198493 22.995755 C -0.00198493 16.897085 2.423275 11.047976 6.737741 6.737834 C 11.047002 2.422492 16.896772 -0.000338875 22.996353 -0.000338875 " stroke="#ff914d" stroke-width="4" stroke-opacity="1" stroke-miterlimit="4"/></g></g><g clip-path="url(#8562796aaf)"><g clip-path="url(#afb34a5894)"><path fill="#ffffff" d="M 210.707031 109.605469 L 288.65625 109.605469 L 288.65625 189.714844 L 210.707031 189.714844 Z M 210.707031 109.605469 " fill-opacity="1" fill-rule="nonzero"/></g></g><g clip-path="url(#44a85ed0e0)"><g clip-path="url(#85ccd16297)"><path stroke-linecap="butt" transform="matrix(0.750564, 0, 0, 0.751316, 210.7071, 109.60963)" fill="none" stroke-linejoin="miter" d="M 22.998246 -0.000338875 L 80.923457 -0.000338875 C 87.023039 -0.000338875 92.872809 2.422492 97.187274 6.737834 C 101.496535 11.047976 103.921796 16.897085 103.921796 22.995755 L 103.921796 83.805682 C 103.921796 89.904352 101.496535 95.75346 97.187274 100.063603 C 92.872809 104.378945 87.023039 106.801775 80.923457 106.801775 L 22.998246 106.801775 C 16.898664 106.801775 11.048895 104.378945 6.734429 100.063603 C 2.425168 95.75346 -0.000091949 89.904352 -0.000091949 83.805682 L -0.000091949 22.995755 C -0.000091949 16.897085 2.425168 11.047976 6.734429 6.737834 C 11.048895 2.422492 16.898664 -0.000338875 22.998246 -0.000338875 " stroke="#ff914d" stroke-width="4" stroke-opacity="1" stroke-miterlimit="4"/></g></g><g clip-path="url(#346b92a793)"><g clip-path="url(#ab722370d6)"><path fill="#ffffff" d="M 210.707031 238.480469 L 288.65625 238.480469 L 288.65625 318.589844 L 210.707031 318.589844 Z M 210.707031 238.480469 " fill-opacity="1" fill-rule="nonzero"/></g></g><g clip-path="url(#dbb3b88ee2)"><g clip-path="url(#591dafe5c6)"><path stroke-linecap="butt" transform="matrix(0.750564, 0, 0, 0.751316, 210.7071, 238.483739)" fill="none" stroke-linejoin="miter" d="M 22.998246 0.000846861 L 80.923457 0.000846861 C 87.023039 0.000846861 92.872809 2.423677 97.187274 6.73382 C 101.496535 11.049162 103.921796 16.89827 103.921796 22.99694 L 103.921796 83.801668 C 103.921796 89.900338 101.496535 95.754646 97.187274 100.064789 C 92.872809 104.380131 87.023039 106.802961 80.923457 106.802961 L 22.998246 106.802961 C 16.898664 106.802961 11.048895 104.380131 6.734429 100.064789 C 2.425168 95.754646 -0.000091949 89.900338 -0.000091949 83.801668 L -0.000091949 22.99694 C -0.000091949 16.89827 2.425168 11.049162 6.734429 6.73382 C 11.048895 2.423677 16.898664 0.000846861 22.998246 0.000846861 " stroke="#ff914d" stroke-width="4" stroke-opacity="1" stroke-miterlimit="4"/></g></g><path stroke-linecap="butt" transform="matrix(0.711529, -0.239689, 0.239429, 0.710756, 53.771617, 79.382133)" fill="none" stroke-linejoin="miter" d="M 0.000836711 4.00226 L 186.802919 3.998168 " stroke="#ffefbd" stroke-width="8" stroke-opacity="1" stroke-miterlimit="4"/><path stroke-linecap="butt" transform="matrix(-0.711901, -0.239962, 0.239561, -0.710711, 319.222455, 85.067222)" fill="none" stroke-linejoin="miter" d="M 0.00200541 4.001743 L 186.699747 4.002405 " stroke="#ffefbd" stroke-width="8" stroke-opacity="1" stroke-miterlimit="4"/><path stroke-linecap="butt" transform="matrix(-0.706156, -0.249163, 0.249554, -0.707264, 334.591739, 79.756166)" fill="none" stroke-linejoin="miter" d="M 0.000728886 4.00162 L 209.342817 4.001554 " stroke="#ffbd59" stroke-width="8" stroke-opacity="1" stroke-miterlimit="4"/><g clip-path="url(#2049093163)"><g clip-path="url(#8f98747961)"><path fill="#ffefbd" d="M 145.199219 37.800781 L 313.199219 37.800781 L 313.199219 94.726562 L 145.199219 94.726562 Z M 145.199219 37.800781 " fill-opacity="1" fill-rule="nonzero"/></g></g><g clip-path="url(#e04ddff002)"><g clip-path="url(#9fb40d63f7)"><path fill="#ffefbd" d="M 58.050781 39.75 L 202.648438 39.75 L 202.648438 97.648438 L 58.050781 97.648438 Z M 58.050781 39.75 " fill-opacity="1" fill-rule="nonzero"/></g></g><g clip-path="url(#c7abe98fb7)"><g clip-path="url(#55da8a322d)"><path fill="#ffefbd" d="M 307.800781 74.101562 L 332.550781 74.101562 L 332.550781 100.726562 L 307.800781 100.726562 Z M 307.800781 74.101562 " fill-opacity="1" fill-rule="nonzero"/></g></g><g clip-path="url(#c52dbf4bc3)"><g clip-path="url(#c341d62899)"><path fill="#ffefbd" d="M 39.523438 78.375 L 62.925781 78.375 L 62.925781 112.125 L 39.523438 112.125 Z M 39.523438 78.375 " fill-opacity="1" fill-rule="nonzero"/></g></g><path stroke-linecap="butt" transform="matrix(0.709079, -0.245334, 0.245228, 0.708776, 32.320307, 75.539717)" fill="none" stroke-linejoin="miter" d="M -0.000633169 4.000036 L 218.907462 3.997861 " stroke="#ffbd59" stroke-width="8" stroke-opacity="1" stroke-miterlimit="4"/></svg>