<svg xmlns="http://www.w3.org/2000/svg" xmlns:xlink="http://www.w3.org/1999/xlink" width="500" zoomAndPan="magnify" viewBox="0 0 375 374.999991" height="500" preserveAspectRatio="xMidYMid meet" version="1.0"><defs><clipPath id="7ae8bd5982"><path d="M 83.171875 238.664062 L 139.421875 238.664062 L 139.421875 294.914062 L 83.171875 294.914062 Z M 83.171875 238.664062 " clip-rule="nonzero"/></clipPath><clipPath id="efebe99c41"><path d="M 97.980469 253.472656 L 124.230469 253.472656 L 124.230469 279.722656 L 97.980469 279.722656 Z M 97.980469 253.472656 " clip-rule="nonzero"/></clipPath><clipPath id="a4781424cc"><path d="M 88.386719 243.875 L 134.136719 243.875 L 134.136719 289.625 L 88.386719 289.625 Z M 88.386719 243.875 " clip-rule="nonzero"/></clipPath><clipPath id="e1f870403c"><path d="M 150 98 L 291.640625 98 L 291.640625 294.675781 L 150 294.675781 Z M 150 98 " clip-rule="nonzero"/></clipPath><clipPath id="c35f3d821d"><path d="M 196 80.175781 L 246 80.175781 L 246 95 L 196 95 Z M 196 80.175781 " clip-rule="nonzero"/></clipPath></defs><g clip-path="url(#7ae8bd5982)"><path fill="#a6a6a6" d="M 111.296875 294.914062 C 95.761719 294.914062 83.171875 282.238281 83.171875 266.789062 C 83.171875 251.335938 95.761719 238.664062 111.296875 238.664062 C 126.835938 238.664062 139.421875 251.25 139.421875 266.789062 C 139.421875 282.328125 126.75 294.914062 111.296875 294.914062 Z M 111.296875 240.398438 C 96.714844 240.398438 84.910156 252.207031 84.910156 266.789062 C 84.910156 281.371094 96.714844 293.175781 111.296875 293.175781 C 125.882812 293.175781 137.6875 281.371094 137.6875 266.789062 C 137.6875 252.207031 125.792969 240.398438 111.296875 240.398438 Z M 111.296875 240.398438 " fill-opacity="1" fill-rule="nonzero"/></g><g clip-path="url(#efebe99c41)"><path fill="#ec1d27" d="M 119.3125 253.472656 L 111.105469 261.675781 L 102.898438 253.472656 L 97.980469 258.390625 L 106.1875 266.597656 L 97.980469 274.800781 L 102.898438 279.722656 L 111.105469 271.515625 L 119.3125 279.722656 L 124.230469 274.800781 L 116.023438 266.597656 L 124.230469 258.390625 L 119.3125 253.472656 " fill-opacity="1" fill-rule="nonzero"/></g><g clip-path="url(#a4781424cc)"><path fill="#ffffff" d="M 134.136719 266.75 C 134.136719 267.5 134.097656 268.246094 134.023438 268.992188 C 133.953125 269.738281 133.839844 270.480469 133.695312 271.214844 C 133.550781 271.949219 133.367188 272.675781 133.148438 273.390625 C 132.933594 274.109375 132.679688 274.8125 132.394531 275.503906 C 132.105469 276.195312 131.789062 276.875 131.433594 277.535156 C 131.082031 278.195312 130.695312 278.835938 130.28125 279.460938 C 129.863281 280.082031 129.417969 280.683594 128.941406 281.261719 C 128.46875 281.839844 127.964844 282.394531 127.433594 282.925781 C 126.90625 283.457031 126.351562 283.957031 125.773438 284.433594 C 125.191406 284.910156 124.589844 285.355469 123.96875 285.769531 C 123.347656 286.1875 122.703125 286.570312 122.042969 286.925781 C 121.382812 287.277344 120.707031 287.597656 120.015625 287.882812 C 119.320312 288.171875 118.617188 288.421875 117.902344 288.640625 C 117.183594 288.859375 116.457031 289.039062 115.722656 289.1875 C 114.988281 289.332031 114.246094 289.441406 113.503906 289.515625 C 112.757812 289.589844 112.007812 289.625 111.261719 289.625 C 110.511719 289.625 109.761719 289.589844 109.019531 289.515625 C 108.273438 289.441406 107.53125 289.332031 106.796875 289.1875 C 106.0625 289.039062 105.335938 288.859375 104.621094 288.640625 C 103.902344 288.421875 103.199219 288.171875 102.507812 287.882812 C 101.8125 287.597656 101.136719 287.277344 100.476562 286.925781 C 99.816406 286.570312 99.175781 286.1875 98.550781 285.769531 C 97.929688 285.355469 97.328125 284.910156 96.75 284.433594 C 96.167969 283.957031 95.613281 283.457031 95.085938 282.925781 C 94.554688 282.394531 94.054688 281.839844 93.578125 281.261719 C 93.101562 280.683594 92.65625 280.082031 92.242188 279.460938 C 91.824219 278.835938 91.4375 278.195312 91.085938 277.535156 C 90.734375 276.875 90.414062 276.195312 90.125 275.503906 C 89.839844 274.8125 89.585938 274.109375 89.371094 273.390625 C 89.152344 272.675781 88.972656 271.949219 88.824219 271.214844 C 88.679688 270.480469 88.570312 269.738281 88.496094 268.992188 C 88.421875 268.246094 88.386719 267.5 88.386719 266.75 C 88.386719 266 88.421875 265.253906 88.496094 264.507812 C 88.570312 263.761719 88.679688 263.023438 88.824219 262.289062 C 88.972656 261.554688 89.152344 260.828125 89.371094 260.109375 C 89.585938 259.394531 89.839844 258.6875 90.125 257.996094 C 90.414062 257.304688 90.734375 256.628906 91.085938 255.96875 C 91.4375 255.308594 91.824219 254.664062 92.242188 254.042969 C 92.65625 253.417969 93.101562 252.816406 93.578125 252.238281 C 94.054688 251.660156 94.554688 251.105469 95.085938 250.574219 C 95.613281 250.046875 96.167969 249.542969 96.75 249.066406 C 97.328125 248.59375 97.929688 248.148438 98.550781 247.730469 C 99.175781 247.316406 99.816406 246.929688 100.476562 246.578125 C 101.136719 246.222656 101.8125 245.902344 102.507812 245.617188 C 103.199219 245.332031 103.902344 245.078125 104.621094 244.859375 C 105.335938 244.644531 106.0625 244.460938 106.796875 244.316406 C 107.53125 244.167969 108.273438 244.058594 109.019531 243.984375 C 109.761719 243.914062 110.511719 243.875 111.261719 243.875 C 112.007812 243.875 112.757812 243.914062 113.503906 243.984375 C 114.246094 244.058594 114.988281 244.167969 115.722656 244.316406 C 116.457031 244.460938 117.183594 244.644531 117.902344 244.859375 C 118.617188 245.078125 119.320312 245.332031 120.015625 245.617188 C 120.707031 245.902344 121.382812 246.222656 122.042969 246.578125 C 122.703125 246.929688 123.347656 247.316406 123.96875 247.730469 C 124.589844 248.148438 125.191406 248.59375 125.773438 249.066406 C 126.351562 249.542969 126.90625 250.046875 127.433594 250.574219 C 127.964844 251.105469 128.46875 251.660156 128.941406 252.238281 C 129.417969 252.816406 129.863281 253.417969 130.28125 254.042969 C 130.695312 254.664062 131.082031 255.308594 131.433594 255.96875 C 131.789062 256.628906 132.105469 257.304688 132.394531 257.996094 C 132.679688 258.6875 132.933594 259.394531 133.148438 260.109375 C 133.367188 260.828125 133.550781 261.554688 133.695312 262.289062 C 133.839844 263.023438 133.953125 263.761719 134.023438 264.507812 C 134.097656 265.253906 134.136719 266 134.136719 266.75 Z M 134.136719 266.75 " fill-opacity="1" fill-rule="nonzero"/></g><path fill="#ec1d27" d="M 123.09375 258.238281 L 119.773438 254.917969 L 111.261719 263.429688 L 102.746094 254.917969 L 99.425781 258.238281 L 107.941406 266.75 L 99.425781 275.265625 L 102.746094 278.582031 L 111.261719 270.070312 L 119.773438 278.582031 L 123.09375 275.265625 L 114.578125 266.75 Z M 123.09375 258.238281 " fill-opacity="1" fill-rule="nonzero"/><g clip-path="url(#e1f870403c)"><path fill="#ffbd59" d="M 272.800781 98.144531 L 169.0625 98.144531 C 158.554688 98.144531 150.003906 106.699219 150.003906 117.214844 L 150.003906 275.480469 C 150.003906 285.996094 158.554688 294.546875 169.0625 294.546875 L 272.800781 294.546875 C 283.308594 294.546875 291.859375 285.996094 291.859375 275.480469 L 291.859375 117.214844 C 291.859375 106.699219 283.308594 98.144531 272.800781 98.144531 M 263.175781 188.398438 L 227.230469 257.578125 C 226.484375 259.011719 225.078125 259.851562 223.535156 259.851562 C 223.191406 259.851562 222.84375 259.8125 222.492188 259.726562 C 220.570312 259.257812 219.28125 257.609375 219.28125 255.628906 L 219.28125 211.363281 C 219.28125 210.863281 218.871094 210.453125 218.367188 210.453125 L 182.429688 210.453125 C 180.941406 210.453125 179.597656 209.699219 178.828125 208.429688 C 178.054688 207.160156 178.003906 205.613281 178.6875 204.300781 L 214.636719 135.117188 C 215.542969 133.363281 217.445312 132.503906 219.371094 132.964844 C 221.292969 133.4375 222.585938 135.085938 222.585938 137.066406 L 222.585938 181.328125 C 222.585938 181.832031 222.996094 182.242188 223.492188 182.242188 L 259.4375 182.242188 C 260.921875 182.242188 262.269531 182.996094 263.039062 184.265625 C 263.808594 185.535156 263.859375 187.082031 263.175781 188.398438 " fill-opacity="1" fill-rule="nonzero"/></g><g clip-path="url(#c35f3d821d)"><path fill="#ffbd59" d="M 245.648438 86.027344 C 245.648438 82.851562 243.101562 80.304688 239.933594 80.304688 L 201.933594 80.304688 C 198.761719 80.304688 196.21875 82.851562 196.21875 86.027344 L 196.21875 94.851562 L 245.648438 94.851562 Z M 245.648438 86.027344 " fill-opacity="1" fill-rule="nonzero"/></g></svg>