<svg xmlns="http://www.w3.org/2000/svg" xmlns:xlink="http://www.w3.org/1999/xlink" width="500" zoomAndPan="magnify" viewBox="0 0 375 374.999991" height="500" preserveAspectRatio="xMidYMid meet" version="1.0"><defs><clipPath id="8baa385d05"><path d="M 83.171875 238.664062 L 139.421875 238.664062 L 139.421875 294.914062 L 83.171875 294.914062 Z M 83.171875 238.664062 " clip-rule="nonzero"/></clipPath><clipPath id="a10a95fb5f"><path d="M 150 98 L 291.640625 98 L 291.640625 294.675781 L 150 294.675781 Z M 150 98 " clip-rule="nonzero"/></clipPath><clipPath id="32db795a70"><path d="M 196 80.175781 L 246 80.175781 L 246 95 L 196 95 Z M 196 80.175781 " clip-rule="nonzero"/></clipPath><clipPath id="c361d6e019"><path d="M 91.515625 249.570312 L 131.265625 249.570312 L 131.265625 284.070312 L 91.515625 284.070312 Z M 91.515625 249.570312 " clip-rule="nonzero"/></clipPath></defs><g clip-path="url(#8baa385d05)"><path fill="#a6a6a6" d="M 111.296875 294.914062 C 95.761719 294.914062 83.171875 282.238281 83.171875 266.789062 C 83.171875 251.335938 95.761719 238.664062 111.296875 238.664062 C 126.835938 238.664062 139.421875 251.25 139.421875 266.789062 C 139.421875 282.328125 126.75 294.914062 111.296875 294.914062 Z M 111.296875 240.398438 C 96.714844 240.398438 84.910156 252.207031 84.910156 266.789062 C 84.910156 281.371094 96.714844 293.175781 111.296875 293.175781 C 125.882812 293.175781 137.6875 281.371094 137.6875 266.789062 C 137.6875 252.207031 125.792969 240.398438 111.296875 240.398438 Z M 111.296875 240.398438 " fill-opacity="1" fill-rule="nonzero"/></g><g clip-path="url(#a10a95fb5f)"><path fill="#ffbd59" d="M 272.800781 98.144531 L 169.0625 98.144531 C 158.554688 98.144531 150.003906 106.699219 150.003906 117.214844 L 150.003906 275.480469 C 150.003906 285.996094 158.554688 294.546875 169.0625 294.546875 L 272.800781 294.546875 C 283.308594 294.546875 291.859375 285.996094 291.859375 275.480469 L 291.859375 117.214844 C 291.859375 106.699219 283.308594 98.144531 272.800781 98.144531 M 263.175781 188.398438 L 227.230469 257.578125 C 226.484375 259.011719 225.078125 259.851562 223.535156 259.851562 C 223.191406 259.851562 222.84375 259.8125 222.492188 259.726562 C 220.570312 259.257812 219.28125 257.609375 219.28125 255.628906 L 219.28125 211.363281 C 219.28125 210.863281 218.871094 210.453125 218.367188 210.453125 L 182.429688 210.453125 C 180.941406 210.453125 179.597656 209.699219 178.828125 208.429688 C 178.054688 207.160156 178.003906 205.613281 178.6875 204.300781 L 214.636719 135.117188 C 215.542969 133.363281 217.445312 132.503906 219.371094 132.964844 C 221.292969 133.4375 222.585938 135.085938 222.585938 137.066406 L 222.585938 181.328125 C 222.585938 181.832031 222.996094 182.242188 223.492188 182.242188 L 259.4375 182.242188 C 260.921875 182.242188 262.269531 182.996094 263.039062 184.265625 C 263.808594 185.535156 263.859375 187.082031 263.175781 188.398438 " fill-opacity="1" fill-rule="nonzero"/></g><g clip-path="url(#32db795a70)"><path fill="#ffbd59" d="M 245.648438 86.027344 C 245.648438 82.851562 243.101562 80.304688 239.933594 80.304688 L 201.933594 80.304688 C 198.761719 80.304688 196.21875 82.851562 196.21875 86.027344 L 196.21875 94.851562 L 245.648438 94.851562 Z M 245.648438 86.027344 " fill-opacity="1" fill-rule="nonzero"/></g><g clip-path="url(#c361d6e019)"><path fill="#299740" d="M 131 250.09375 C 130.371094 249.933594 129.746094 249.773438 129.117188 249.609375 C 129.070312 249.582031 129.007812 249.570312 128.9375 249.582031 C 128.90625 249.585938 128.875 249.597656 128.851562 249.609375 C 128.726562 249.648438 128.609375 249.691406 128.488281 249.734375 C 128.078125 249.886719 127.675781 250.054688 127.277344 250.230469 C 126.679688 250.496094 126.097656 250.785156 125.523438 251.089844 C 124.753906 251.5 124 251.945312 123.269531 252.414062 C 122.355469 253 121.472656 253.625 120.621094 254.285156 C 119.628906 255.050781 118.675781 255.867188 117.769531 256.71875 C 116.722656 257.699219 115.734375 258.734375 114.804688 259.808594 C 113.75 261.027344 112.765625 262.300781 111.851562 263.613281 C 110.824219 265.09375 109.890625 266.628906 109.039062 268.199219 C 108.085938 269.972656 107.238281 271.792969 106.488281 273.644531 C 106.34375 274.003906 106.203125 274.367188 106.0625 274.730469 C 105.582031 274.355469 105.097656 273.976562 104.617188 273.601562 C 103.351562 272.621094 102.085938 271.636719 100.816406 270.652344 C 99.65625 269.746094 98.492188 268.84375 97.328125 267.941406 C 97.03125 267.710938 96.738281 267.480469 96.441406 267.25 C 96.367188 267.191406 96.300781 267.136719 96.207031 267.101562 C 95.914062 266.988281 95.609375 266.847656 95.304688 266.769531 C 95.1875 266.742188 95.042969 266.78125 94.925781 266.800781 C 94.71875 266.832031 94.515625 266.859375 94.3125 266.894531 C 94.183594 266.914062 94.007812 266.910156 93.902344 266.988281 C 93.84375 267.027344 93.816406 267.082031 93.78125 267.140625 C 93.453125 267.671875 93.128906 268.203125 92.800781 268.734375 C 92.4375 269.328125 92.074219 269.921875 91.710938 270.515625 C 91.625 270.652344 91.527344 270.769531 91.558594 270.933594 C 91.59375 271.128906 91.632812 271.324219 91.671875 271.515625 C 91.816406 272.257812 91.964844 273 92.109375 273.738281 C 92.15625 273.96875 92.191406 274.199219 92.246094 274.425781 C 92.277344 274.558594 92.375 274.628906 92.507812 274.675781 C 92.621094 274.71875 92.738281 274.761719 92.851562 274.804688 C 92.894531 274.820312 92.933594 274.835938 92.972656 274.851562 C 92.996094 274.859375 93.019531 274.867188 93.039062 274.875 C 93.050781 274.878906 93.0625 274.886719 93.074219 274.890625 C 93.078125 274.890625 93.078125 274.890625 93.078125 274.890625 C 93.195312 274.9375 93.308594 274.980469 93.425781 275.027344 C 94.078125 275.285156 94.722656 275.554688 95.367188 275.832031 C 97.292969 276.671875 99.175781 277.597656 100.996094 278.621094 C 103.132812 279.824219 105.195312 281.167969 107.023438 282.75 C 107.460938 283.128906 107.886719 283.519531 108.292969 283.929688 C 108.433594 284.070312 108.722656 284 108.769531 283.8125 C 108.824219 283.574219 108.890625 283.335938 108.953125 283.101562 C 109.132812 282.441406 109.328125 281.785156 109.535156 281.132812 C 109.847656 280.140625 110.183594 279.152344 110.542969 278.171875 C 111 276.925781 111.488281 275.691406 112.015625 274.46875 C 112.621094 273.066406 113.273438 271.679688 113.976562 270.3125 C 114.75 268.8125 115.585938 267.34375 116.488281 265.90625 C 117.433594 264.410156 118.449219 262.953125 119.558594 261.550781 C 120.683594 260.128906 121.902344 258.765625 123.230469 257.492188 C 124.558594 256.21875 125.992188 255.03125 127.539062 253.984375 C 128.320312 253.457031 129.132812 252.960938 129.96875 252.507812 C 130.160156 252.402344 130.449219 252.3125 130.539062 252.117188 C 130.570312 252.050781 130.59375 251.980469 130.617188 251.914062 C 130.738281 251.605469 130.859375 251.296875 130.976562 250.988281 C 131.050781 250.796875 131.125 250.605469 131.199219 250.417969 C 131.253906 250.28125 131.140625 250.132812 131 250.09375 " fill-opacity="1" fill-rule="nonzero"/></g></svg>