<svg xmlns="http://www.w3.org/2000/svg" xmlns:xlink="http://www.w3.org/1999/xlink" width="500" zoomAndPan="magnify" viewBox="0 0 375 374.999991" height="500" preserveAspectRatio="xMidYMid meet" version="1.0"><defs><clipPath id="2c7ef23b89"><path d="M 46.640625 251.734375 L 112.867188 251.734375 L 112.867188 317.964844 L 46.640625 317.964844 Z M 46.640625 251.734375 " clip-rule="nonzero"/></clipPath><clipPath id="5231347b14"><path d="M 56.460938 264.578125 L 103.261719 264.578125 L 103.261719 305.199219 L 56.460938 305.199219 Z M 56.460938 264.578125 " clip-rule="nonzero"/></clipPath><clipPath id="652604775b"><path d="M 96 57.140625 L 243 57.140625 L 243 237 L 96 237 Z M 96 57.140625 " clip-rule="nonzero"/></clipPath><clipPath id="3a5284b479"><path d="M 250 77 L 328.238281 77 L 328.238281 208 L 250 208 Z M 250 77 " clip-rule="nonzero"/></clipPath><clipPath id="cb86e637ad"><path d="M 197 215 L 328.238281 215 L 328.238281 317.640625 L 197 317.640625 Z M 197 215 " clip-rule="nonzero"/></clipPath></defs><g clip-path="url(#2c7ef23b89)"><path fill="#a6a6a6" d="M 79.753906 317.964844 C 61.457031 317.964844 46.640625 303.042969 46.640625 284.851562 C 46.640625 266.65625 61.457031 251.734375 79.753906 251.734375 C 98.046875 251.734375 112.867188 266.554688 112.867188 284.851562 C 112.867188 303.144531 97.945312 317.964844 79.753906 317.964844 Z M 79.753906 253.78125 C 62.582031 253.78125 48.683594 267.679688 48.683594 284.851562 C 48.683594 302.019531 62.582031 315.921875 79.753906 315.921875 C 96.925781 315.921875 110.824219 302.019531 110.824219 284.851562 C 110.824219 267.679688 96.820312 253.78125 79.753906 253.78125 Z M 79.753906 253.78125 " fill-opacity="1" fill-rule="nonzero"/></g><g clip-path="url(#5231347b14)"><path fill="#299740" d="M 102.953125 265.195312 C 102.210938 265.003906 101.472656 264.8125 100.734375 264.625 C 100.675781 264.589844 100.605469 264.578125 100.523438 264.59375 C 100.484375 264.597656 100.449219 264.605469 100.417969 264.621094 C 100.277344 264.667969 100.132812 264.71875 99.992188 264.773438 C 99.511719 264.949219 99.035156 265.144531 98.570312 265.355469 C 97.867188 265.664062 97.175781 266.007812 96.503906 266.367188 C 95.59375 266.851562 94.710938 267.371094 93.847656 267.925781 C 92.773438 268.613281 91.734375 269.351562 90.730469 270.125 C 89.5625 271.03125 88.441406 271.988281 87.371094 272.992188 C 86.140625 274.148438 84.976562 275.367188 83.882812 276.632812 C 82.636719 278.066406 81.480469 279.5625 80.40625 281.109375 C 79.195312 282.855469 78.09375 284.660156 77.09375 286.511719 C 75.96875 288.597656 74.972656 290.738281 74.09375 292.921875 C 73.921875 293.34375 73.753906 293.773438 73.589844 294.199219 C 73.023438 293.757812 72.453125 293.316406 71.886719 292.875 C 70.394531 291.714844 68.90625 290.558594 67.414062 289.398438 C 66.042969 288.335938 64.675781 287.269531 63.304688 286.207031 C 62.957031 285.933594 62.609375 285.664062 62.261719 285.394531 C 62.171875 285.324219 62.09375 285.257812 61.984375 285.214844 C 61.636719 285.085938 61.28125 284.917969 60.921875 284.828125 C 60.785156 284.792969 60.613281 284.839844 60.476562 284.863281 C 60.234375 284.898438 59.996094 284.933594 59.753906 284.972656 C 59.601562 284.996094 59.398438 284.996094 59.273438 285.082031 C 59.203125 285.132812 59.167969 285.195312 59.128906 285.261719 C 58.742188 285.890625 58.359375 286.515625 57.976562 287.140625 C 57.546875 287.839844 57.117188 288.539062 56.691406 289.238281 C 56.589844 289.398438 56.476562 289.535156 56.511719 289.730469 C 56.550781 289.960938 56.601562 290.1875 56.644531 290.417969 C 56.816406 291.289062 56.988281 292.160156 57.160156 293.035156 C 57.214844 293.300781 57.253906 293.574219 57.320312 293.84375 C 57.359375 294 57.476562 294.078125 57.628906 294.136719 C 57.765625 294.1875 57.898438 294.238281 58.035156 294.289062 C 58.082031 294.304688 58.128906 294.324219 58.179688 294.34375 C 58.203125 294.351562 58.230469 294.363281 58.257812 294.371094 C 58.269531 294.378906 58.285156 294.382812 58.296875 294.386719 C 58.300781 294.390625 58.300781 294.390625 58.304688 294.390625 C 58.4375 294.441406 58.574219 294.496094 58.710938 294.550781 C 59.476562 294.851562 60.238281 295.171875 60.996094 295.5 C 63.265625 296.488281 65.480469 297.574219 67.621094 298.78125 C 70.140625 300.199219 72.566406 301.78125 74.71875 303.640625 C 75.238281 304.085938 75.734375 304.550781 76.214844 305.03125 C 76.378906 305.195312 76.722656 305.117188 76.773438 304.894531 C 76.839844 304.613281 76.917969 304.335938 76.992188 304.054688 C 77.203125 303.28125 77.433594 302.507812 77.675781 301.738281 C 78.042969 300.570312 78.441406 299.40625 78.863281 298.25 C 79.398438 296.785156 79.980469 295.332031 80.597656 293.894531 C 81.3125 292.238281 82.078125 290.605469 82.910156 289 C 83.820312 287.234375 84.800781 285.5 85.867188 283.808594 C 86.976562 282.046875 88.175781 280.332031 89.476562 278.683594 C 90.804688 277.007812 92.242188 275.402344 93.800781 273.90625 C 95.363281 272.40625 97.054688 271.007812 98.875 269.773438 C 99.796875 269.152344 100.75 268.570312 101.734375 268.035156 C 101.960938 267.914062 102.300781 267.804688 102.40625 267.574219 C 102.445312 267.496094 102.46875 267.414062 102.5 267.335938 C 102.640625 266.972656 102.785156 266.609375 102.925781 266.246094 C 103.011719 266.019531 103.097656 265.796875 103.1875 265.574219 C 103.246094 265.417969 103.117188 265.238281 102.953125 265.195312 " fill-opacity="1" fill-rule="nonzero"/></g><path fill="#ffbd59" d="M 120.507812 256.585938 C 120.507812 261.105469 124.132812 264.726562 128.652344 264.726562 L 161.222656 264.726562 C 165.742188 264.726562 169.367188 261.105469 169.367188 256.585938 L 169.367188 244.375 L 120.507812 244.375 Z M 120.507812 256.585938 " fill-opacity="1" fill-rule="nonzero"/><path fill="#ffbd59" d="M 169.433594 160.207031 L 171.394531 149.429688 L 148.417969 169.847656 L 166.863281 177.53125 C 168.628906 178.265625 169.644531 180.132812 169.300781 182.011719 L 167.339844 192.789062 L 190.316406 172.375 L 171.871094 164.691406 C 170.105469 163.957031 169.089844 162.085938 169.433594 160.207031 Z M 169.433594 160.207031 " fill-opacity="1" fill-rule="nonzero"/><path fill="#ffbd59" d="M 140.867188 81.5625 L 197.867188 81.5625 L 197.867188 101.914062 L 140.867188 101.914062 Z M 140.867188 81.5625 " fill-opacity="1" fill-rule="nonzero"/><g clip-path="url(#652604775b)"><path fill="#ffbd59" d="M 218.226562 236.234375 C 231.703125 236.234375 242.65625 225.285156 242.65625 211.8125 L 242.65625 81.5625 C 242.65625 68.089844 231.703125 57.140625 218.226562 57.140625 L 120.507812 57.140625 C 107.03125 57.140625 96.078125 68.089844 96.078125 81.5625 L 96.078125 211.8125 C 96.078125 225.285156 107.03125 236.234375 120.507812 236.234375 Z M 200.574219 174.152344 L 163.929688 206.714844 C 163.164062 207.394531 161.476562 208.175781 159.230469 207.222656 C 157.714844 206.371094 156.90625 204.65625 157.21875 202.945312 L 160.703125 183.78125 L 139.296875 174.867188 C 138.007812 174.332031 137.082031 173.167969 136.851562 171.785156 C 136.617188 170.402344 137.113281 169 138.160156 168.070312 L 174.804688 135.507812 C 176.105469 134.351562 177.996094 134.15625 179.503906 135 C 181.019531 135.851562 181.824219 137.566406 181.515625 139.277344 L 178.03125 158.4375 L 199.433594 167.355469 C 200.726562 167.890625 201.652344 169.054688 201.882812 170.4375 C 202.113281 171.820312 201.617188 173.222656 200.574219 174.152344 Z M 214.15625 77.492188 C 214.15625 75.242188 215.976562 73.421875 218.226562 73.421875 C 220.476562 73.421875 222.296875 75.242188 222.296875 77.492188 L 222.296875 105.984375 C 222.296875 108.234375 220.476562 110.054688 218.226562 110.054688 C 215.976562 110.054688 214.15625 108.234375 214.15625 105.984375 Z M 132.722656 77.492188 C 132.722656 75.242188 134.546875 73.421875 136.792969 73.421875 L 201.941406 73.421875 C 204.1875 73.421875 206.011719 75.242188 206.011719 77.492188 L 206.011719 105.984375 C 206.011719 108.234375 204.1875 110.054688 201.941406 110.054688 L 136.792969 110.054688 C 134.546875 110.054688 132.722656 108.234375 132.722656 105.984375 Z M 116.4375 77.492188 C 116.4375 75.242188 118.257812 73.421875 120.507812 73.421875 C 122.753906 73.421875 124.578125 75.242188 124.578125 77.492188 L 124.578125 105.984375 C 124.578125 108.234375 122.753906 110.054688 120.507812 110.054688 C 118.257812 110.054688 116.4375 108.234375 116.4375 105.984375 Z M 116.4375 171.109375 C 116.4375 141.933594 140.179688 118.195312 169.367188 118.195312 C 198.554688 118.195312 222.296875 141.933594 222.296875 171.109375 C 222.296875 182.277344 218.863281 192.949219 212.367188 201.980469 C 211.058594 203.804688 208.515625 204.222656 206.683594 202.90625 C 204.859375 201.59375 204.445312 199.050781 205.757812 197.226562 C 211.25 189.589844 214.15625 180.558594 214.15625 171.109375 C 214.15625 146.421875 194.0625 126.335938 169.367188 126.335938 C 144.671875 126.335938 124.578125 146.421875 124.578125 171.109375 C 124.578125 195.796875 144.671875 215.882812 169.367188 215.882812 C 178.230469 215.882812 186.792969 213.304688 194.136719 208.421875 C 196.015625 207.179688 198.539062 207.6875 199.785156 209.558594 C 201.027344 211.433594 200.519531 213.960938 198.648438 215.203125 C 189.964844 220.976562 179.839844 224.023438 169.367188 224.023438 C 140.179688 224.023438 116.4375 200.285156 116.4375 171.109375 Z M 116.4375 171.109375 " fill-opacity="1" fill-rule="nonzero"/></g><g clip-path="url(#3a5284b479)"><path fill="#ffbd59" d="M 325.554688 119.132812 C 323.84375 114.207031 321.277344 109.609375 317.980469 105.496094 L 305.765625 90.191406 C 299.332031 82.175781 289.601562 77.492188 279.300781 77.492188 L 258.941406 77.492188 C 254.464844 77.492188 250.800781 81.15625 250.800781 85.632812 L 250.800781 122.265625 C 250.800781 126.785156 254.464844 130.449219 258.941406 130.40625 L 271.15625 130.40625 L 295.585938 154.828125 L 295.585938 195.53125 C 295.585938 202.289062 301.042969 207.742188 307.800781 207.742188 L 328.160156 207.742188 L 328.160156 134.476562 C 328.160156 129.1875 327.265625 124.015625 325.554688 119.132812 Z M 267.085938 105.984375 C 264.835938 105.984375 263.015625 104.164062 263.015625 101.914062 C 263.015625 99.667969 264.835938 97.84375 267.085938 97.84375 C 269.335938 97.84375 271.15625 99.667969 271.15625 101.914062 C 271.15625 104.164062 269.335938 105.984375 267.085938 105.984375 Z M 283.371094 105.984375 C 281.125 105.984375 279.300781 104.164062 279.300781 101.914062 C 279.300781 99.667969 281.125 97.84375 283.371094 97.84375 C 285.621094 97.84375 287.445312 99.667969 287.445312 101.914062 C 287.445312 104.164062 285.621094 105.984375 283.371094 105.984375 Z M 283.371094 105.984375 " fill-opacity="1" fill-rule="nonzero"/></g><g clip-path="url(#cb86e637ad)"><path fill="#ffbd59" d="M 307.800781 252.515625 C 307.800781 277.246094 287.75 297.289062 263.015625 297.289062 C 238.277344 297.289062 218.226562 277.246094 218.226562 252.515625 L 218.226562 244.375 L 197.867188 244.375 L 197.867188 252.515625 C 197.867188 288.484375 227.035156 317.640625 263.015625 317.640625 C 298.992188 317.640625 328.160156 288.484375 328.160156 252.515625 L 328.160156 215.882812 L 307.800781 215.882812 Z M 307.800781 252.515625 " fill-opacity="1" fill-rule="nonzero"/></g></svg>