<svg xmlns="http://www.w3.org/2000/svg" xmlns:xlink="http://www.w3.org/1999/xlink" width="500" zoomAndPan="magnify" viewBox="0 0 375 374.999991" height="500" preserveAspectRatio="xMidYMid meet" version="1.0"><defs><clipPath id="d1c4f8e078"><path d="M 44.84375 268.78125 L 106.464844 268.78125 L 106.464844 330.402344 L 44.84375 330.402344 Z M 44.84375 268.78125 " clip-rule="nonzero"/></clipPath><clipPath id="4d6eba1709"><path d="M 75.605469 44.695312 L 237 44.695312 L 237 242 L 75.605469 242 Z M 75.605469 44.695312 " clip-rule="nonzero"/></clipPath><clipPath id="fd506a82cf"><path d="M 245 67 L 330.304688 67 L 330.304688 210 L 245 210 Z M 245 67 " clip-rule="nonzero"/></clipPath><clipPath id="fbd345d125"><path d="M 187 218 L 330.304688 218 L 330.304688 330.613281 L 187 330.613281 Z M 187 218 " clip-rule="nonzero"/></clipPath><clipPath id="9c007a6ac4"><path d="M 50.554688 274.492188 L 100.671875 274.492188 L 100.671875 324.609375 L 50.554688 324.609375 Z M 50.554688 274.492188 " clip-rule="nonzero"/></clipPath></defs><g clip-path="url(#d1c4f8e078)"><path fill="#a6a6a6" d="M 75.65625 330.402344 C 58.632812 330.402344 44.84375 316.519531 44.84375 299.59375 C 44.84375 282.664062 58.632812 268.78125 75.65625 268.78125 C 92.675781 268.78125 106.464844 282.570312 106.464844 299.59375 C 106.464844 316.613281 92.582031 330.402344 75.65625 330.402344 Z M 75.65625 270.683594 C 59.679688 270.683594 46.746094 283.617188 46.746094 299.59375 C 46.746094 315.566406 59.679688 328.5 75.65625 328.5 C 91.632812 328.5 104.5625 315.566406 104.5625 299.59375 C 104.5625 283.617188 91.535156 270.683594 75.65625 270.683594 Z M 75.65625 270.683594 " fill-opacity="1" fill-rule="nonzero"/></g><path fill="#ffbd59" d="M 102.488281 263.601562 C 102.488281 268.5625 106.464844 272.535156 111.417969 272.535156 L 147.140625 272.535156 C 152.097656 272.535156 156.070312 268.5625 156.070312 263.601562 L 156.070312 250.199219 L 102.488281 250.199219 Z M 102.488281 263.601562 " fill-opacity="1" fill-rule="nonzero"/><path fill="#ffbd59" d="M 156.144531 157.816406 L 158.292969 145.992188 L 133.09375 168.398438 L 153.324219 176.832031 C 155.261719 177.636719 156.375 179.6875 156 181.75 L 153.847656 193.578125 L 179.046875 171.171875 L 158.816406 162.738281 C 156.882812 161.933594 155.769531 159.882812 156.144531 157.816406 Z M 156.144531 157.816406 " fill-opacity="1" fill-rule="nonzero"/><path fill="#ffbd59" d="M 124.816406 71.5 L 187.328125 71.5 L 187.328125 93.839844 L 124.816406 93.839844 Z M 124.816406 71.5 " fill-opacity="1" fill-rule="nonzero"/><g clip-path="url(#4d6eba1709)"><path fill="#ffbd59" d="M 209.652344 241.265625 C 224.433594 241.265625 236.445312 229.246094 236.445312 214.460938 L 236.445312 71.5 C 236.445312 56.714844 224.433594 44.695312 209.652344 44.695312 L 102.488281 44.695312 C 87.710938 44.695312 75.699219 56.714844 75.699219 71.5 L 75.699219 214.460938 C 75.699219 229.246094 87.710938 241.265625 102.488281 241.265625 Z M 190.292969 173.121094 L 150.109375 208.863281 C 149.269531 209.609375 147.417969 210.464844 144.953125 209.421875 C 143.292969 208.488281 142.40625 206.601562 142.746094 204.726562 L 146.570312 183.695312 L 123.097656 173.910156 C 121.679688 173.320312 120.667969 172.042969 120.410156 170.523438 C 120.15625 169.007812 120.703125 167.46875 121.847656 166.449219 L 162.035156 130.707031 C 163.460938 129.441406 165.535156 129.226562 167.1875 130.152344 C 168.847656 131.085938 169.734375 132.96875 169.394531 134.84375 L 165.570312 155.878906 L 189.046875 165.664062 C 190.460938 166.253906 191.476562 167.53125 191.730469 169.046875 C 191.984375 170.5625 191.441406 172.101562 190.292969 173.121094 Z M 205.1875 67.035156 C 205.1875 64.5625 207.1875 62.566406 209.652344 62.566406 C 212.117188 62.566406 214.117188 64.5625 214.117188 67.035156 L 214.117188 98.304688 C 214.117188 100.773438 212.117188 102.773438 209.652344 102.773438 C 207.1875 102.773438 205.1875 100.773438 205.1875 98.304688 Z M 115.882812 67.035156 C 115.882812 64.5625 117.882812 62.566406 120.351562 62.566406 L 191.792969 62.566406 C 194.257812 62.566406 196.257812 64.5625 196.257812 67.035156 L 196.257812 98.304688 C 196.257812 100.773438 194.257812 102.773438 191.792969 102.773438 L 120.351562 102.773438 C 117.882812 102.773438 115.882812 100.773438 115.882812 98.304688 Z M 98.023438 67.035156 C 98.023438 64.5625 100.023438 62.566406 102.488281 62.566406 C 104.953125 62.566406 106.953125 64.5625 106.953125 67.035156 L 106.953125 98.304688 C 106.953125 100.773438 104.953125 102.773438 102.488281 102.773438 C 100.023438 102.773438 98.023438 100.773438 98.023438 98.304688 Z M 98.023438 169.785156 C 98.023438 137.761719 124.0625 111.707031 156.070312 111.707031 C 188.078125 111.707031 214.117188 137.761719 214.117188 169.785156 C 214.117188 182.039062 210.351562 193.753906 203.230469 203.667969 C 201.792969 205.667969 199.003906 206.128906 196.996094 204.683594 C 194.996094 203.242188 194.539062 200.449219 195.976562 198.449219 C 202.003906 190.066406 205.1875 180.15625 205.1875 169.785156 C 205.1875 142.6875 183.152344 120.644531 156.070312 120.644531 C 128.988281 120.644531 106.953125 142.6875 106.953125 169.785156 C 106.953125 196.882812 128.988281 218.925781 156.070312 218.925781 C 165.789062 218.925781 175.183594 216.097656 183.238281 210.738281 C 185.296875 209.375 188.0625 209.929688 189.429688 211.984375 C 190.792969 214.042969 190.234375 216.816406 188.183594 218.179688 C 178.660156 224.515625 167.554688 227.863281 156.070312 227.863281 C 124.0625 227.863281 98.023438 201.808594 98.023438 169.785156 Z M 98.023438 169.785156 " fill-opacity="1" fill-rule="nonzero"/></g><g clip-path="url(#fd506a82cf)"><path fill="#ffbd59" d="M 327.355469 112.734375 C 325.480469 107.328125 322.664062 102.28125 319.050781 97.769531 L 305.652344 80.972656 C 298.597656 72.171875 287.925781 67.035156 276.628906 67.035156 L 254.304688 67.035156 C 249.394531 67.035156 245.375 71.054688 245.375 75.96875 L 245.375 116.175781 C 245.375 121.132812 249.394531 125.15625 254.304688 125.109375 L 267.699219 125.109375 L 294.492188 151.914062 L 294.492188 196.589844 C 294.492188 204.007812 300.472656 209.992188 307.886719 209.992188 L 330.210938 209.992188 L 330.210938 129.578125 C 330.210938 123.769531 329.230469 118.097656 327.355469 112.734375 Z M 263.234375 98.304688 C 260.769531 98.304688 258.769531 96.304688 258.769531 93.839844 C 258.769531 91.371094 260.769531 89.371094 263.234375 89.371094 C 265.699219 89.371094 267.699219 91.371094 267.699219 93.839844 C 267.699219 96.304688 265.699219 98.304688 263.234375 98.304688 Z M 281.09375 98.304688 C 278.628906 98.304688 276.628906 96.304688 276.628906 93.839844 C 276.628906 91.371094 278.628906 89.371094 281.09375 89.371094 C 283.5625 89.371094 285.558594 91.371094 285.558594 93.839844 C 285.558594 96.304688 283.5625 98.304688 281.09375 98.304688 Z M 281.09375 98.304688 " fill-opacity="1" fill-rule="nonzero"/></g><g clip-path="url(#fbd345d125)"><path fill="#ffbd59" d="M 307.886719 259.132812 C 307.886719 286.273438 285.894531 308.277344 258.769531 308.277344 C 231.644531 308.277344 209.652344 286.273438 209.652344 259.132812 L 209.652344 250.199219 L 187.328125 250.199219 L 187.328125 259.132812 C 187.328125 298.613281 219.3125 330.613281 258.769531 330.613281 C 298.226562 330.613281 330.210938 298.613281 330.210938 259.132812 L 330.210938 218.925781 L 307.886719 218.925781 Z M 307.886719 259.132812 " fill-opacity="1" fill-rule="nonzero"/></g><g clip-path="url(#9c007a6ac4)"><path fill="#ffffff" d="M 100.671875 299.550781 C 100.671875 300.371094 100.632812 301.191406 100.550781 302.007812 C 100.472656 302.824219 100.351562 303.632812 100.191406 304.441406 C 100.03125 305.246094 99.832031 306.039062 99.59375 306.824219 C 99.355469 307.609375 99.078125 308.382812 98.765625 309.140625 C 98.453125 309.898438 98.101562 310.640625 97.714844 311.363281 C 97.328125 312.085938 96.90625 312.789062 96.449219 313.472656 C 95.992188 314.15625 95.503906 314.8125 94.984375 315.449219 C 94.464844 316.082031 93.914062 316.691406 93.332031 317.269531 C 92.753906 317.851562 92.144531 318.402344 91.511719 318.921875 C 90.875 319.441406 90.21875 319.929688 89.535156 320.386719 C 88.855469 320.84375 88.152344 321.265625 87.425781 321.652344 C 86.703125 322.039062 85.960938 322.386719 85.203125 322.703125 C 84.445312 323.015625 83.671875 323.292969 82.886719 323.53125 C 82.101562 323.769531 81.308594 323.96875 80.503906 324.128906 C 79.699219 324.289062 78.886719 324.410156 78.070312 324.488281 C 77.253906 324.570312 76.433594 324.609375 75.613281 324.609375 C 74.792969 324.609375 73.976562 324.570312 73.15625 324.488281 C 72.339844 324.410156 71.53125 324.289062 70.726562 324.128906 C 69.921875 323.96875 69.125 323.769531 68.339844 323.53125 C 67.554688 323.292969 66.78125 323.015625 66.023438 322.703125 C 65.265625 322.386719 64.523438 322.039062 63.800781 321.652344 C 63.078125 321.265625 62.375 320.84375 61.691406 320.386719 C 61.007812 319.929688 60.351562 319.441406 59.71875 318.921875 C 59.082031 318.402344 58.476562 317.851562 57.894531 317.269531 C 57.3125 316.691406 56.765625 316.082031 56.242188 315.449219 C 55.722656 314.8125 55.234375 314.15625 54.777344 313.472656 C 54.324219 312.789062 53.902344 312.085938 53.515625 311.363281 C 53.128906 310.640625 52.777344 309.898438 52.460938 309.140625 C 52.148438 308.382812 51.871094 307.609375 51.632812 306.824219 C 51.394531 306.039062 51.195312 305.246094 51.035156 304.441406 C 50.875 303.632812 50.757812 302.824219 50.675781 302.007812 C 50.59375 301.191406 50.554688 300.371094 50.554688 299.550781 C 50.554688 298.730469 50.59375 297.910156 50.675781 297.09375 C 50.757812 296.277344 50.875 295.46875 51.035156 294.660156 C 51.195312 293.855469 51.394531 293.0625 51.632812 292.277344 C 51.871094 291.492188 52.148438 290.71875 52.460938 289.960938 C 52.777344 289.203125 53.128906 288.460938 53.515625 287.738281 C 53.902344 287.015625 54.324219 286.3125 54.777344 285.628906 C 55.234375 284.945312 55.722656 284.289062 56.242188 283.652344 C 56.765625 283.019531 57.3125 282.410156 57.894531 281.832031 C 58.476562 281.25 59.082031 280.699219 59.71875 280.179688 C 60.351562 279.660156 61.007812 279.171875 61.691406 278.714844 C 62.375 278.257812 63.078125 277.835938 63.800781 277.449219 C 64.523438 277.0625 65.265625 276.714844 66.023438 276.398438 C 66.78125 276.085938 67.554688 275.808594 68.339844 275.570312 C 69.125 275.332031 69.921875 275.132812 70.726562 274.972656 C 71.53125 274.8125 72.339844 274.691406 73.15625 274.613281 C 73.976562 274.53125 74.792969 274.492188 75.613281 274.492188 C 76.433594 274.492188 77.253906 274.53125 78.070312 274.613281 C 78.886719 274.691406 79.699219 274.8125 80.503906 274.972656 C 81.308594 275.132812 82.101562 275.332031 82.886719 275.570312 C 83.671875 275.808594 84.445312 276.085938 85.203125 276.398438 C 85.960938 276.714844 86.703125 277.0625 87.425781 277.449219 C 88.152344 277.835938 88.855469 278.257812 89.535156 278.714844 C 90.21875 279.171875 90.875 279.660156 91.511719 280.179688 C 92.144531 280.699219 92.753906 281.25 93.332031 281.832031 C 93.914062 282.410156 94.464844 283.019531 94.984375 283.652344 C 95.503906 284.289062 95.992188 284.945312 96.449219 285.628906 C 96.90625 286.3125 97.328125 287.015625 97.714844 287.738281 C 98.101562 288.460938 98.453125 289.203125 98.765625 289.960938 C 99.078125 290.71875 99.355469 291.492188 99.59375 292.277344 C 99.832031 293.0625 100.03125 293.855469 100.191406 294.660156 C 100.351562 295.46875 100.472656 296.277344 100.550781 297.09375 C 100.632812 297.910156 100.671875 298.730469 100.671875 299.550781 Z M 100.671875 299.550781 " fill-opacity="1" fill-rule="nonzero"/></g><path fill="#ec1d27" d="M 88.578125 290.226562 L 84.941406 286.589844 L 75.613281 295.914062 L 66.289062 286.589844 L 62.652344 290.226562 L 71.976562 299.550781 L 62.652344 308.875 L 66.289062 312.511719 L 75.613281 303.1875 L 84.941406 312.511719 L 88.578125 308.875 L 79.25 299.550781 Z M 88.578125 290.226562 " fill-opacity="1" fill-rule="nonzero"/></svg>