<svg xmlns="http://www.w3.org/2000/svg" xmlns:xlink="http://www.w3.org/1999/xlink" width="500" zoomAndPan="magnify" viewBox="0 0 375 374.999991" height="500" preserveAspectRatio="xMidYMid meet" version="1.0"><defs><g/><clipPath id="30416fb59a"><path d="M 35.988281 111.707031 L 194.613281 111.707031 L 194.613281 270.335938 L 35.988281 270.335938 Z M 35.988281 111.707031 " clip-rule="nonzero"/></clipPath><clipPath id="930c16bfb9"><path d="M 115.300781 111.707031 C 71.496094 111.707031 35.988281 147.21875 35.988281 191.019531 C 35.988281 234.824219 71.496094 270.335938 115.300781 270.335938 C 159.105469 270.335938 194.613281 234.824219 194.613281 191.019531 C 194.613281 147.21875 159.105469 111.707031 115.300781 111.707031 " clip-rule="nonzero"/></clipPath><clipPath id="4678087d9d"><path d="M 32.464844 108.1875 L 185.109375 108.1875 L 185.109375 260.828125 L 32.464844 260.828125 Z M 32.464844 108.1875 " clip-rule="nonzero"/></clipPath><clipPath id="f682b62c6b"><path d="M 108.789062 108.1875 C 66.636719 108.1875 32.464844 142.355469 32.464844 184.507812 C 32.464844 226.65625 66.636719 260.828125 108.789062 260.828125 C 150.9375 260.828125 185.109375 226.65625 185.109375 184.507812 C 185.109375 142.355469 150.9375 108.1875 108.789062 108.1875 " clip-rule="nonzero"/></clipPath><clipPath id="3b897bd95f"><path d="M 55.089844 142.695312 L 175.511719 142.695312 L 175.511719 263.117188 L 55.089844 263.117188 Z M 55.089844 142.695312 " clip-rule="nonzero"/></clipPath><clipPath id="5e1a43b3d8"><path d="M 115.300781 142.695312 C 82.046875 142.695312 55.089844 169.652344 55.089844 202.90625 C 55.089844 236.160156 82.046875 263.117188 115.300781 263.117188 C 148.554688 263.117188 175.511719 236.160156 175.511719 202.90625 C 175.511719 169.652344 148.554688 142.695312 115.300781 142.695312 " clip-rule="nonzero"/></clipPath><clipPath id="c8a281315f"><path d="M 44.109375 120.730469 L 186.492188 120.730469 L 186.492188 263.117188 L 44.109375 263.117188 Z M 44.109375 120.730469 " clip-rule="nonzero"/></clipPath><clipPath id="00d55c9a3b"><path d="M 115.300781 120.730469 C 75.984375 120.730469 44.109375 152.605469 44.109375 191.925781 C 44.109375 231.242188 75.984375 263.117188 115.300781 263.117188 C 154.621094 263.117188 186.492188 231.242188 186.492188 191.925781 C 186.492188 152.605469 154.621094 120.730469 115.300781 120.730469 " clip-rule="nonzero"/></clipPath><clipPath id="5b6486de89"><path d="M 46 118 L 184 118 L 184 257 L 46 257 Z M 46 118 " clip-rule="nonzero"/></clipPath><clipPath id="2feb934063"><path d="M 23.757812 155.550781 L 147.25 95.953125 L 206.847656 219.441406 L 83.359375 279.042969 Z M 23.757812 155.550781 " clip-rule="nonzero"/></clipPath><clipPath id="35cdb6fe0d"><path d="M 85.503906 125.753906 C 51.402344 142.210938 37.101562 183.195312 53.558594 217.296875 C 70.015625 251.398438 111 265.699219 145.101562 249.242188 C 179.203125 232.785156 193.503906 191.796875 177.046875 157.699219 C 160.589844 123.597656 119.605469 109.292969 85.503906 125.753906 " clip-rule="nonzero"/></clipPath><clipPath id="52b326dd87"><path d="M 61.910156 128.191406 L 187.574219 128.191406 L 187.574219 253.851562 L 61.910156 253.851562 Z M 61.910156 128.191406 " clip-rule="nonzero"/></clipPath><clipPath id="ae11669f2b"><path d="M 124.742188 128.191406 C 90.039062 128.191406 61.910156 156.320312 61.910156 191.019531 C 61.910156 225.722656 90.039062 253.851562 124.742188 253.851562 C 159.441406 253.851562 187.574219 225.722656 187.574219 191.019531 C 187.574219 156.320312 159.441406 128.191406 124.742188 128.191406 " clip-rule="nonzero"/></clipPath><clipPath id="8e8cfd5d90"><path d="M 69.285156 135.5625 L 180.199219 135.5625 L 180.199219 246.480469 L 69.285156 246.480469 Z M 69.285156 135.5625 " clip-rule="nonzero"/></clipPath><clipPath id="323489ca33"><path d="M 124.742188 135.5625 C 94.113281 135.5625 69.285156 160.394531 69.285156 191.019531 C 69.285156 221.648438 94.113281 246.480469 124.742188 246.480469 C 155.371094 246.480469 180.199219 221.648438 180.199219 191.019531 C 180.199219 160.394531 155.371094 135.5625 124.742188 135.5625 " clip-rule="nonzero"/></clipPath></defs><g clip-path="url(#30416fb59a)"><g clip-path="url(#930c16bfb9)"><path fill="#ffde59" d="M 35.988281 111.707031 L 194.613281 111.707031 L 194.613281 270.335938 L 35.988281 270.335938 Z M 35.988281 111.707031 " fill-opacity="1" fill-rule="nonzero"/></g></g><g clip-path="url(#4678087d9d)"><g clip-path="url(#f682b62c6b)"><path fill="#ffffff" d="M 32.464844 108.1875 L 185.109375 108.1875 L 185.109375 260.828125 L 32.464844 260.828125 Z M 32.464844 108.1875 " fill-opacity="1" fill-rule="nonzero"/></g></g><g clip-path="url(#3b897bd95f)"><g clip-path="url(#5e1a43b3d8)"><path fill="#ffffff" d="M 55.089844 142.695312 L 175.511719 142.695312 L 175.511719 263.117188 L 55.089844 263.117188 Z M 55.089844 142.695312 " fill-opacity="1" fill-rule="nonzero"/></g></g><g clip-path="url(#c8a281315f)"><g clip-path="url(#00d55c9a3b)"><path fill="#ffffff" d="M 44.109375 120.730469 L 186.492188 120.730469 L 186.492188 263.117188 L 44.109375 263.117188 Z M 44.109375 120.730469 " fill-opacity="1" fill-rule="nonzero"/></g></g><g clip-path="url(#5b6486de89)"><g clip-path="url(#2feb934063)"><g clip-path="url(#35cdb6fe0d)"><path fill="#ffbd59" d="M 23.757812 155.550781 L 147.25 95.953125 L 206.847656 219.441406 L 83.359375 279.042969 Z M 23.757812 155.550781 " fill-opacity="1" fill-rule="nonzero"/></g></g></g><g clip-path="url(#52b326dd87)"><g clip-path="url(#ae11669f2b)"><path fill="#ffffff" d="M 61.910156 128.191406 L 187.574219 128.191406 L 187.574219 253.851562 L 61.910156 253.851562 Z M 61.910156 128.191406 " fill-opacity="1" fill-rule="nonzero"/></g></g><g clip-path="url(#8e8cfd5d90)"><g clip-path="url(#323489ca33)"><path fill="#ffbd59" d="M 69.285156 135.5625 L 180.199219 135.5625 L 180.199219 246.480469 L 69.285156 246.480469 Z M 69.285156 135.5625 " fill-opacity="1" fill-rule="nonzero"/></g></g><g fill="#343434" fill-opacity="1"><g transform="translate(198.97688, 183.610594)"><g><path d="M 12.015625 -27.703125 C 15.171875 -27.703125 17.753906 -26.773438 19.765625 -24.921875 L 16.25 -21.21875 C 15.207031 -22.644531 13.628906 -23.359375 11.515625 -23.359375 C 10.148438 -23.359375 9.070312 -23.046875 8.28125 -22.421875 C 7.488281 -21.796875 7.09375 -20.945312 7.09375 -19.875 C 7.09375 -18.957031 7.453125 -18.222656 8.171875 -17.671875 C 8.898438 -17.128906 9.941406 -16.644531 11.296875 -16.21875 C 13.960938 -15.40625 15.785156 -14.664062 16.765625 -14 C 17.742188 -13.34375 18.515625 -12.53125 19.078125 -11.5625 C 19.640625 -10.59375 19.921875 -9.382812 19.921875 -7.9375 C 19.921875 -5.3125 19.015625 -3.21875 17.203125 -1.65625 C 15.398438 -0.09375 13.070312 0.6875 10.21875 0.6875 C 6.257812 0.6875 3.25 -0.53125 1.1875 -2.96875 L 4.8125 -6.484375 C 5.394531 -5.597656 6.15625 -4.90625 7.09375 -4.40625 C 8.039062 -3.90625 9.0625 -3.65625 10.15625 -3.65625 C 11.550781 -3.65625 12.6875 -4.019531 13.5625 -4.75 C 14.4375 -5.476562 14.875 -6.347656 14.875 -7.359375 C 14.875 -8.378906 14.503906 -9.191406 13.765625 -9.796875 C 13.035156 -10.410156 11.789062 -10.984375 10.03125 -11.515625 C 7.769531 -12.234375 6.128906 -12.921875 5.109375 -13.578125 C 4.097656 -14.242188 3.335938 -15.050781 2.828125 -16 C 2.316406 -16.957031 2.0625 -18.132812 2.0625 -19.53125 C 2.0625 -21.976562 2.984375 -23.953125 4.828125 -25.453125 C 6.671875 -26.953125 9.066406 -27.703125 12.015625 -27.703125 Z M 12.015625 -27.703125 "/></g></g></g><g fill="#343434" fill-opacity="1"><g transform="translate(219.650907, 183.610594)"><g><path d="M 11.640625 -18.765625 C 14.429688 -18.765625 16.785156 -17.875 18.703125 -16.09375 C 20.628906 -14.320312 21.59375 -12.007812 21.59375 -9.15625 C 21.59375 -6.3125 20.628906 -4 18.703125 -2.21875 C 16.785156 -0.4375 14.429688 0.453125 11.640625 0.453125 C 8.835938 0.453125 6.472656 -0.4375 4.546875 -2.21875 C 2.628906 -4 1.671875 -6.3125 1.671875 -9.15625 C 1.671875 -12.007812 2.628906 -14.320312 4.546875 -16.09375 C 6.472656 -17.875 8.835938 -18.765625 11.640625 -18.765625 Z M 6.25 -9.15625 C 6.25 -7.53125 6.765625 -6.207031 7.796875 -5.1875 C 8.828125 -4.164062 10.109375 -3.65625 11.640625 -3.65625 C 13.191406 -3.65625 14.472656 -4.171875 15.484375 -5.203125 C 16.503906 -6.234375 17.015625 -7.550781 17.015625 -9.15625 C 17.015625 -10.78125 16.5 -12.101562 15.46875 -13.125 C 14.4375 -14.144531 13.144531 -14.65625 11.59375 -14.65625 C 10.09375 -14.65625 8.828125 -14.128906 7.796875 -13.078125 C 6.765625 -12.035156 6.25 -10.726562 6.25 -9.15625 Z M 6.25 -9.15625 "/></g></g></g><g fill="#343434" fill-opacity="1"><g transform="translate(241.691721, 183.610594)"><g><path d="M 7.828125 -28.84375 L 7.828125 0 L 2.09375 0 L 2.09375 -28.84375 Z M 7.828125 -28.84375 "/></g></g></g><g fill="#343434" fill-opacity="1"><g transform="translate(250.388351, 183.610594)"><g><path d="M 10.453125 -19 C 13.398438 -19 15.546875 -18.285156 16.890625 -16.859375 C 18.242188 -15.441406 18.921875 -13.050781 18.921875 -9.6875 L 18.921875 0 L 13.65625 0 L 13.65625 -2.328125 L 13.578125 -2.328125 C 12.390625 -0.472656 10.429688 0.453125 7.703125 0.453125 C 5.773438 0.453125 4.191406 -0.0703125 2.953125 -1.125 C 1.722656 -2.175781 1.109375 -3.554688 1.109375 -5.265625 C 1.109375 -6.742188 1.523438 -7.972656 2.359375 -8.953125 C 3.203125 -9.929688 4.46875 -10.648438 6.15625 -11.109375 C 7.851562 -11.566406 10.351562 -11.796875 13.65625 -11.796875 C 13.65625 -12.785156 13.285156 -13.582031 12.546875 -14.1875 C 11.816406 -14.800781 10.96875 -15.109375 10 -15.109375 C 8.21875 -15.109375 6.664062 -14.367188 5.34375 -12.890625 L 2.296875 -16.03125 C 3.359375 -17.070312 4.617188 -17.828125 6.078125 -18.296875 C 7.546875 -18.765625 9.003906 -19 10.453125 -19 Z M 6.59375 -5.453125 C 6.59375 -4.847656 6.851562 -4.359375 7.375 -3.984375 C 7.90625 -3.617188 8.5625 -3.4375 9.34375 -3.4375 C 10.613281 -3.4375 11.648438 -3.757812 12.453125 -4.40625 C 13.253906 -5.050781 13.65625 -5.894531 13.65625 -6.9375 L 13.65625 -8.125 L 11.9375 -8.125 C 10.207031 -8.125 8.882812 -7.890625 7.96875 -7.421875 C 7.050781 -6.953125 6.59375 -6.296875 6.59375 -5.453125 Z M 6.59375 -5.453125 "/></g></g></g><g fill="#343434" fill-opacity="1"><g transform="translate(269.651023, 183.610594)"><g><path d="M 13.203125 -19 C 13.992188 -19 14.617188 -18.9375 15.078125 -18.8125 L 15.078125 -13.578125 C 14.210938 -13.835938 13.394531 -13.96875 12.625 -13.96875 C 10.894531 -13.96875 9.648438 -13.539062 8.890625 -12.6875 C 8.128906 -11.832031 7.75 -10.257812 7.75 -7.96875 L 7.75 0 L 2.015625 0 L 2.015625 -18.546875 L 7.75 -18.546875 L 7.75 -15.5625 L 7.828125 -15.5625 C 8.429688 -16.707031 9.148438 -17.566406 9.984375 -18.140625 C 10.828125 -18.710938 11.898438 -19 13.203125 -19 Z M 13.203125 -19 "/></g></g></g><g fill="#343434" fill-opacity="1"><g transform="translate(283.954904, 183.610594)"><g><path d="M 5.921875 -18.546875 L 9.6875 -6.90625 L 9.765625 -6.90625 L 12.9375 -18.546875 L 19.1875 -18.546875 L 22.625 -6.90625 L 22.703125 -6.90625 L 26.171875 -18.546875 L 31.96875 -18.546875 L 25.375 0 L 19.734375 0 L 15.875 -12.328125 L 15.796875 -12.328125 L 12.359375 0 L 6.59375 0 L -0.1875 -18.546875 Z M 5.921875 -18.546875 "/></g></g></g><g fill="#343434" fill-opacity="1"><g transform="translate(314.508372, 183.610594)"><g><path d="M 1.453125 -9.265625 C 1.453125 -12.117188 2.414062 -14.453125 4.34375 -16.265625 C 6.28125 -18.085938 8.800781 -19 11.90625 -19 C 14.5 -19 16.570312 -18.101562 18.125 -16.3125 C 19.675781 -14.519531 20.453125 -12.109375 20.453125 -9.078125 L 20.453125 -7.484375 L 7.171875 -7.484375 C 7.398438 -6.410156 7.882812 -5.539062 8.625 -4.875 C 9.363281 -4.21875 10.316406 -3.890625 11.484375 -3.890625 C 13.054688 -3.890625 14.414062 -4.640625 15.5625 -6.140625 L 19.578125 -3.203125 C 18.660156 -2.035156 17.484375 -1.132812 16.046875 -0.5 C 14.609375 0.132812 13.175781 0.453125 11.75 0.453125 C 8.800781 0.453125 6.347656 -0.453125 4.390625 -2.265625 C 2.429688 -4.085938 1.453125 -6.421875 1.453125 -9.265625 Z M 14.734375 -11.375 C 14.734375 -12.4375 14.390625 -13.285156 13.703125 -13.921875 C 13.015625 -14.554688 12.175781 -14.875 11.1875 -14.875 C 10.113281 -14.875 9.203125 -14.554688 8.453125 -13.921875 C 7.703125 -13.285156 7.273438 -12.4375 7.171875 -11.375 Z M 14.734375 -11.375 "/></g></g></g><g fill="#343434" fill-opacity="1"><g transform="translate(335.182398, 183.610594)"><g><path d="M 7.828125 -28.84375 L 7.828125 0 L 2.09375 0 L 2.09375 -28.84375 Z M 7.828125 -28.84375 "/></g></g></g><g fill="#343434" fill-opacity="1"><g transform="translate(343.879032, 183.610594)"><g><path d="M 9.609375 -24.03125 L 9.609375 -18.546875 L 14.65625 -18.546875 L 14.65625 -13.96875 L 9.609375 -13.96875 L 9.609375 -7.4375 C 9.609375 -6.289062 9.816406 -5.488281 10.234375 -5.03125 C 10.660156 -4.570312 11.359375 -4.34375 12.328125 -4.34375 C 13.523438 -4.34375 14.300781 -4.523438 14.65625 -4.890625 L 14.65625 -0.109375 C 13.5625 0.265625 12.222656 0.453125 10.640625 0.453125 C 8.398438 0.453125 6.710938 -0.0351562 5.578125 -1.015625 C 4.453125 -1.992188 3.890625 -3.320312 3.890625 -5 L 3.890625 -13.96875 L 0.234375 -13.96875 L 0.234375 -18.546875 L 3.890625 -18.546875 L 3.890625 -24.03125 Z M 9.609375 -24.03125 "/></g></g></g><g fill="#343434" fill-opacity="1"><g transform="translate(358.176092, 183.610594)"><g/></g></g><g fill="#343434" fill-opacity="1"><g transform="translate(198.97688, 217.360591)"><g><path d="M 8.921875 -27.015625 L 8.921875 -5.5 L 19.953125 -5.5 L 19.953125 0 L 2.96875 0 L 2.96875 -27.015625 Z M 8.921875 -27.015625 "/></g></g></g><g fill="#343434" fill-opacity="1"><g transform="translate(218.239553, 217.360591)"><g><path d="M 4.953125 -27.703125 C 5.847656 -27.703125 6.625 -27.382812 7.28125 -26.75 C 7.945312 -26.113281 8.28125 -25.320312 8.28125 -24.375 C 8.28125 -23.4375 7.945312 -22.648438 7.28125 -22.015625 C 6.625 -21.378906 5.847656 -21.0625 4.953125 -21.0625 C 4.015625 -21.0625 3.226562 -21.390625 2.59375 -22.046875 C 1.957031 -22.710938 1.640625 -23.488281 1.640625 -24.375 C 1.640625 -25.320312 1.96875 -26.113281 2.625 -26.75 C 3.289062 -27.382812 4.066406 -27.703125 4.953125 -27.703125 Z M 7.828125 -18.546875 L 7.828125 0 L 2.09375 0 L 2.09375 -18.546875 Z M 7.828125 -18.546875 "/></g></g></g><g fill="#343434" fill-opacity="1"><g transform="translate(226.936182, 217.360591)"><g><path d="M 13.578125 -19 C 16.304688 -19 18.507812 -18.101562 20.1875 -16.3125 C 21.863281 -14.519531 22.703125 -12.222656 22.703125 -9.421875 C 22.703125 -6.597656 21.90625 -4.242188 20.3125 -2.359375 C 18.726562 -0.484375 16.703125 0.453125 14.234375 0.453125 C 11.515625 0.453125 9.554688 -0.359375 8.359375 -1.984375 L 8.28125 -1.984375 L 8.28125 8.703125 L 2.5625 8.703125 L 2.5625 -18.546875 L 7.828125 -18.546875 L 7.828125 -16.109375 L 7.890625 -16.109375 C 8.535156 -16.992188 9.367188 -17.695312 10.390625 -18.21875 C 11.421875 -18.738281 12.484375 -19 13.578125 -19 Z M 7.828125 -9.265625 C 7.828125 -7.867188 8.234375 -6.738281 9.046875 -5.875 C 9.859375 -5.007812 10.976562 -4.578125 12.40625 -4.578125 C 13.800781 -4.578125 14.910156 -4.992188 15.734375 -5.828125 C 16.566406 -6.671875 16.984375 -7.816406 16.984375 -9.265625 C 16.984375 -10.722656 16.566406 -11.867188 15.734375 -12.703125 C 14.910156 -13.546875 13.785156 -13.96875 12.359375 -13.96875 C 10.960938 -13.96875 9.859375 -13.523438 9.046875 -12.640625 C 8.234375 -11.765625 7.828125 -10.640625 7.828125 -9.265625 Z M 7.828125 -9.265625 "/></g></g></g><g fill="#343434" fill-opacity="1"><g transform="translate(249.746307, 217.360591)"><g><path d="M 13.578125 -19 C 16.304688 -19 18.507812 -18.101562 20.1875 -16.3125 C 21.863281 -14.519531 22.703125 -12.222656 22.703125 -9.421875 C 22.703125 -6.597656 21.90625 -4.242188 20.3125 -2.359375 C 18.726562 -0.484375 16.703125 0.453125 14.234375 0.453125 C 11.515625 0.453125 9.554688 -0.359375 8.359375 -1.984375 L 8.28125 -1.984375 L 8.28125 8.703125 L 2.5625 8.703125 L 2.5625 -18.546875 L 7.828125 -18.546875 L 7.828125 -16.109375 L 7.890625 -16.109375 C 8.535156 -16.992188 9.367188 -17.695312 10.390625 -18.21875 C 11.421875 -18.738281 12.484375 -19 13.578125 -19 Z M 7.828125 -9.265625 C 7.828125 -7.867188 8.234375 -6.738281 9.046875 -5.875 C 9.859375 -5.007812 10.976562 -4.578125 12.40625 -4.578125 C 13.800781 -4.578125 14.910156 -4.992188 15.734375 -5.828125 C 16.566406 -6.671875 16.984375 -7.816406 16.984375 -9.265625 C 16.984375 -10.722656 16.566406 -11.867188 15.734375 -12.703125 C 14.910156 -13.546875 13.785156 -13.96875 12.359375 -13.96875 C 10.960938 -13.96875 9.859375 -13.523438 9.046875 -12.640625 C 8.234375 -11.765625 7.828125 -10.640625 7.828125 -9.265625 Z M 7.828125 -9.265625 "/></g></g></g><g fill="#343434" fill-opacity="1"><g transform="translate(272.556429, 217.360591)"><g><path d="M 1.453125 -9.265625 C 1.453125 -12.117188 2.414062 -14.453125 4.34375 -16.265625 C 6.28125 -18.085938 8.800781 -19 11.90625 -19 C 14.5 -19 16.570312 -18.101562 18.125 -16.3125 C 19.675781 -14.519531 20.453125 -12.109375 20.453125 -9.078125 L 20.453125 -7.484375 L 7.171875 -7.484375 C 7.398438 -6.410156 7.882812 -5.539062 8.625 -4.875 C 9.363281 -4.21875 10.316406 -3.890625 11.484375 -3.890625 C 13.054688 -3.890625 14.414062 -4.640625 15.5625 -6.140625 L 19.578125 -3.203125 C 18.660156 -2.035156 17.484375 -1.132812 16.046875 -0.5 C 14.609375 0.132812 13.175781 0.453125 11.75 0.453125 C 8.800781 0.453125 6.347656 -0.453125 4.390625 -2.265625 C 2.429688 -4.085938 1.453125 -6.421875 1.453125 -9.265625 Z M 14.734375 -11.375 C 14.734375 -12.4375 14.390625 -13.285156 13.703125 -13.921875 C 13.015625 -14.554688 12.175781 -14.875 11.1875 -14.875 C 10.113281 -14.875 9.203125 -14.554688 8.453125 -13.921875 C 7.703125 -13.285156 7.273438 -12.4375 7.171875 -11.375 Z M 14.734375 -11.375 "/></g></g></g></svg>