<svg xmlns="http://www.w3.org/2000/svg" xmlns:xlink="http://www.w3.org/1999/xlink" width="500" zoomAndPan="magnify" viewBox="0 0 375 374.999991" height="500" preserveAspectRatio="xMidYMid meet" version="1.0"><defs><g/><clipPath id="f60ccb0d46"><path d="M 35.988281 111.707031 L 194.613281 111.707031 L 194.613281 270.335938 L 35.988281 270.335938 Z M 35.988281 111.707031 " clip-rule="nonzero"/></clipPath><clipPath id="b38a8e7c0f"><path d="M 115.300781 111.707031 C 71.496094 111.707031 35.988281 147.21875 35.988281 191.019531 C 35.988281 234.824219 71.496094 270.335938 115.300781 270.335938 C 159.105469 270.335938 194.613281 234.824219 194.613281 191.019531 C 194.613281 147.21875 159.105469 111.707031 115.300781 111.707031 " clip-rule="nonzero"/></clipPath><clipPath id="c53796d83f"><path d="M 32.464844 108.1875 L 185.109375 108.1875 L 185.109375 260.828125 L 32.464844 260.828125 Z M 32.464844 108.1875 " clip-rule="nonzero"/></clipPath><clipPath id="bbd9358908"><path d="M 108.789062 108.1875 C 66.636719 108.1875 32.464844 142.355469 32.464844 184.507812 C 32.464844 226.65625 66.636719 260.828125 108.789062 260.828125 C 150.9375 260.828125 185.109375 226.65625 185.109375 184.507812 C 185.109375 142.355469 150.9375 108.1875 108.789062 108.1875 " clip-rule="nonzero"/></clipPath><clipPath id="2f450391e0"><path d="M 55.089844 142.695312 L 175.511719 142.695312 L 175.511719 263.117188 L 55.089844 263.117188 Z M 55.089844 142.695312 " clip-rule="nonzero"/></clipPath><clipPath id="cb1079ecf2"><path d="M 115.300781 142.695312 C 82.046875 142.695312 55.089844 169.652344 55.089844 202.90625 C 55.089844 236.160156 82.046875 263.117188 115.300781 263.117188 C 148.554688 263.117188 175.511719 236.160156 175.511719 202.90625 C 175.511719 169.652344 148.554688 142.695312 115.300781 142.695312 " clip-rule="nonzero"/></clipPath><clipPath id="c734e7c68a"><path d="M 44.109375 120.730469 L 186.492188 120.730469 L 186.492188 263.117188 L 44.109375 263.117188 Z M 44.109375 120.730469 " clip-rule="nonzero"/></clipPath><clipPath id="f504c9fa2f"><path d="M 115.300781 120.730469 C 75.984375 120.730469 44.109375 152.605469 44.109375 191.925781 C 44.109375 231.242188 75.984375 263.117188 115.300781 263.117188 C 154.621094 263.117188 186.492188 231.242188 186.492188 191.925781 C 186.492188 152.605469 154.621094 120.730469 115.300781 120.730469 " clip-rule="nonzero"/></clipPath><clipPath id="9f14d59445"><path d="M 46 118 L 184 118 L 184 257 L 46 257 Z M 46 118 " clip-rule="nonzero"/></clipPath><clipPath id="5122dbb83f"><path d="M 23.757812 155.550781 L 147.25 95.953125 L 206.847656 219.441406 L 83.359375 279.042969 Z M 23.757812 155.550781 " clip-rule="nonzero"/></clipPath><clipPath id="b32c8e1e2b"><path d="M 85.503906 125.753906 C 51.402344 142.210938 37.101562 183.195312 53.558594 217.296875 C 70.015625 251.398438 111 265.699219 145.101562 249.242188 C 179.203125 232.785156 193.503906 191.796875 177.046875 157.699219 C 160.589844 123.597656 119.605469 109.292969 85.503906 125.753906 " clip-rule="nonzero"/></clipPath><clipPath id="a8d9a6ec90"><path d="M 61.910156 128.191406 L 187.574219 128.191406 L 187.574219 253.851562 L 61.910156 253.851562 Z M 61.910156 128.191406 " clip-rule="nonzero"/></clipPath><clipPath id="f4596deb8e"><path d="M 124.742188 128.191406 C 90.039062 128.191406 61.910156 156.320312 61.910156 191.019531 C 61.910156 225.722656 90.039062 253.851562 124.742188 253.851562 C 159.441406 253.851562 187.574219 225.722656 187.574219 191.019531 C 187.574219 156.320312 159.441406 128.191406 124.742188 128.191406 " clip-rule="nonzero"/></clipPath><clipPath id="4ca41d333c"><path d="M 69.285156 135.5625 L 180.199219 135.5625 L 180.199219 246.480469 L 69.285156 246.480469 Z M 69.285156 135.5625 " clip-rule="nonzero"/></clipPath><clipPath id="aae2a607c6"><path d="M 124.742188 135.5625 C 94.113281 135.5625 69.285156 160.394531 69.285156 191.019531 C 69.285156 221.648438 94.113281 246.480469 124.742188 246.480469 C 155.371094 246.480469 180.199219 221.648438 180.199219 191.019531 C 180.199219 160.394531 155.371094 135.5625 124.742188 135.5625 " clip-rule="nonzero"/></clipPath></defs><g clip-path="url(#f60ccb0d46)"><g clip-path="url(#b38a8e7c0f)"><path fill="#ffde59" d="M 35.988281 111.707031 L 194.613281 111.707031 L 194.613281 270.335938 L 35.988281 270.335938 Z M 35.988281 111.707031 " fill-opacity="1" fill-rule="nonzero"/></g></g><g clip-path="url(#c53796d83f)"><g clip-path="url(#bbd9358908)"><path fill="#ffffff" d="M 32.464844 108.1875 L 185.109375 108.1875 L 185.109375 260.828125 L 32.464844 260.828125 Z M 32.464844 108.1875 " fill-opacity="1" fill-rule="nonzero"/></g></g><g clip-path="url(#2f450391e0)"><g clip-path="url(#cb1079ecf2)"><path fill="#ffffff" d="M 55.089844 142.695312 L 175.511719 142.695312 L 175.511719 263.117188 L 55.089844 263.117188 Z M 55.089844 142.695312 " fill-opacity="1" fill-rule="nonzero"/></g></g><g clip-path="url(#c734e7c68a)"><g clip-path="url(#f504c9fa2f)"><path fill="#ffffff" d="M 44.109375 120.730469 L 186.492188 120.730469 L 186.492188 263.117188 L 44.109375 263.117188 Z M 44.109375 120.730469 " fill-opacity="1" fill-rule="nonzero"/></g></g><g clip-path="url(#9f14d59445)"><g clip-path="url(#5122dbb83f)"><g clip-path="url(#b32c8e1e2b)"><path fill="#ffbd59" d="M 23.757812 155.550781 L 147.25 95.953125 L 206.847656 219.441406 L 83.359375 279.042969 Z M 23.757812 155.550781 " fill-opacity="1" fill-rule="nonzero"/></g></g></g><g clip-path="url(#a8d9a6ec90)"><g clip-path="url(#f4596deb8e)"><path fill="#ffffff" d="M 61.910156 128.191406 L 187.574219 128.191406 L 187.574219 253.851562 L 61.910156 253.851562 Z M 61.910156 128.191406 " fill-opacity="1" fill-rule="nonzero"/></g></g><g clip-path="url(#4ca41d333c)"><g clip-path="url(#aae2a607c6)"><path fill="#ff914d" d="M 69.285156 135.5625 L 180.199219 135.5625 L 180.199219 246.480469 L 69.285156 246.480469 Z M 69.285156 135.5625 " fill-opacity="1" fill-rule="nonzero"/></g></g><g fill="#343434" fill-opacity="1"><g transform="translate(206.845786, 188.185768)"><g><path d="M 9.609375 0.1875 C 7.984375 0.1875 6.421875 -0.0703125 4.921875 -0.59375 C 3.429688 -1.113281 2.28125 -1.800781 1.46875 -2.65625 L 2.375 -4.4375 C 3.164062 -3.644531 4.21875 -3.003906 5.53125 -2.515625 C 6.851562 -2.023438 8.210938 -1.78125 9.609375 -1.78125 C 11.566406 -1.78125 13.035156 -2.140625 14.015625 -2.859375 C 14.992188 -3.578125 15.484375 -4.515625 15.484375 -5.671875 C 15.484375 -6.546875 15.21875 -7.242188 14.6875 -7.765625 C 14.15625 -8.285156 13.503906 -8.6875 12.734375 -8.96875 C 11.960938 -9.25 10.890625 -9.554688 9.515625 -9.890625 C 7.867188 -10.304688 6.550781 -10.707031 5.5625 -11.09375 C 4.582031 -11.476562 3.742188 -12.066406 3.046875 -12.859375 C 2.347656 -13.648438 2 -14.726562 2 -16.09375 C 2 -17.195312 2.289062 -18.203125 2.875 -19.109375 C 3.457031 -20.015625 4.351562 -20.738281 5.5625 -21.28125 C 6.78125 -21.820312 8.285156 -22.09375 10.078125 -22.09375 C 11.328125 -22.09375 12.550781 -21.921875 13.75 -21.578125 C 14.945312 -21.234375 15.988281 -20.757812 16.875 -20.15625 L 16.09375 -18.3125 C 15.164062 -18.914062 14.179688 -19.367188 13.140625 -19.671875 C 12.097656 -19.972656 11.078125 -20.125 10.078125 -20.125 C 8.160156 -20.125 6.710938 -19.753906 5.734375 -19.015625 C 4.765625 -18.273438 4.28125 -17.320312 4.28125 -16.15625 C 4.28125 -15.269531 4.546875 -14.5625 5.078125 -14.03125 C 5.617188 -13.5 6.289062 -13.09375 7.09375 -12.8125 C 7.894531 -12.53125 8.972656 -12.222656 10.328125 -11.890625 C 11.929688 -11.492188 13.226562 -11.101562 14.21875 -10.71875 C 15.21875 -10.332031 16.0625 -9.75 16.75 -8.96875 C 17.4375 -8.1875 17.78125 -7.128906 17.78125 -5.796875 C 17.78125 -4.679688 17.484375 -3.671875 16.890625 -2.765625 C 16.296875 -1.859375 15.378906 -1.140625 14.140625 -0.609375 C 12.910156 -0.078125 11.398438 0.1875 9.609375 0.1875 Z M 9.609375 0.1875 "/></g></g></g><g fill="#343434" fill-opacity="1"><g transform="translate(225.086945, 188.185768)"><g><path d="M 9.828125 0.15625 C 8.242188 0.15625 6.8125 -0.203125 5.53125 -0.921875 C 4.257812 -1.640625 3.257812 -2.632812 2.53125 -3.90625 C 1.800781 -5.1875 1.4375 -6.628906 1.4375 -8.234375 C 1.4375 -9.835938 1.800781 -11.273438 2.53125 -12.546875 C 3.257812 -13.816406 4.257812 -14.804688 5.53125 -15.515625 C 6.8125 -16.234375 8.242188 -16.59375 9.828125 -16.59375 C 11.410156 -16.59375 12.835938 -16.234375 14.109375 -15.515625 C 15.390625 -14.804688 16.390625 -13.816406 17.109375 -12.546875 C 17.828125 -11.273438 18.1875 -9.835938 18.1875 -8.234375 C 18.1875 -6.628906 17.828125 -5.1875 17.109375 -3.90625 C 16.390625 -2.632812 15.390625 -1.640625 14.109375 -0.921875 C 12.835938 -0.203125 11.410156 0.15625 9.828125 0.15625 Z M 9.828125 -1.8125 C 10.992188 -1.8125 12.039062 -2.078125 12.96875 -2.609375 C 13.894531 -3.140625 14.617188 -3.894531 15.140625 -4.875 C 15.671875 -5.863281 15.9375 -6.984375 15.9375 -8.234375 C 15.9375 -9.484375 15.671875 -10.597656 15.140625 -11.578125 C 14.617188 -12.554688 13.894531 -13.3125 12.96875 -13.84375 C 12.039062 -14.375 10.992188 -14.640625 9.828125 -14.640625 C 8.660156 -14.640625 7.613281 -14.375 6.6875 -13.84375 C 5.757812 -13.3125 5.023438 -12.554688 4.484375 -11.578125 C 3.953125 -10.597656 3.6875 -9.484375 3.6875 -8.234375 C 3.6875 -6.984375 3.953125 -5.863281 4.484375 -4.875 C 5.023438 -3.894531 5.757812 -3.140625 6.6875 -2.609375 C 7.613281 -2.078125 8.660156 -1.8125 9.828125 -1.8125 Z M 9.828125 -1.8125 "/></g></g></g><g fill="#343434" fill-opacity="1"><g transform="translate(243.703573, 188.185768)"><g><path d="M 3.09375 -23.21875 L 5.328125 -23.21875 L 5.328125 0 L 3.09375 0 Z M 3.09375 -23.21875 "/></g></g></g><g fill="#343434" fill-opacity="1"><g transform="translate(251.118726, 188.185768)"><g><path d="M 8.859375 -16.59375 C 11.003906 -16.59375 12.648438 -16.050781 13.796875 -14.96875 C 14.941406 -13.894531 15.515625 -12.304688 15.515625 -10.203125 L 15.515625 0 L 13.390625 0 L 13.390625 -2.5625 C 12.890625 -1.707031 12.15625 -1.039062 11.1875 -0.5625 C 10.21875 -0.0820312 9.066406 0.15625 7.734375 0.15625 C 5.890625 0.15625 4.425781 -0.28125 3.34375 -1.15625 C 2.257812 -2.03125 1.71875 -3.1875 1.71875 -4.625 C 1.71875 -6.03125 2.222656 -7.160156 3.234375 -8.015625 C 4.242188 -8.867188 5.859375 -9.296875 8.078125 -9.296875 L 13.296875 -9.296875 L 13.296875 -10.296875 C 13.296875 -11.710938 12.898438 -12.789062 12.109375 -13.53125 C 11.316406 -14.269531 10.160156 -14.640625 8.640625 -14.640625 C 7.597656 -14.640625 6.59375 -14.46875 5.625 -14.125 C 4.664062 -13.78125 3.84375 -13.304688 3.15625 -12.703125 L 2.15625 -14.359375 C 2.988281 -15.066406 3.988281 -15.613281 5.15625 -16 C 6.332031 -16.394531 7.566406 -16.59375 8.859375 -16.59375 Z M 8.078125 -1.59375 C 9.328125 -1.59375 10.398438 -1.878906 11.296875 -2.453125 C 12.191406 -3.023438 12.859375 -3.851562 13.296875 -4.9375 L 13.296875 -7.640625 L 8.140625 -7.640625 C 5.316406 -7.640625 3.90625 -6.65625 3.90625 -4.6875 C 3.90625 -3.726562 4.269531 -2.972656 5 -2.421875 C 5.738281 -1.867188 6.765625 -1.59375 8.078125 -1.59375 Z M 8.078125 -1.59375 "/></g></g></g><g fill="#343434" fill-opacity="1"><g transform="translate(268.577657, 188.185768)"><g><path d="M 5.234375 -13.234375 C 5.753906 -14.335938 6.53125 -15.171875 7.5625 -15.734375 C 8.59375 -16.304688 9.867188 -16.59375 11.390625 -16.59375 L 11.390625 -14.421875 L 10.859375 -14.453125 C 9.128906 -14.453125 7.773438 -13.921875 6.796875 -12.859375 C 5.816406 -11.796875 5.328125 -10.304688 5.328125 -8.390625 L 5.328125 0 L 3.09375 0 L 3.09375 -16.46875 L 5.234375 -16.46875 Z M 5.234375 -13.234375 "/></g></g></g><g fill="#343434" fill-opacity="1"><g transform="translate(280.122959, 188.185768)"><g><path d="M 27.265625 -16.46875 L 21.03125 0 L 18.9375 0 L 13.734375 -13.484375 L 8.546875 0 L 6.453125 0 L 0.25 -16.46875 L 2.375 -16.46875 L 7.546875 -2.46875 L 12.828125 -16.46875 L 14.734375 -16.46875 L 20 -2.46875 L 25.21875 -16.46875 Z M 27.265625 -16.46875 "/></g></g></g><g fill="#343434" fill-opacity="1"><g transform="translate(306.624436, 188.185768)"><g><path d="M 17.4375 -7.546875 L 3.65625 -7.546875 C 3.78125 -5.828125 4.4375 -4.441406 5.625 -3.390625 C 6.820312 -2.335938 8.328125 -1.8125 10.140625 -1.8125 C 11.160156 -1.8125 12.097656 -1.992188 12.953125 -2.359375 C 13.804688 -2.722656 14.546875 -3.257812 15.171875 -3.96875 L 16.4375 -2.53125 C 15.695312 -1.65625 14.78125 -0.988281 13.6875 -0.53125 C 12.59375 -0.0703125 11.390625 0.15625 10.078125 0.15625 C 8.390625 0.15625 6.890625 -0.203125 5.578125 -0.921875 C 4.273438 -1.640625 3.257812 -2.632812 2.53125 -3.90625 C 1.800781 -5.1875 1.4375 -6.628906 1.4375 -8.234375 C 1.4375 -9.835938 1.785156 -11.273438 2.484375 -12.546875 C 3.179688 -13.816406 4.140625 -14.804688 5.359375 -15.515625 C 6.585938 -16.234375 7.960938 -16.59375 9.484375 -16.59375 C 11.003906 -16.59375 12.367188 -16.234375 13.578125 -15.515625 C 14.785156 -14.804688 15.734375 -13.820312 16.421875 -12.5625 C 17.117188 -11.300781 17.46875 -9.859375 17.46875 -8.234375 Z M 9.484375 -14.671875 C 7.898438 -14.671875 6.566406 -14.164062 5.484375 -13.15625 C 4.410156 -12.144531 3.800781 -10.828125 3.65625 -9.203125 L 15.328125 -9.203125 C 15.179688 -10.828125 14.570312 -12.144531 13.5 -13.15625 C 12.425781 -14.164062 11.085938 -14.671875 9.484375 -14.671875 Z M 9.484375 -14.671875 "/></g></g></g><g fill="#343434" fill-opacity="1"><g transform="translate(324.521414, 188.185768)"><g><path d="M 3.09375 -23.21875 L 5.328125 -23.21875 L 5.328125 0 L 3.09375 0 Z M 3.09375 -23.21875 "/></g></g></g><g fill="#343434" fill-opacity="1"><g transform="translate(331.936567, 188.185768)"><g><path d="M 11.765625 -1 C 11.347656 -0.625 10.832031 -0.335938 10.21875 -0.140625 C 9.601562 0.0546875 8.960938 0.15625 8.296875 0.15625 C 6.753906 0.15625 5.5625 -0.257812 4.71875 -1.09375 C 3.882812 -1.925781 3.46875 -3.101562 3.46875 -4.625 L 3.46875 -14.578125 L 0.53125 -14.578125 L 0.53125 -16.46875 L 3.46875 -16.46875 L 3.46875 -20.0625 L 5.703125 -20.0625 L 5.703125 -16.46875 L 10.703125 -16.46875 L 10.703125 -14.578125 L 5.703125 -14.578125 L 5.703125 -4.75 C 5.703125 -3.769531 5.945312 -3.023438 6.4375 -2.515625 C 6.925781 -2.003906 7.628906 -1.75 8.546875 -1.75 C 9.003906 -1.75 9.445312 -1.820312 9.875 -1.96875 C 10.300781 -2.113281 10.671875 -2.320312 10.984375 -2.59375 Z M 11.765625 -1 "/></g></g></g><g fill="#343434" fill-opacity="1"><g transform="translate(343.627027, 188.185768)"><g/></g></g><g fill="#343434" fill-opacity="1"><g transform="translate(206.845786, 215.935767)"><g><path d="M 3.5625 -21.90625 L 5.890625 -21.90625 L 5.890625 -2 L 18.15625 -2 L 18.15625 0 L 3.5625 0 Z M 3.5625 -21.90625 "/></g></g></g><g fill="#343434" fill-opacity="1"><g transform="translate(224.27343, 215.935767)"><g><path d="M 3.09375 -16.46875 L 5.328125 -16.46875 L 5.328125 0 L 3.09375 0 Z M 4.21875 -20.0625 C 3.757812 -20.0625 3.375 -20.21875 3.0625 -20.53125 C 2.75 -20.84375 2.59375 -21.21875 2.59375 -21.65625 C 2.59375 -22.070312 2.75 -22.4375 3.0625 -22.75 C 3.375 -23.0625 3.757812 -23.21875 4.21875 -23.21875 C 4.675781 -23.21875 5.0625 -23.066406 5.375 -22.765625 C 5.6875 -22.460938 5.84375 -22.101562 5.84375 -21.6875 C 5.84375 -21.226562 5.6875 -20.84375 5.375 -20.53125 C 5.0625 -20.21875 4.675781 -20.0625 4.21875 -20.0625 Z M 4.21875 -20.0625 "/></g></g></g><g fill="#343434" fill-opacity="1"><g transform="translate(231.688582, 215.935767)"><g><path d="M 11.578125 -16.59375 C 13.117188 -16.59375 14.515625 -16.238281 15.765625 -15.53125 C 17.023438 -14.832031 18.007812 -13.847656 18.71875 -12.578125 C 19.425781 -11.304688 19.78125 -9.859375 19.78125 -8.234375 C 19.78125 -6.585938 19.425781 -5.125 18.71875 -3.84375 C 18.007812 -2.570312 17.03125 -1.585938 15.78125 -0.890625 C 14.539062 -0.191406 13.140625 0.15625 11.578125 0.15625 C 10.242188 0.15625 9.039062 -0.117188 7.96875 -0.671875 C 6.894531 -1.222656 6.015625 -2.03125 5.328125 -3.09375 L 5.328125 6.078125 L 3.09375 6.078125 L 3.09375 -16.46875 L 5.234375 -16.46875 L 5.234375 -13.203125 C 5.898438 -14.285156 6.78125 -15.117188 7.875 -15.703125 C 8.96875 -16.296875 10.203125 -16.59375 11.578125 -16.59375 Z M 11.421875 -1.8125 C 12.566406 -1.8125 13.609375 -2.078125 14.546875 -2.609375 C 15.492188 -3.140625 16.234375 -3.894531 16.765625 -4.875 C 17.296875 -5.863281 17.5625 -6.984375 17.5625 -8.234375 C 17.5625 -9.484375 17.296875 -10.59375 16.765625 -11.5625 C 16.234375 -12.53125 15.492188 -13.285156 14.546875 -13.828125 C 13.609375 -14.367188 12.566406 -14.640625 11.421875 -14.640625 C 10.253906 -14.640625 9.207031 -14.367188 8.28125 -13.828125 C 7.351562 -13.285156 6.625 -12.53125 6.09375 -11.5625 C 5.5625 -10.59375 5.296875 -9.484375 5.296875 -8.234375 C 5.296875 -6.984375 5.5625 -5.863281 6.09375 -4.875 C 6.625 -3.894531 7.351562 -3.140625 8.28125 -2.609375 C 9.207031 -2.078125 10.253906 -1.8125 11.421875 -1.8125 Z M 11.421875 -1.8125 "/></g></g></g><g fill="#343434" fill-opacity="1"><g transform="translate(251.900949, 215.935767)"><g><path d="M 11.578125 -16.59375 C 13.117188 -16.59375 14.515625 -16.238281 15.765625 -15.53125 C 17.023438 -14.832031 18.007812 -13.847656 18.71875 -12.578125 C 19.425781 -11.304688 19.78125 -9.859375 19.78125 -8.234375 C 19.78125 -6.585938 19.425781 -5.125 18.71875 -3.84375 C 18.007812 -2.570312 17.03125 -1.585938 15.78125 -0.890625 C 14.539062 -0.191406 13.140625 0.15625 11.578125 0.15625 C 10.242188 0.15625 9.039062 -0.117188 7.96875 -0.671875 C 6.894531 -1.222656 6.015625 -2.03125 5.328125 -3.09375 L 5.328125 6.078125 L 3.09375 6.078125 L 3.09375 -16.46875 L 5.234375 -16.46875 L 5.234375 -13.203125 C 5.898438 -14.285156 6.78125 -15.117188 7.875 -15.703125 C 8.96875 -16.296875 10.203125 -16.59375 11.578125 -16.59375 Z M 11.421875 -1.8125 C 12.566406 -1.8125 13.609375 -2.078125 14.546875 -2.609375 C 15.492188 -3.140625 16.234375 -3.894531 16.765625 -4.875 C 17.296875 -5.863281 17.5625 -6.984375 17.5625 -8.234375 C 17.5625 -9.484375 17.296875 -10.59375 16.765625 -11.5625 C 16.234375 -12.53125 15.492188 -13.285156 14.546875 -13.828125 C 13.609375 -14.367188 12.566406 -14.640625 11.421875 -14.640625 C 10.253906 -14.640625 9.207031 -14.367188 8.28125 -13.828125 C 7.351562 -13.285156 6.625 -12.53125 6.09375 -11.5625 C 5.5625 -10.59375 5.296875 -9.484375 5.296875 -8.234375 C 5.296875 -6.984375 5.5625 -5.863281 6.09375 -4.875 C 6.625 -3.894531 7.351562 -3.140625 8.28125 -2.609375 C 9.207031 -2.078125 10.253906 -1.8125 11.421875 -1.8125 Z M 11.421875 -1.8125 "/></g></g></g><g fill="#343434" fill-opacity="1"><g transform="translate(272.113319, 215.935767)"><g><path d="M 17.4375 -7.546875 L 3.65625 -7.546875 C 3.78125 -5.828125 4.4375 -4.441406 5.625 -3.390625 C 6.820312 -2.335938 8.328125 -1.8125 10.140625 -1.8125 C 11.160156 -1.8125 12.097656 -1.992188 12.953125 -2.359375 C 13.804688 -2.722656 14.546875 -3.257812 15.171875 -3.96875 L 16.4375 -2.53125 C 15.695312 -1.65625 14.78125 -0.988281 13.6875 -0.53125 C 12.59375 -0.0703125 11.390625 0.15625 10.078125 0.15625 C 8.390625 0.15625 6.890625 -0.203125 5.578125 -0.921875 C 4.273438 -1.640625 3.257812 -2.632812 2.53125 -3.90625 C 1.800781 -5.1875 1.4375 -6.628906 1.4375 -8.234375 C 1.4375 -9.835938 1.785156 -11.273438 2.484375 -12.546875 C 3.179688 -13.816406 4.140625 -14.804688 5.359375 -15.515625 C 6.585938 -16.234375 7.960938 -16.59375 9.484375 -16.59375 C 11.003906 -16.59375 12.367188 -16.234375 13.578125 -15.515625 C 14.785156 -14.804688 15.734375 -13.820312 16.421875 -12.5625 C 17.117188 -11.300781 17.46875 -9.859375 17.46875 -8.234375 Z M 9.484375 -14.671875 C 7.898438 -14.671875 6.566406 -14.164062 5.484375 -13.15625 C 4.410156 -12.144531 3.800781 -10.828125 3.65625 -9.203125 L 15.328125 -9.203125 C 15.179688 -10.828125 14.570312 -12.144531 13.5 -13.15625 C 12.425781 -14.164062 11.085938 -14.671875 9.484375 -14.671875 Z M 9.484375 -14.671875 "/></g></g></g></svg>